<?xml version="1.0" encoding="utf-8"?>
<!-- Generator: Adobe Illustrator 24.1.1, SVG Export Plug-In . SVG Version: 6.00 Build 0)  -->
<svg version="1.1" id="Layer_1" xmlns="http://www.w3.org/2000/svg" xmlns:xlink="http://www.w3.org/1999/xlink" x="0px" y="0px"
	 viewBox="0 0 190.6 81.8" style="enable-background:new 0 0 190.6 81.8;" xml:space="preserve">
<style type="text/css">
	.st0{opacity:0.5;fill:#3167BF;enable-background:new    ;}
	.st1{fill:#FFFFFF;}
</style>
<path id="패스_297" class="st0" d="M108.1,7.4l80.1,77.6L154,84.8l-20.1,1.4L86,34.8L84.6,1.6H105l0.6,3.1L108.1,7.4z"/>
<g id="그룹_281_1_">
	<g id="그룹_280_1_">
		<path id="패스_292_1_" class="st1" d="M225.5,15.5c0.1,0.4,0.4,0.7,0.8,0.8l1.4,0.3V18c0,0.3,0.1,0.6,0.3,0.8l1,1l-1.8,3.2
			c-0.1,0.2-0.2,0.4-0.2,0.6v4c0,0.2,0.1,0.5,0.2,0.7l1.8,2.2c0.2,0.3,0.5,0.5,0.9,0.5c0.2,0,0.3,0,0.5-0.1l4-1.7
			c0.4-0.2,0.7-0.6,0.7-1v-0.8l1.1-0.3l3.1,1c0.5,0.2,1.1-0.1,1.4-0.6l0.8-1.6h2.6c0.4,0,0.8-0.3,1-0.7l1.7-4
			c0.1-0.1,0.1-0.3,0.1-0.5v-2.8c0-0.5-0.3-0.9-0.8-1.1l-0.9-0.3V9.9c0-0.2-0.1-0.4-0.1-0.6l-4.4-7.9c-0.3-0.5-1-0.7-1.5-0.4
			c0,0,0,0-0.1,0l-1.4,0.9h-5.3c-0.4,0-0.7,0.2-0.9,0.5l-1.9,2.9h-2.2c-0.4,0-0.8,0.2-1,0.6s-0.2,0.8,0,1.1l2.9,4.5h-3
			c-0.6,0-1.1,0.5-1.1,1.1c0,0.1,0,0.2,0,0.3L225.5,15.5z M231.1,14.1c0.4,0,0.8-0.2,1-0.6c0.2-0.4,0.2-0.8,0-1.2l-2.9-4.5h0.8
			c0.4,0,0.7-0.2,0.9-0.5l1.9-2.9h5.1c0.2,0,0.4-0.1,0.6-0.2l0.7-0.5l3.8,6.6v7c0,0.5,0.3,0.9,0.8,1.1l0.9,0.3v1.8l-1.3,3.1h-2.7
			c-0.4,0-0.8,0.2-1,0.6l-0.7,1.4l-2.5-0.8c-0.2-0.1-0.4-0.1-0.6,0l-2.3,0.6c-0.5,0.1-0.9,0.6-0.9,1.1v1l-2.5,1l-0.9-1.3V24l2.1-3.7
			c0.3-0.4,0.2-1-0.2-1.4l-1.4-1.4v-1.8c0-0.5-0.4-1-0.9-1.1l-1.6-0.4V14h3.8V14.1z"/>
		<path id="패스_293_1_" class="st1" d="M230,31.7h-2.8c-0.5,0-0.9,0.3-1.1,0.7l-1.1,2.8c-0.2,0.6,0,1.2,0.6,1.5c0,0,0,0,0.1,0
			l1.7,0.6c0.1,0,0.2,0.1,0.4,0.1h0.2l3.4-0.6c0.6-0.1,1-0.7,0.9-1.3c0-0.1,0-0.2-0.1-0.2l-1.1-2.8C230.9,31.9,230.4,31.7,230,31.7z
			 M227.8,35l-0.3-0.1l0.4-1h1.3l0.3,0.8L227.8,35z"/>
		<rect id="사각형_229_1_" x="223.7" y="28.3" class="st1" width="2.3" height="2.3"/>
		<rect id="사각형_230_1_" x="237" y="14.1" class="st1" width="2.3" height="2.3"/>
		<rect id="사각형_231_1_" x="237" y="9.6" class="st1" width="2.3" height="2.3"/>
	</g>
	<path id="패스_294_1_" class="st1" d="M220.6,18.2c-0.6,0-1.2,0.4-1.4,0.9h-2.5c-0.2,0-0.4,0.1-0.5,0.3l-0.7,1.5l-1.5-4.4
		c-0.1-0.2-0.2-0.4-0.4-0.4c-0.3-0.1-0.6,0.1-0.7,0.4l0,0l-1.5,6.1l-2.6-11.8c0-0.2-0.2-0.4-0.5-0.5s-0.6,0.1-0.7,0.4l0,0l-2.1,9
		l-1-2.9l0,0c-0.1-0.2-0.2-0.3-0.3-0.3c-0.3-0.1-0.7,0-0.8,0.3l0,0l-1.1,2.2h-1.7c-0.3-0.8-1.2-1.1-2-0.8c-0.5,0.2-0.9,0.8-0.9,1.4
		l0,0c0,0.8,0.7,1.5,1.5,1.5l0,0c0.6,0,1.1-0.4,1.4-0.9h2.1c0.3,0,0.5-0.2,0.6-0.4l0.6-1.2l1.2,3.5c0.1,0.3,0.4,0.5,0.8,0.4l0,0l0,0
		c0.2-0.1,0.3-0.2,0.4-0.4l2-8.4l2.6,11.8c0.1,0.3,0.4,0.5,0.7,0.5l0,0c0.2-0.1,0.4-0.3,0.5-0.5l1.6-6.5l1.3,3.8
		c0.1,0.3,0.4,0.5,0.8,0.4l0,0c0.2-0.1,0.3-0.2,0.4-0.3l0,0l1.2-2.5h2.1c0.2,0.6,0.8,0.9,1.4,0.9c0.8,0,1.5-0.7,1.5-1.5l0,0
		C222.1,18.9,221.4,18.2,220.6,18.2z"/>
</g>
<g>
	<path id="패스_300" class="st1" d="M96.6,33.2c0,0.6-0.5,1.1-1.1,1.1l0,0c-0.6,0-1.1-0.5-1.1-1.1s0.5-1.1,1.1-1.1
		S96.6,32.5,96.6,33.2z"/>
	<path id="패스_301" class="st1" d="M97.9,22.7l-1.6-5.2c0.8-0.3,1.5-1.1,1.5-2.1c0-1.2-0.9-2.2-2.2-2.2c-1.2,0-2.2,0.9-2.2,2.2
		c0,0.9,0.5,1.7,1.5,2.1l-1.6,5.3c-0.1,0.2,0,0.4,0.1,0.5s0.3,0.2,0.5,0.2h3.5c0.3,0,0.6-0.3,0.6-0.6l0,0
		C97.9,22.9,97.9,22.8,97.9,22.7z M95.5,14.5c0.5,0,0.9,0.4,0.9,0.9c0,0.5-0.4,0.9-0.9,0.9c-0.5,0-0.9-0.4-0.9-0.9
		S95,14.5,95.5,14.5L95.5,14.5z M94.6,22.4l0.9-3.2l0.9,3.2H94.6z"/>
	<path id="패스_302" class="st1" d="M90.2,19.2c-0.2,0-0.4-0.1-0.5-0.2c-0.7-1-1.1-2.2-1.1-3.4s0.4-2.5,1.1-3.4
		c0.2-0.3,0.5-0.3,0.8-0.1l0,0c0.3,0.2,0.3,0.5,0.1,0.8l0,0c-0.6,0.8-0.9,1.8-0.9,2.7s0.3,2,0.9,2.7c0.2,0.3,0.1,0.6-0.1,0.8l0,0
		C90.5,19.2,90.4,19.2,90.2,19.2z"/>
	<path id="패스_303" class="st1" d="M92.1,17.8c-0.2,0-0.3-0.1-0.4-0.2c-0.5-0.6-0.7-1.3-0.7-2.1s0.3-1.5,0.7-2.1
		c0.2-0.2,0.6-0.3,0.8-0.1c0.2,0.2,0.3,0.6,0.1,0.8c-0.3,0.4-0.5,0.8-0.5,1.3c0,0.5,0.2,0.9,0.5,1.3c0.2,0.2,0.2,0.6-0.1,0.8
		C92.4,17.7,92.3,17.8,92.1,17.8z"/>
	<path id="패스_304" class="st1" d="M100.9,19.2c-0.1,0-0.2,0-0.3-0.1c-0.3-0.2-0.3-0.5-0.1-0.8l0,0c0.6-0.8,0.9-1.8,0.9-2.7
		s-0.3-2-0.9-2.7c-0.2-0.3-0.1-0.6,0.1-0.8l0,0c0.3-0.2,0.6-0.1,0.8,0.1l0,0c0.7,1,1.1,2.2,1.1,3.4s-0.4,2.5-1.1,3.4
		C101.2,19.1,101,19.2,100.9,19.2z"/>
	<path id="패스_305" class="st1" d="M98.9,17.8c-0.1,0-0.3,0-0.4-0.1c-0.2-0.2-0.3-0.6-0.1-0.8c0.3-0.4,0.5-0.8,0.5-1.3
		s-0.2-0.9-0.5-1.3c-0.2-0.2-0.2-0.6,0.1-0.8c0.2-0.2,0.6-0.2,0.8,0.1c0.5,0.6,0.7,1.3,0.7,2.1c0,0.7-0.3,1.5-0.7,2.1
		C99.3,17.7,99.1,17.8,98.9,17.8z"/>
	<path id="패스_306" class="st1" d="M104.1,0H86.9c-1.2,0-2.3,1-2.3,2.3V34c0,1.2,1,2.3,2.3,2.3h17.2c1.2,0,2.3-1,2.3-2.3V2.3
		C106.4,1,105.3,0,104.1,0z M104.9,34c0,0.4-0.3,0.7-0.7,0.7H87c-0.4,0-0.7-0.3-0.7-0.7v-2.4h18.7V34z M104.9,30.1H86.3V4.2h18.7
		C104.9,4.2,104.9,30.1,104.9,30.1z M104.9,2.7H86.3V2.3c0-0.4,0.3-0.7,0.7-0.7h17.2c0.4,0,0.7,0.3,0.7,0.7
		C104.9,2.3,104.9,2.7,104.9,2.7z"/>
</g>
</svg>
