<?xml version="1.0" encoding="utf-8"?>
<!-- Generator: Adobe Illustrator 24.1.1, SVG Export Plug-In . SVG Version: 6.00 Build 0)  -->
<svg version="1.1" id="Layer_1" xmlns="http://www.w3.org/2000/svg" xmlns:xlink="http://www.w3.org/1999/xlink" x="0px" y="0px"
	 viewBox="0 0 190.6 81.8" style="enable-background:new 0 0 190.6 81.8;" xml:space="preserve">
<style type="text/css">
	.st0{fill:#FFFFFF;}
	.st1{fill:#3E95C2;}
	.st2{fill:none;stroke:#484D51;stroke-width:1.5;stroke-linejoin:round;}
	.st3{fill:none;stroke:#7DC688;stroke-width:1.5;stroke-linecap:round;stroke-miterlimit:10;}
	.st4{fill:#7DC688;stroke:#7DC688;stroke-width:1.5;}
</style>
<g id="그룹_281_1_">
	<g id="그룹_280_1_">
		<path id="패스_292_1_" class="st0" d="M225.5,15.5c0.1,0.4,0.4,0.7,0.8,0.8l1.4,0.3V18c0,0.3,0.1,0.6,0.3,0.8l1,1l-1.8,3.2
			c-0.1,0.2-0.2,0.4-0.2,0.6v4c0,0.2,0.1,0.5,0.2,0.7l1.8,2.2c0.2,0.3,0.5,0.5,0.9,0.5c0.2,0,0.3,0,0.5-0.1l4-1.7
			c0.4-0.2,0.7-0.6,0.7-1v-0.8l1.1-0.3l3.1,1c0.5,0.2,1.1-0.1,1.4-0.6l0.8-1.6h2.6c0.4,0,0.8-0.3,1-0.7l1.7-4
			c0.1-0.1,0.1-0.3,0.1-0.5v-2.8c0-0.5-0.3-0.9-0.8-1.1l-0.9-0.3V9.9c0-0.2-0.1-0.4-0.1-0.6l-4.4-7.9c-0.3-0.5-1-0.7-1.5-0.4
			c0,0,0,0-0.1,0l-1.4,0.9h-5.3c-0.4,0-0.7,0.2-0.9,0.5l-1.9,2.9h-2.2c-0.4,0-0.8,0.2-1,0.6s-0.2,0.8,0,1.1l2.9,4.5h-3
			c-0.6,0-1.1,0.5-1.1,1.1c0,0.1,0,0.2,0,0.3L225.5,15.5z M231.1,14.1c0.4,0,0.8-0.2,1-0.6c0.2-0.4,0.2-0.8,0-1.2l-2.9-4.5h0.8
			c0.4,0,0.7-0.2,0.9-0.5l1.9-2.9h5.1c0.2,0,0.4-0.1,0.6-0.2l0.7-0.5l3.8,6.6v7c0,0.5,0.3,0.9,0.8,1.1l0.9,0.3v1.8l-1.3,3.1h-2.7
			c-0.4,0-0.8,0.2-1,0.6l-0.7,1.4l-2.5-0.8c-0.2-0.1-0.4-0.1-0.6,0l-2.3,0.6c-0.5,0.1-0.9,0.6-0.9,1.1v1l-2.5,1l-0.9-1.3V24l2.1-3.7
			c0.3-0.4,0.2-1-0.2-1.4l-1.4-1.4v-1.8c0-0.5-0.4-1-0.9-1.1l-1.6-0.4V14h3.8L231.1,14.1L231.1,14.1z"/>
		<path id="패스_293_1_" class="st0" d="M230,31.7h-2.8c-0.5,0-0.9,0.3-1.1,0.7l-1.1,2.8c-0.2,0.6,0,1.2,0.6,1.5c0,0,0,0,0.1,0
			l1.7,0.6c0.1,0,0.2,0.1,0.4,0.1h0.2l3.4-0.6c0.6-0.1,1-0.7,0.9-1.3c0-0.1,0-0.2-0.1-0.2l-1.1-2.8C230.9,31.9,230.4,31.7,230,31.7z
			 M227.8,35l-0.3-0.1l0.4-1h1.3l0.3,0.8L227.8,35z"/>
		<rect id="사각형_229_1_" x="223.7" y="28.3" class="st0" width="2.3" height="2.3"/>
		<rect id="사각형_230_1_" x="237" y="14.1" class="st0" width="2.3" height="2.3"/>
		<rect id="사각형_231_1_" x="237" y="9.6" class="st0" width="2.3" height="2.3"/>
	</g>
	<path id="패스_294_1_" class="st0" d="M220.6,18.2c-0.6,0-1.2,0.4-1.4,0.9h-2.5c-0.2,0-0.4,0.1-0.5,0.3l-0.7,1.5l-1.5-4.4
		c-0.1-0.2-0.2-0.4-0.4-0.4c-0.3-0.1-0.6,0.1-0.7,0.4l0,0l-1.5,6.1l-2.6-11.8c0-0.2-0.2-0.4-0.5-0.5s-0.6,0.1-0.7,0.4l0,0l-2.1,9
		l-1-2.9l0,0c-0.1-0.2-0.2-0.3-0.3-0.3c-0.3-0.1-0.7,0-0.8,0.3l0,0l-1.1,2.2h-1.7c-0.3-0.8-1.2-1.1-2-0.8c-0.5,0.2-0.9,0.8-0.9,1.4
		l0,0c0,0.8,0.7,1.5,1.5,1.5l0,0c0.6,0,1.1-0.4,1.4-0.9h2.1c0.3,0,0.5-0.2,0.6-0.4l0.6-1.2l1.2,3.5c0.1,0.3,0.4,0.5,0.8,0.4l0,0l0,0
		c0.2-0.1,0.3-0.2,0.4-0.4l2-8.4l2.6,11.8c0.1,0.3,0.4,0.5,0.7,0.5l0,0c0.2-0.1,0.4-0.3,0.5-0.5l1.6-6.5l1.3,3.8
		c0.1,0.3,0.4,0.5,0.8,0.4l0,0c0.2-0.1,0.3-0.2,0.4-0.3l0,0l1.2-2.5h2.1c0.2,0.6,0.8,0.9,1.4,0.9c0.8,0,1.5-0.7,1.5-1.5l0,0
		C222.1,18.9,221.4,18.2,220.6,18.2z"/>
</g>
<rect x="92.1" y="-37.4" class="st1" width="50.4" height="19.9"/>
<g id="그룹_247_1_" transform="translate(-2010.451 -549.66)">
	<path id="패스_258_1_" class="st2" d="M2103.7,585.7h9.2v12.9c0,0-1.4,6.3-9.2,5.5c-7.7,0.8-9.2-5.5-9.2-5.5v-12.9H2103.7"/>
	<path id="패스_259_1_" class="st2" d="M2113.3,588h3.3c0,0,4.2,3.7,0,8.7h-3.6"/>
	<g id="그룹_244_1_" transform="translate(2018.723 560.865)">
		<path id="패스_260_1_" class="st3" d="M81.5,18.6c0.9-1.1,2.2-1.7,3.5-1.5"/>
		<path id="패스_261_1_" class="st3" d="M88.1,18.6c-0.9-1.1-2.2-1.7-3.5-1.5"/>
	</g>
	<g id="그룹_245_1_" transform="translate(2015.526 556.128)">
		<path id="패스_262_1_" class="st3" d="M82.2,20.8c1.4-1.9,3.7-2.8,6.1-2.7"/>
		<path id="패스_263_1_" class="st3" d="M93.8,20.8C92.3,19,90,18,87.6,18.2"/>
	</g>
	<g id="그룹_246_1_" transform="translate(2012.443 550.661)">
		<path id="패스_264_1_" class="st3" d="M82.9,23.2c2.1-2.7,5.3-4,8.6-3.8"/>
		<path id="패스_265_1_" class="st3" d="M99.2,23.2c-2.2-2.6-5.3-4-8.6-3.8"/>
	</g>
	<path id="패스_266_2_" class="st4" d="M2104.4,582.1c0,0.5-0.4,0.9-0.9,0.9c-0.5,0-0.9-0.4-0.9-0.9c0-0.6,0.4-0.9,0.9-0.9
		C2104,581.1,2104.4,581.5,2104.4,582.1L2104.4,582.1z"/>
</g>
</svg>
