<?xml version="1.0" encoding="utf-8"?>
<!-- Generator: Adobe Illustrator 24.1.1, SVG Export Plug-In . SVG Version: 6.00 Build 0)  -->
<svg version="1.1" id="Layer_1" xmlns="http://www.w3.org/2000/svg" xmlns:xlink="http://www.w3.org/1999/xlink" x="0px" y="0px"
	 viewBox="0 0 190.6 81.8" style="enable-background:new 0 0 190.6 81.8;" xml:space="preserve">
<style type="text/css">
	.st0{fill:#EF9275;}
	.st1{fill:#FFFFFF;}
	.st2{fill:none;}
</style>
<polygon class="st0" points="166.2,61.4 108.9,4.5 92.1,15.9 86.5,20.5 79.6,34.9 130.6,85 192.9,85 "/>
<g id="그룹_281_1_">
	<g id="그룹_280_1_">
		<path id="패스_292_1_" class="st1" d="M225.5,15.5c0.1,0.4,0.4,0.7,0.8,0.8l1.4,0.3V18c0,0.3,0.1,0.6,0.3,0.8l1,1l-1.8,3.2
			c-0.1,0.2-0.2,0.4-0.2,0.6v4c0,0.2,0.1,0.5,0.2,0.7l1.8,2.2c0.2,0.3,0.5,0.5,0.9,0.5c0.2,0,0.3,0,0.5-0.1l4-1.7
			c0.4-0.2,0.7-0.6,0.7-1v-0.8l1.1-0.3l3.1,1c0.5,0.2,1.1-0.1,1.4-0.6l0.8-1.6h2.6c0.4,0,0.8-0.3,1-0.7l1.7-4
			c0.1-0.1,0.1-0.3,0.1-0.5v-2.8c0-0.5-0.3-0.9-0.8-1.1l-0.9-0.3V9.9c0-0.2-0.1-0.4-0.1-0.6l-4.4-7.9c-0.3-0.5-1-0.7-1.5-0.4
			c0,0,0,0-0.1,0l-1.4,0.9h-5.3c-0.4,0-0.7,0.2-0.9,0.5l-1.9,2.9h-2.2c-0.4,0-0.8,0.2-1,0.6s-0.2,0.8,0,1.1l2.9,4.5h-3
			c-0.6,0-1.1,0.5-1.1,1.1c0,0.1,0,0.2,0,0.3L225.5,15.5z M231.1,14.1c0.4,0,0.8-0.2,1-0.6c0.2-0.4,0.2-0.8,0-1.2l-2.9-4.5h0.8
			c0.4,0,0.7-0.2,0.9-0.5l1.9-2.9h5.1c0.2,0,0.4-0.1,0.6-0.2l0.7-0.5l3.8,6.6v7c0,0.5,0.3,0.9,0.8,1.1l0.9,0.3v1.8l-1.3,3.1h-2.7
			c-0.4,0-0.8,0.2-1,0.6l-0.7,1.4l-2.5-0.8c-0.2-0.1-0.4-0.1-0.6,0l-2.3,0.6c-0.5,0.1-0.9,0.6-0.9,1.1v1l-2.5,1l-0.9-1.3V24l2.1-3.7
			c0.3-0.4,0.2-1-0.2-1.4l-1.4-1.4v-1.8c0-0.5-0.4-1-0.9-1.1l-1.6-0.4V14h3.8V14.1z"/>
		<path id="패스_293_1_" class="st1" d="M230,31.7h-2.8c-0.5,0-0.9,0.3-1.1,0.7l-1.1,2.8c-0.2,0.6,0,1.2,0.6,1.5c0,0,0,0,0.1,0
			l1.7,0.6c0.1,0,0.2,0.1,0.4,0.1h0.2l3.4-0.6c0.6-0.1,1-0.7,0.9-1.3c0-0.1,0-0.2-0.1-0.2l-1.1-2.8C230.9,31.9,230.4,31.7,230,31.7z
			 M227.8,35l-0.3-0.1l0.4-1h1.3l0.3,0.8L227.8,35z"/>
		<rect id="사각형_229_1_" x="223.7" y="28.3" class="st1" width="2.3" height="2.3"/>
		<rect id="사각형_230_1_" x="237" y="14.1" class="st1" width="2.3" height="2.3"/>
		<rect id="사각형_231_1_" x="237" y="9.6" class="st1" width="2.3" height="2.3"/>
	</g>
	<path id="패스_294_1_" class="st1" d="M220.6,18.2c-0.6,0-1.2,0.4-1.4,0.9h-2.5c-0.2,0-0.4,0.1-0.5,0.3l-0.7,1.5l-1.5-4.4
		c-0.1-0.2-0.2-0.4-0.4-0.4c-0.3-0.1-0.6,0.1-0.7,0.4l0,0l-1.5,6.1l-2.6-11.8c0-0.2-0.2-0.4-0.5-0.5s-0.6,0.1-0.7,0.4l0,0l-2.1,9
		l-1-2.9l0,0c-0.1-0.2-0.2-0.3-0.3-0.3c-0.3-0.1-0.7,0-0.8,0.3l0,0l-1.1,2.2h-1.7c-0.3-0.8-1.2-1.1-2-0.8c-0.5,0.2-0.9,0.8-0.9,1.4
		l0,0c0,0.8,0.7,1.5,1.5,1.5l0,0c0.6,0,1.1-0.4,1.4-0.9h2.1c0.3,0,0.5-0.2,0.6-0.4l0.6-1.2l1.2,3.5c0.1,0.3,0.4,0.5,0.8,0.4l0,0l0,0
		c0.2-0.1,0.3-0.2,0.4-0.4l2-8.4l2.6,11.8c0.1,0.3,0.4,0.5,0.7,0.5l0,0c0.2-0.1,0.4-0.3,0.5-0.5l1.6-6.5l1.3,3.8
		c0.1,0.3,0.4,0.5,0.8,0.4l0,0c0.2-0.1,0.3-0.2,0.4-0.3l0,0l1.2-2.5h2.1c0.2,0.6,0.8,0.9,1.4,0.9c0.8,0,1.5-0.7,1.5-1.5l0,0
		C222.1,18.9,221.4,18.2,220.6,18.2z"/>
</g>
<path id="패스_298" class="st1" d="M83.6,20.9c0.2,0.4,0.5,0.8,0.7,1.1l-5.2,11.6c-0.2,0.5,0,1.1,0.5,1.3s1.1,0,1.3-0.5l0.7-1.6h9
	l0.8,1.7c0.2,0.5,0.8,0.7,1.3,0.5l0,0c0.5-0.2,0.7-0.8,0.5-1.3l0,0l-3.5-7.5c3.7,1.6,8,1.3,11.5-0.7L88.3,3.3
	C82.1,6.9,80.1,14.8,83.6,20.9z M85.8,23.7c0.3,0.3,0.5,0.5,0.8,0.7l1.1,2.3h-3.3L85.8,23.7z M89.7,30.8h-7.1l1-2.1h5L89.7,30.8z
	 M99.8,9.4c-0.6,0.3-0.9,0.9-0.9,1.6l-3.4,1.9l0.9,1.6l3.4-2c0.6,0.3,1.3,0.3,1.8,0c0.9-0.5,1.2-1.6,0.7-2.5S100.6,8.8,99.8,9.4
	L99.8,9.4z M108.1,3.4c-1.8-1.7-4.1-2.9-6.5-3.5c-0.2,0-0.3-0.1-0.3-0.1c-0.5-0.1-1.1,0.2-1.2,0.8c-0.1,0.5,0.2,1.1,0.8,1.2l0,0l0,0
	c0,0,0.1,0,0.2,0c2.1,0.6,4,1.6,5.6,3.1c2.1,2,3.7,5,2.3,10.2c0,0.1-0.1,0.2-0.1,0.3c-0.1,0.5,0.2,1.1,0.7,1.2l0,0l0,0
	c0.5,0.1,1.1-0.2,1.2-0.7c0-0.1,0.1-0.2,0.1-0.4C112.5,9.7,110.6,5.7,108.1,3.4L108.1,3.4z M105.6,6.4c-1-0.9-2.2-1.5-3.4-1.9
	c-0.1,0-0.2,0-0.2,0c-0.5-0.1-1.1,0.2-1.2,0.8l0,0c-0.1,0.5,0.2,1.1,0.8,1.2l0,0l0,0c0,0,0,0,0.1,0c1,0.3,1.9,0.7,2.6,1.4
	c0.9,0.9,1.6,2.2,1,4.6c0,0.1,0,0.1,0,0.2c-0.1,0.5,0.2,1.1,0.7,1.2l0,0c0.5,0.1,1.1-0.2,1.2-0.7l0.1-0.2
	C108,10.6,107.3,8.1,105.6,6.4L105.6,6.4z"/>
<path class="st2" d="M88.9-30.3c0.3,0,0.5-0.2,0.5-0.5c0-0.3-0.2-0.5-0.5-0.5c-0.3,0-0.5,0.2-0.5,0.5C88.4-30.5,88.6-30.3,88.9-30.3
	z"/>
<path class="st2" d="M90.6-26.5c3.3,0,5.9-2.7,5.9-5.9c0-3.3-2.7-5.9-5.9-5.9c-3.3,0-5.9,2.7-5.9,5.9C84.6-29.2,87.3-26.5,90.6-26.5
	z M88.9-36.8c3.3,0,5.9,2.7,5.9,5.9h-1.1c0-2.7-2.2-4.9-4.9-4.9V-36.8z M88.9-34.6c2.1,0,3.8,1.7,3.8,3.8h-1.1
	c0-1.5-1.2-2.7-2.7-2.7V-34.6z M88.9-32.5c0.9,0,1.6,0.7,1.6,1.6c0,0.9-0.7,1.6-1.6,1.6c-0.9,0-1.6-0.7-1.6-1.6
	C87.3-31.7,88-32.5,88.9-32.5z"/>
<path class="st2" d="M71.1-38.4c-3.3,0-5.9,2.7-5.9,5.9c0,3.3,2.7,5.9,5.9,5.9s5.9-2.7,5.9-5.9C77-35.7,74.4-38.4,71.1-38.4z
	 M75.4-29.7c0,0.3-0.2,0.5-0.5,0.5h-2.2v0.5h1.1v1.1h-5.4v-1.1h1.1v-0.5h-2.2c-0.3,0-0.5-0.2-0.5-0.5v-4.9c0-0.3,0.2-0.5,0.5-0.5
	h2.5l-1.2-1.2l0.8-0.8l1.8,1.8l1.8-1.8l0.8,0.8l-1.2,1.2h2.5c0.3,0,0.5,0.2,0.5,0.5V-29.7z"/>
<rect x="75.9" y="-23.6" class="st2" width="0.9" height="1.8"/>
<rect x="84.8" y="-23.6" class="st2" width="0.9" height="1.9"/>
<path class="st2" d="M71.3-13.5c-0.1,0-0.1,0-0.2,0c-0.1,0-0.1,0-0.2,0l-0.4,2.2h1.2L71.3-13.5z"/>
<polygon class="st2" points="70.3,-10.3 70.1,-9.2 72.1,-9.2 71.9,-10.3 "/>
<rect x="70.5" y="-29.2" class="st2" width="1.1" height="0.5"/>
<rect x="67.8" y="-34.1" class="st2" width="6.5" height="3.8"/>
<path class="st2" d="M71.1-18.9c-3.3,0-5.9,2.7-5.9,5.9c0,3.3,2.7,5.9,5.9,5.9S77-9.7,77-13C77-16.3,74.4-18.9,71.1-18.9z
	 M68.2-17.4l0.3-0.3l0.8,0.8L69-16.6c-0.4,0.4-0.6,0.9-0.6,1.5c0,0.5,0.2,1.1,0.6,1.5l0.3,0.3l-0.8,0.8l-0.3-0.3
	c-0.6-0.6-0.9-1.4-0.9-2.2C67.3-16,67.6-16.8,68.2-17.4z M74.3-8.1h-6.5v-1.1H69l0.9-4.9c-0.3-0.3-0.4-0.7-0.4-1.1
	c0-0.9,0.7-1.6,1.6-1.6c0.9,0,1.6,0.7,1.6,1.6c0,0.4-0.2,0.8-0.4,1.1l0.9,4.9h1.2V-8.1z M74-12.9l-0.3,0.3l-0.8-0.8l0.3-0.3
	c0.4-0.4,0.6-0.9,0.6-1.5c0-0.5-0.2-1.1-0.6-1.5l-0.3-0.3l0.8-0.8l0.3,0.3c0.6,0.6,0.9,1.4,0.9,2.2C74.9-14.3,74.5-13.5,74-12.9z"/>
<path class="st2" d="M90.6-13.5v-1.8l-1.7,2.9H90c0.3,0,0.5,0.2,0.5,0.5v1.8l1.7-2.9h-1.2C90.8-13,90.6-13.2,90.6-13.5z"/>
<path class="st2" d="M71.1-14.6c0.3,0,0.5-0.2,0.5-0.5c0-0.3-0.2-0.5-0.5-0.5c-0.3,0-0.5,0.2-0.5,0.5C70.5-14.8,70.8-14.6,71.1-14.6
	z"/>
<rect x="81.9" y="-25.5" class="st2" width="0.9" height="5.6"/>
<rect x="83.3" y="-24.6" class="st2" width="0.9" height="3.7"/>
<rect x="77.4" y="-24.6" class="st2" width="0.9" height="3.7"/>
<path class="st2" d="M90.6-18.9c-3.3,0-5.9,2.7-5.9,5.9c0,3.3,2.7,5.9,5.9,5.9c3.3,0,5.9-2.7,5.9-5.9C96.5-16.3,93.8-18.9,90.6-18.9
	z M93.7-13.2l-3.2,5.4c-0.1,0.2-0.3,0.3-0.5,0.3c0,0-0.1,0-0.1,0c-0.2-0.1-0.4-0.3-0.4-0.5v-3.2h-1.6c-0.2,0-0.4-0.1-0.5-0.3
	c-0.1-0.2-0.1-0.4,0-0.5l3.2-5.4c0.1-0.2,0.4-0.3,0.6-0.2c0.2,0.1,0.4,0.3,0.4,0.5v3.2h1.6c0.2,0,0.4,0.1,0.5,0.3
	C93.8-13.6,93.8-13.4,93.7-13.2z"/>
<rect x="80.4" y="-24.6" class="st2" width="0.9" height="3.7"/>
<rect x="78.9" y="-23.9" class="st2" width="0.9" height="2.4"/>
<path d="M73.6-17.7l-0.8,0.8l0.3,0.3c0.4,0.4,0.6,0.9,0.6,1.5c0,0.5-0.2,1.1-0.6,1.5l-0.3,0.3l0.8,0.8l0.3-0.3
	c0.6-0.6,0.9-1.4,0.9-2.2c0-0.8-0.3-1.6-0.9-2.2L73.6-17.7z"/>
<path d="M68.5-12.6l0.8-0.8L69-13.7c-0.4-0.4-0.6-0.9-0.6-1.5c0-0.5,0.2-1.1,0.6-1.5l0.3-0.3l-0.8-0.8l-0.3,0.3
	c-0.6,0.6-0.9,1.4-0.9,2.2c0,0.8,0.3,1.6,0.9,2.2L68.5-12.6z"/>
<path d="M85.2-17.5l-0.9-0.9c1.3-1,2.1-2.6,2.1-4.4c0-1.8-0.8-3.3-2.1-4.4l0.9-0.9c0,0,0.1,0.1,0.1,0.1l-0.7-1l-1.2,1.2
	c-0.8-0.4-1.6-0.6-2.6-0.6c-0.9,0-1.8,0.2-2.6,0.6l-1.2-1.2l-0.9,1.2c0.1-0.1,0.2-0.2,0.3-0.3l0.9,0.9c-1.3,1-2.1,2.6-2.1,4.4
	c0,1.8,0.8,3.3,2.1,4.4l-0.9,0.9c0,0-0.1-0.1-0.1-0.1l0.8,1l1.1-1.1c0.8,0.4,1.6,0.6,2.6,0.6c0.9,0,1.8-0.2,2.6-0.6l1.2,1.2
	c0,0,0,0.1-0.1,0.1l0.8-1.1C85.3-17.6,85.2-17.5,85.2-17.5z M84.8-23.6h0.9v1.9h-0.9V-23.6z M76.8-21.8h-0.9v-1.8h0.9V-21.8z
	 M78.3-20.9h-0.9v-3.7h0.9V-20.9z M79.8-21.5h-0.9v-2.4h0.9V-21.5z M81.3-20.9h-0.9v-3.7h0.9V-20.9z M82.8-19.9h-0.9v-5.6h0.9V-19.9
	z M84.3-20.9h-0.9v-3.7h0.9V-20.9z"/>
<path d="M71.1-20c-3.9,0-7,3.2-7,7c0,3.9,3.2,7,7,7c3.9,0,7-3.2,7-7c0-1.3-0.4-2.6-1-3.6l0,0l-0.8-1C75.1-19.1,73.2-20,71.1-20z
	 M71.1-7c-3.3,0-5.9-2.7-5.9-5.9c0-3.3,2.7-5.9,5.9-5.9S77-16.3,77-13C77-9.7,74.4-7,71.1-7z"/>
<path d="M90.6-25.4c3.9,0,7-3.2,7-7c0-3.9-3.2-7-7-7c-3.9,0-7,3.2-7,7c0,1.3,0.4,2.6,1,3.6l0.7,1C86.6-26.4,88.5-25.4,90.6-25.4z
	 M90.6-38.4c3.3,0,5.9,2.7,5.9,5.9c0,3.3-2.7,5.9-5.9,5.9c-3.3,0-5.9-2.7-5.9-5.9C84.6-35.7,87.3-38.4,90.6-38.4z"/>
<path d="M90.6-20c-2.1,0-4,0.9-5.3,2.4l-0.8,1.1c-0.6,1-1,2.2-1,3.5c0,3.9,3.2,7,7,7c3.9,0,7-3.2,7-7C97.6-16.9,94.4-20,90.6-20z
	 M90.6-7c-3.3,0-5.9-2.7-5.9-5.9c0-3.3,2.7-5.9,5.9-5.9c3.3,0,5.9,2.7,5.9,5.9C96.5-9.7,93.8-7,90.6-7z"/>
<path d="M78.1-32.5c0-3.9-3.2-7-7-7c-3.9,0-7,3.2-7,7c0,3.9,3.2,7,7,7c2,0,3.8-0.9,5.1-2.2l0.9-1.2C77.7-29.9,78.1-31.1,78.1-32.5z
	 M71.1-26.5c-3.3,0-5.9-2.7-5.9-5.9c0-3.3,2.7-5.9,5.9-5.9s5.9,2.7,5.9,5.9C77-29.2,74.4-26.5,71.1-26.5z"/>
<path d="M74.9-35.2h-2.5l1.2-1.2l-0.8-0.8l-1.8,1.8l-1.8-1.8l-0.8,0.8l1.2,1.2h-2.5c-0.3,0-0.5,0.2-0.5,0.5v4.9
	c0,0.3,0.2,0.5,0.5,0.5h2.2v0.5h-1.1v1.1h5.4v-1.1h-1.1v-0.5h2.2c0.3,0,0.5-0.2,0.5-0.5v-4.9C75.4-34.9,75.2-35.2,74.9-35.2z
	 M71.6-28.7h-1.1v-0.5h1.1V-28.7z M74.3-30.3h-6.5v-3.8h6.5V-30.3z"/>
<path d="M72.3-14.1c0.3-0.3,0.4-0.7,0.4-1.1c0-0.9-0.7-1.6-1.6-1.6c-0.9,0-1.6,0.7-1.6,1.6c0,0.4,0.2,0.8,0.4,1.1L69-9.2h-1.2v1.1
	h6.5v-1.1h-1.2L72.3-14.1z M71.1-15.7c0.3,0,0.5,0.2,0.5,0.5c0,0.3-0.2,0.5-0.5,0.5c-0.3,0-0.5-0.2-0.5-0.5
	C70.5-15.4,70.8-15.7,71.1-15.7z M70.9-13.5c0.1,0,0.1,0,0.2,0c0.1,0,0.1,0,0.2,0l0.4,2.2h-1.2L70.9-13.5z M70.1-9.2l0.2-1.1h1.6
	l0.2,1.1H70.1z"/>
<path d="M93.3-14.1h-1.6v-3.2c0-0.2-0.2-0.5-0.4-0.5c-0.2-0.1-0.5,0-0.6,0.2l-3.2,5.4c-0.1,0.2-0.1,0.4,0,0.5
	c0.1,0.2,0.3,0.3,0.5,0.3h1.6v3.2c0,0.2,0.2,0.5,0.4,0.5c0,0,0.1,0,0.1,0c0.2,0,0.4-0.1,0.5-0.3l3.2-5.4c0.1-0.2,0.1-0.4,0-0.5
	C93.6-14,93.5-14.1,93.3-14.1z M90.6-10.1v-1.8c0-0.3-0.2-0.5-0.5-0.5h-1.2l1.7-2.9v1.8c0,0.3,0.2,0.5,0.5,0.5h1.2L90.6-10.1z"/>
<path d="M88.9-29.2c0.9,0,1.6-0.7,1.6-1.6c0-0.9-0.7-1.6-1.6-1.6c-0.9,0-1.6,0.7-1.6,1.6C87.3-29.9,88-29.2,88.9-29.2z M88.9-31.4
	c0.3,0,0.5,0.2,0.5,0.5c0,0.3-0.2,0.5-0.5,0.5c-0.3,0-0.5-0.2-0.5-0.5C88.4-31.1,88.6-31.4,88.9-31.4z"/>
<path d="M91.6-30.8h1.1c0-2.1-1.7-3.8-3.8-3.8v1.1C90.4-33.5,91.6-32.3,91.6-30.8z"/>
<path d="M93.8-30.8h1.1c0-3.3-2.7-5.9-5.9-5.9v1.1C91.6-35.7,93.8-33.5,93.8-30.8z"/>
<path class="st2" d="M69.2,26.6c0.2-0.2,0.2-0.6,0-0.8c-0.2-0.2-0.6-0.2-0.8,0c-0.2,0.2-0.2,0.6,0,0.8C68.7,26.8,69,26.8,69.2,26.6z
	"/>
<g>
	<path class="st1" d="M117.8,30.5c0.2,0.2,0.4,0.5,0.6,0.7c0.7,0.7,1.4,1.5,2.1,2.2c0.2,0.2,0.2,0.4,0,0.5c-0.3,0.3-0.6,0.5-0.8,0.8
		c-0.2,0.2-0.3,0.2-0.5,0c-0.8-0.9-1.7-1.9-2.5-2.8c0,0-0.1-0.1-0.1-0.1c-0.2,0.3-0.3,0.6-0.5,0.9c-0.3,0.5-0.5,1-0.8,1.5
		c-0.1,0.1-0.2,0.2-0.3,0.2c-0.2,0-0.2-0.1-0.3-0.3c-0.5-1.5-1-3-1.5-4.5c-0.4-1.3-0.9-2.6-1.3-3.9c0-0.1,0-0.1-0.1-0.2
		c0-0.1,0-0.2,0.1-0.3c0.1-0.1,0.2-0.1,0.3,0c0.3,0.1,0.5,0.2,0.8,0.4c2.2,1,4.4,2,6.7,3.1c0.3,0.1,0.5,0.2,0.8,0.4
		c0.1,0.1,0.2,0.1,0.2,0.3c0,0.1-0.1,0.2-0.2,0.3C119.5,29.8,118.7,30.2,117.8,30.5C117.9,30.5,117.8,30.5,117.8,30.5z"/>
</g>
</svg>
