<?xml version="1.0" encoding="utf-8"?>
<!-- Generator: Adobe Illustrator 23.0.0, SVG Export Plug-In . SVG Version: 6.00 Build 0)  -->
<svg version="1.1" id="Layer_1" xmlns="http://www.w3.org/2000/svg" xmlns:xlink="http://www.w3.org/1999/xlink" x="0px" y="0px"
	 viewBox="0 0 190.6 81.8" style="enable-background:new 0 0 190.6 81.8;" xml:space="preserve">
<style type="text/css">
	.st0{fill:#EF9275;}
	.st1{fill:#FFFFFF;}
</style>
<polygon class="st0" points="166.2,61.4 108.9,4.5 92.1,15.9 86.5,20.5 79.6,34.9 130.6,85 192.9,85 "/>
<g id="그룹_281_1_">
	<g id="그룹_280_1_">
		<path id="패스_292_1_" class="st1" d="M225.5,15.5c0.1,0.4,0.4,0.7,0.8,0.8l1.4,0.3v1.4c0,0.3,0.1,0.6,0.3,0.8l1,1l-1.8,3.2
			c-0.1,0.2-0.2,0.4-0.2,0.6v4c0,0.2,0.1,0.5,0.2,0.7l1.8,2.2c0.2,0.3,0.5,0.5,0.9,0.5c0.2,0,0.3,0,0.5-0.1l4-1.7
			c0.4-0.2,0.7-0.6,0.7-1v-0.8l1.1-0.3l3.1,1c0.5,0.2,1.1-0.1,1.4-0.6l0.8-1.6h2.6c0.4,0,0.8-0.3,1-0.7l1.7-4
			c0.1-0.1,0.1-0.3,0.1-0.5v-2.8c0-0.5-0.3-0.9-0.8-1.1l-0.9-0.3v-6.6c0-0.2-0.1-0.4-0.1-0.6l-4.4-7.9c-0.3-0.5-1-0.7-1.5-0.4
			c0,0,0,0-0.1,0l-1.4,0.9h-5.3c-0.4,0-0.7,0.2-0.9,0.5l-1.9,2.9h-2.2c-0.4,0-0.8,0.2-1,0.6c-0.2,0.4-0.2,0.8,0,1.1l2.9,4.5h-3
			c-0.6,0-1.1,0.5-1.1,1.1c0,0.1,0,0.2,0,0.3L225.5,15.5z M231.1,14.1c0.4,0,0.8-0.2,1-0.6c0.2-0.4,0.2-0.8,0-1.2l-2.9-4.5h0.8
			c0.4,0,0.7-0.2,0.9-0.5l1.9-2.9h5.1c0.2,0,0.4-0.1,0.6-0.2l0.7-0.5l3.8,6.6v7c0,0.5,0.3,0.9,0.8,1.1l0.9,0.3v1.8l-1.3,3.1h-2.7
			c-0.4,0-0.8,0.2-1,0.6l-0.7,1.4l-2.5-0.8c-0.2-0.1-0.4-0.1-0.6,0l-2.3,0.6c-0.5,0.1-0.9,0.6-0.9,1.1v1l-2.5,1l-0.9-1.3V24l2.1-3.7
			c0.3-0.4,0.2-1-0.2-1.4l-1.4-1.4v-1.8c0-0.5-0.4-1-0.9-1.1l-1.6-0.4v-0.2H231.1z"/>
		<path id="패스_293_1_" class="st1" d="M230,31.7h-2.8c-0.5,0-0.9,0.3-1.1,0.7l-1.1,2.8c-0.2,0.6,0,1.2,0.6,1.5c0,0,0,0,0.1,0
			l1.7,0.6c0.1,0,0.2,0.1,0.4,0.1h0.2l3.4-0.6c0.6-0.1,1-0.7,0.9-1.3c0-0.1,0-0.2-0.1-0.2l-1.1-2.8C230.9,31.9,230.4,31.7,230,31.7z
			 M227.8,35l-0.3-0.1l0.4-1h1.3l0.3,0.8L227.8,35z"/>
		<rect id="사각형_229_1_" x="223.7" y="28.3" class="st1" width="2.3" height="2.3"/>
		<rect id="사각형_230_1_" x="237" y="14.1" class="st1" width="2.3" height="2.3"/>
		<rect id="사각형_231_1_" x="237" y="9.6" class="st1" width="2.3" height="2.3"/>
	</g>
	<path id="패스_294_1_" class="st1" d="M220.6,18.2c-0.6,0-1.2,0.4-1.4,0.9h-2.5c-0.2,0-0.4,0.1-0.5,0.3l-0.7,1.5l-1.5-4.4
		c-0.1-0.2-0.2-0.4-0.4-0.4c-0.3-0.1-0.6,0.1-0.7,0.4l0,0l-1.5,6.1l-2.6-11.8c0-0.2-0.2-0.4-0.5-0.5c-0.3-0.1-0.6,0.1-0.7,0.4
		c0,0,0,0,0,0l-2.1,9l-1-2.9l0,0c-0.1-0.2-0.2-0.3-0.3-0.3c-0.3-0.1-0.7,0-0.8,0.3l0,0l-1.1,2.2h-1.7c-0.3-0.8-1.2-1.1-2-0.8
		c-0.5,0.2-0.9,0.8-0.9,1.4l0,0c0,0.8,0.7,1.5,1.5,1.5l0,0c0.6,0,1.1-0.4,1.4-0.9h2.1c0.3,0,0.5-0.2,0.6-0.4l0.6-1.2l1.2,3.5
		c0.1,0.3,0.4,0.5,0.8,0.4c0,0,0,0,0,0l0,0c0.2-0.1,0.3-0.2,0.4-0.4l2-8.4l2.6,11.8c0.1,0.3,0.4,0.5,0.7,0.5l0,0
		c0.2-0.1,0.4-0.3,0.5-0.5l1.6-6.5l1.3,3.8c0.1,0.3,0.4,0.5,0.8,0.4c0,0,0,0,0,0c0.2-0.1,0.3-0.2,0.4-0.3l0,0l1.2-2.5h2.1
		c0.2,0.6,0.8,0.9,1.4,0.9c0.8,0,1.5-0.7,1.5-1.5l0,0C222.1,18.9,221.4,18.2,220.6,18.2z"/>
</g>
<path id="패스_298" class="st1" d="M83.6,20.9c0.2,0.4,0.5,0.8,0.7,1.1l-5.2,11.6c-0.2,0.5,0,1.1,0.5,1.3s1.1,0,1.3-0.5l0.7-1.6h9
	l0.8,1.7c0.2,0.5,0.8,0.7,1.3,0.5l0,0c0.5-0.2,0.7-0.8,0.5-1.3l0,0l-3.5-7.5c3.7,1.6,8,1.3,11.5-0.7L88.3,3.3
	C82.1,6.9,80.1,14.8,83.6,20.9z M85.8,23.7c0.3,0.3,0.5,0.5,0.8,0.7l1.1,2.3h-3.3L85.8,23.7z M89.7,30.8h-7.1l1-2.1h5L89.7,30.8z
	 M99.8,9.4c-0.6,0.3-0.9,0.9-0.9,1.6l-3.4,1.9l0.9,1.6l3.4-2c0.6,0.3,1.3,0.3,1.8,0c0.9-0.5,1.2-1.6,0.7-2.5
	C101.8,9.1,100.6,8.8,99.8,9.4L99.8,9.4z M108.1,3.4c-1.8-1.7-4.1-2.9-6.5-3.5c-0.2,0-0.3-0.1-0.3-0.1c-0.5-0.1-1.1,0.2-1.2,0.8
	c-0.1,0.5,0.2,1.1,0.8,1.2l0,0l0,0c0,0,0.1,0,0.2,0c2.1,0.6,4,1.6,5.6,3.1c2.1,2,3.7,5,2.3,10.2c0,0.1-0.1,0.2-0.1,0.3
	c-0.1,0.5,0.2,1.1,0.7,1.2l0,0l0,0c0.5,0.1,1.1-0.2,1.2-0.7c0-0.1,0.1-0.2,0.1-0.4C112.5,9.7,110.6,5.7,108.1,3.4L108.1,3.4z
	 M105.6,6.4c-1-0.9-2.2-1.5-3.4-1.9c-0.1,0-0.2,0-0.2,0c-0.5-0.1-1.1,0.2-1.2,0.8l0,0c-0.1,0.5,0.2,1.1,0.8,1.2l0,0l0,0
	c0,0,0,0,0.1,0c1,0.3,1.9,0.7,2.6,1.4c0.9,0.9,1.6,2.2,1,4.6c0,0.1,0,0.1,0,0.2c-0.1,0.5,0.2,1.1,0.7,1.2l0,0
	c0.5,0.1,1.1-0.2,1.2-0.7l0.1-0.2C108,10.6,107.3,8.1,105.6,6.4L105.6,6.4z"/>
</svg>
