<?xml version="1.0" encoding="utf-8"?>
<!-- Generator: Adobe Illustrator 24.1.1, SVG Export Plug-In . SVG Version: 6.00 Build 0)  -->
<svg version="1.1" id="Layer_1" xmlns="http://www.w3.org/2000/svg" xmlns:xlink="http://www.w3.org/1999/xlink" x="0px" y="0px"
	 viewBox="0 0 190.6 81.8" style="enable-background:new 0 0 190.6 81.8;" xml:space="preserve">
<style type="text/css">
	.st0{fill:#FFFFFF;}
	.st1{fill:#F19E85;}
	.st2{fill:#484D51;}
</style>
<g id="그룹_281_1_">
	<g id="그룹_280_1_">
		<path id="패스_292_1_" class="st0" d="M225.5,15.5c0.1,0.4,0.4,0.7,0.8,0.8l1.4,0.3V18c0,0.3,0.1,0.6,0.3,0.8l1,1l-1.8,3.2
			c-0.1,0.2-0.2,0.4-0.2,0.6v4c0,0.2,0.1,0.5,0.2,0.7l1.8,2.2c0.2,0.3,0.5,0.5,0.9,0.5c0.2,0,0.3,0,0.5-0.1l4-1.7
			c0.4-0.2,0.7-0.6,0.7-1v-0.8l1.1-0.3l3.1,1c0.5,0.2,1.1-0.1,1.4-0.6l0.8-1.6h2.6c0.4,0,0.8-0.3,1-0.7l1.7-4
			c0.1-0.1,0.1-0.3,0.1-0.5v-2.8c0-0.5-0.3-0.9-0.8-1.1l-0.9-0.3V9.9c0-0.2-0.1-0.4-0.1-0.6l-4.4-7.9c-0.3-0.5-1-0.7-1.5-0.4
			c0,0,0,0-0.1,0l-1.4,0.9h-5.3c-0.4,0-0.7,0.2-0.9,0.5l-1.9,2.9h-2.2c-0.4,0-0.8,0.2-1,0.6s-0.2,0.8,0,1.1l2.9,4.5h-3
			c-0.6,0-1.1,0.5-1.1,1.1c0,0.1,0,0.2,0,0.3L225.5,15.5z M231.1,14.1c0.4,0,0.8-0.2,1-0.6c0.2-0.4,0.2-0.8,0-1.2l-2.9-4.5h0.8
			c0.4,0,0.7-0.2,0.9-0.5l1.9-2.9h5.1c0.2,0,0.4-0.1,0.6-0.2l0.7-0.5l3.8,6.6v7c0,0.5,0.3,0.9,0.8,1.1l0.9,0.3v1.8l-1.3,3.1h-2.7
			c-0.4,0-0.8,0.2-1,0.6l-0.7,1.4l-2.5-0.8c-0.2-0.1-0.4-0.1-0.6,0l-2.3,0.6c-0.5,0.1-0.9,0.6-0.9,1.1v1l-2.5,1l-0.9-1.3V24l2.1-3.7
			c0.3-0.4,0.2-1-0.2-1.4l-1.4-1.4v-1.8c0-0.5-0.4-1-0.9-1.1l-1.6-0.4V14h3.8L231.1,14.1L231.1,14.1z"/>
		<path id="패스_293_1_" class="st0" d="M230,31.7h-2.8c-0.5,0-0.9,0.3-1.1,0.7l-1.1,2.8c-0.2,0.6,0,1.2,0.6,1.5c0,0,0,0,0.1,0
			l1.7,0.6c0.1,0,0.2,0.1,0.4,0.1h0.2l3.4-0.6c0.6-0.1,1-0.7,0.9-1.3c0-0.1,0-0.2-0.1-0.2l-1.1-2.8C230.9,31.9,230.4,31.7,230,31.7z
			 M227.8,35l-0.3-0.1l0.4-1h1.3l0.3,0.8L227.8,35z"/>
		<rect id="사각형_229_1_" x="223.7" y="28.3" class="st0" width="2.3" height="2.3"/>
		<rect id="사각형_230_1_" x="237" y="14.1" class="st0" width="2.3" height="2.3"/>
		<rect id="사각형_231_1_" x="237" y="9.6" class="st0" width="2.3" height="2.3"/>
	</g>
	<path id="패스_294_1_" class="st0" d="M220.6,18.2c-0.6,0-1.2,0.4-1.4,0.9h-2.5c-0.2,0-0.4,0.1-0.5,0.3l-0.7,1.5l-1.5-4.4
		c-0.1-0.2-0.2-0.4-0.4-0.4c-0.3-0.1-0.6,0.1-0.7,0.4l0,0l-1.5,6.1l-2.6-11.8c0-0.2-0.2-0.4-0.5-0.5s-0.6,0.1-0.7,0.4l0,0l-2.1,9
		l-1-2.9l0,0c-0.1-0.2-0.2-0.3-0.3-0.3c-0.3-0.1-0.7,0-0.8,0.3l0,0l-1.1,2.2h-1.7c-0.3-0.8-1.2-1.1-2-0.8c-0.5,0.2-0.9,0.8-0.9,1.4
		l0,0c0,0.8,0.7,1.5,1.5,1.5l0,0c0.6,0,1.1-0.4,1.4-0.9h2.1c0.3,0,0.5-0.2,0.6-0.4l0.6-1.2l1.2,3.5c0.1,0.3,0.4,0.5,0.8,0.4l0,0l0,0
		c0.2-0.1,0.3-0.2,0.4-0.4l2-8.4l2.6,11.8c0.1,0.3,0.4,0.5,0.7,0.5l0,0c0.2-0.1,0.4-0.3,0.5-0.5l1.6-6.5l1.3,3.8
		c0.1,0.3,0.4,0.5,0.8,0.4l0,0c0.2-0.1,0.3-0.2,0.4-0.3l0,0l1.2-2.5h2.1c0.2,0.6,0.8,0.9,1.4,0.9c0.8,0,1.5-0.7,1.5-1.5l0,0
		C222.1,18.9,221.4,18.2,220.6,18.2z"/>
</g>
<g>
	<g>
		<path class="st1" d="M87.8,49l-3.1-1.4c-0.2-0.1-0.4-0.3-0.4-0.6v-0.9c1-0.8,1.7-2.1,1.7-3.6v-1.2c0.3-0.2,0.6-0.6,0.6-1v-0.1
			c0-2.5-2-4.5-4.5-4.5H81c-2.5,0-4.5,2-4.5,4.5v1.1c0,0.4,0.2,0.7,0.4,0.9c0,0,0.1,0.1,0.1,0.1v0.2c0,1.4,0.7,2.7,1.7,3.6V47
			c0,0.2-0.1,0.5-0.4,0.6L75.2,49c-1,0.5-1.7,1.5-1.7,2.6v4.9c0,0.3,0.2,0.5,0.5,0.5c0.3,0,0.5-0.2,0.5-0.5v-4.9c0-0.1,0-0.1,0-0.2
			l1.4,1.4c0.2,0.2,0.3,0.5,0.3,0.8v2.8c0,0.3,0.2,0.5,0.5,0.5c0.3,0,0.5-0.2,0.5-0.5v-2.8c0-0.6-0.2-1.2-0.7-1.6l-1.7-1.7
			c0.2-0.2,0.3-0.3,0.5-0.4l3.1-1.4l2.3,2.3v5.6c0,0.3,0.2,0.5,0.5,0.5c0.3,0,0.5-0.2,0.5-0.5v-5.6l2.3-2.3l3.1,1.4
			c0.2,0.1,0.4,0.2,0.5,0.4l-1.7,1.7c-0.4,0.4-0.7,1-0.7,1.6v2.8c0,0.3,0.2,0.5,0.5,0.5c0.3,0,0.5-0.2,0.5-0.5v-2.8
			c0-0.3,0.1-0.6,0.3-0.8l1.4-1.4c0,0.1,0,0.1,0,0.2v4.9c0,0.3,0.2,0.5,0.5,0.5c0.3,0,0.5-0.2,0.5-0.5v-4.9
			C89.5,50.5,88.9,49.4,87.8,49z M81.5,49.9l-2-2c0.2-0.3,0.2-0.6,0.2-0.9v-0.2c0.5,0.2,1.1,0.4,1.8,0.4c0.6,0,1.2-0.1,1.8-0.4V47
			c0,0.3,0.1,0.6,0.2,0.9L81.5,49.9z M81.5,46.1c-1.9,0-3.5-1.6-3.5-3.5v-0.2c0.3-0.1,0.7-0.3,1-0.6c0.2-0.2,0.2-0.5,0-0.8
			c-0.2-0.2-0.5-0.2-0.8,0c-0.3,0.2-0.5,0.4-0.8,0.5c0,0,0,0,0,0c0,0,0,0,0,0v-1.1c0-1.9,1.6-3.5,3.5-3.5h1.1c1.9,0,3.5,1.6,3.5,3.5
			v0.1c0,0,0,0,0,0c-3.2,0.6-4.8-0.6-5.4-1.1c-0.2-0.2-0.5-0.2-0.8,0c-0.2,0.2-0.2,0.5,0,0.8c1.7,1.7,4.1,1.7,5.6,1.5v1
			C85,44.5,83.5,46.1,81.5,46.1z"/>
	</g>
	<g>
		<path class="st2" d="M116.3,22.5H81.5c-0.4,0-0.8,0.3-0.8,0.8v11.4h1.5V24h33.3v26.3h-25v1.5h25.8c0.4,0,0.8-0.3,0.8-0.8V23.2
			C117.1,22.8,116.7,22.5,116.3,22.5z"/>
	</g>
	<g>
		<g>
			<g>
				<path class="st2" d="M106.8,29.5c-2-2-4.6-3-7.3-3c-2.8,0-5.4,1.1-7.3,3c-3.8,3.8-4.1,9.8-0.7,13.9c-0.5,1-1,1.6-1.6,1.9
					c-0.4,0.2-0.6,0.6-0.5,1c0.1,0.4,0.4,0.7,0.8,0.8c0.2,0,0.5,0.1,0.7,0.1c1.3,0,2.6-0.4,3.7-1.2c1.5,0.8,3.2,1.2,4.9,1.2
					c2.8,0,5.4-1.1,7.3-3c2-2,3-4.6,3-7.3C109.8,34.1,108.8,31.5,106.8,29.5L106.8,29.5z M106,43.4c-1.7,1.7-4,2.7-6.5,2.7
					c-1.6,0-3.3-0.4-4.7-1.3c-0.1-0.1-0.2-0.1-0.3-0.1c-0.1,0-0.3,0-0.4,0.1c-1.3,1-2.7,1.2-3.3,1.2c0.7-0.5,1.3-1.3,1.8-2.5
					c0.1-0.2,0.1-0.5-0.1-0.6c-3.2-3.6-3-9.2,0.4-12.6c1.7-1.7,4-2.7,6.5-2.7c2.5,0,4.8,1,6.5,2.7C109.6,33.9,109.6,39.8,106,43.4
					L106,43.4z M106,43.4"/>
			</g>
			<path class="st2" d="M103.7,37.3"/>
		</g>
		<g>
			<rect x="92.9" y="35.6" class="st2" width="1.3" height="2.5"/>
			<rect x="98.8" y="35.6" class="st2" width="1.3" height="2.6"/>
			<rect x="100.8" y="34.3" class="st2" width="1.3" height="5.2"/>
			<rect x="102.7" y="32.9" class="st2" width="1.3" height="7.8"/>
			<rect x="94.9" y="34.3" class="st2" width="1.3" height="5.2"/>
			<rect x="96.9" y="32.9" class="st2" width="1.3" height="7.8"/>
			<rect x="104.7" y="34.3" class="st2" width="1.3" height="5.2"/>
		</g>
	</g>
</g>
</svg>
