<?xml version="1.0" encoding="utf-8"?>
<!-- Generator: Adobe Illustrator 24.1.1, SVG Export Plug-In . SVG Version: 6.00 Build 0)  -->
<svg version="1.1" id="Layer_1" xmlns="http://www.w3.org/2000/svg" xmlns:xlink="http://www.w3.org/1999/xlink" x="0px" y="0px"
	 viewBox="0 0 190.6 81.8" style="enable-background:new 0 0 190.6 81.8;" xml:space="preserve">
<style type="text/css">
	.st0{fill:#FFFFFF;}
	.st1{fill:#484D51;}
	.st2{fill:#3E95C2;}
	.st3{fill:#484D51;stroke:#484D51;stroke-miterlimit:10;}
	.st4{fill:none;stroke:#3E95C2;stroke-width:1.5;stroke-linecap:round;stroke-linejoin:round;stroke-miterlimit:10;}
</style>
<g id="그룹_281_1_">
	<g id="그룹_280_1_">
		<path id="패스_292_1_" class="st0" d="M225.5,15.5c0.1,0.4,0.4,0.7,0.8,0.8l1.4,0.3V18c0,0.3,0.1,0.6,0.3,0.8l1,1l-1.8,3.2
			c-0.1,0.2-0.2,0.4-0.2,0.6v4c0,0.2,0.1,0.5,0.2,0.7l1.8,2.2c0.2,0.3,0.5,0.5,0.9,0.5c0.2,0,0.3,0,0.5-0.1l4-1.7
			c0.4-0.2,0.7-0.6,0.7-1v-0.8l1.1-0.3l3.1,1c0.5,0.2,1.1-0.1,1.4-0.6l0.8-1.6h2.6c0.4,0,0.8-0.3,1-0.7l1.7-4
			c0.1-0.1,0.1-0.3,0.1-0.5v-2.8c0-0.5-0.3-0.9-0.8-1.1l-0.9-0.3V9.9c0-0.2-0.1-0.4-0.1-0.6l-4.4-7.9c-0.3-0.5-1-0.7-1.5-0.4
			c0,0,0,0-0.1,0l-1.4,0.9h-5.3c-0.4,0-0.7,0.2-0.9,0.5l-1.9,2.9h-2.2c-0.4,0-0.8,0.2-1,0.6s-0.2,0.8,0,1.1l2.9,4.5h-3
			c-0.6,0-1.1,0.5-1.1,1.1c0,0.1,0,0.2,0,0.3L225.5,15.5z M231.1,14.1c0.4,0,0.8-0.2,1-0.6c0.2-0.4,0.2-0.8,0-1.2l-2.9-4.5h0.8
			c0.4,0,0.7-0.2,0.9-0.5l1.9-2.9h5.1c0.2,0,0.4-0.1,0.6-0.2l0.7-0.5l3.8,6.6v7c0,0.5,0.3,0.9,0.8,1.1l0.9,0.3v1.8l-1.3,3.1h-2.7
			c-0.4,0-0.8,0.2-1,0.6l-0.7,1.4l-2.5-0.8c-0.2-0.1-0.4-0.1-0.6,0l-2.3,0.6c-0.5,0.1-0.9,0.6-0.9,1.1v1l-2.5,1l-0.9-1.3V24l2.1-3.7
			c0.3-0.4,0.2-1-0.2-1.4l-1.4-1.4v-1.8c0-0.5-0.4-1-0.9-1.1l-1.6-0.4V14h3.8L231.1,14.1L231.1,14.1z"/>
		<path id="패스_293_1_" class="st0" d="M230,31.7h-2.8c-0.5,0-0.9,0.3-1.1,0.7l-1.1,2.8c-0.2,0.6,0,1.2,0.6,1.5c0,0,0,0,0.1,0
			l1.7,0.6c0.1,0,0.2,0.1,0.4,0.1h0.2l3.4-0.6c0.6-0.1,1-0.7,0.9-1.3c0-0.1,0-0.2-0.1-0.2l-1.1-2.8C230.9,31.9,230.4,31.7,230,31.7z
			 M227.8,35l-0.3-0.1l0.4-1h1.3l0.3,0.8L227.8,35z"/>
		<rect id="사각형_229_1_" x="223.7" y="28.3" class="st0" width="2.3" height="2.3"/>
		<rect id="사각형_230_1_" x="237" y="14.1" class="st0" width="2.3" height="2.3"/>
		<rect id="사각형_231_1_" x="237" y="9.6" class="st0" width="2.3" height="2.3"/>
	</g>
	<path id="패스_294_1_" class="st0" d="M220.6,18.2c-0.6,0-1.2,0.4-1.4,0.9h-2.5c-0.2,0-0.4,0.1-0.5,0.3l-0.7,1.5l-1.5-4.4
		c-0.1-0.2-0.2-0.4-0.4-0.4c-0.3-0.1-0.6,0.1-0.7,0.4l0,0l-1.5,6.1l-2.6-11.8c0-0.2-0.2-0.4-0.5-0.5s-0.6,0.1-0.7,0.4l0,0l-2.1,9
		l-1-2.9l0,0c-0.1-0.2-0.2-0.3-0.3-0.3c-0.3-0.1-0.7,0-0.8,0.3l0,0l-1.1,2.2h-1.7c-0.3-0.8-1.2-1.1-2-0.8c-0.5,0.2-0.9,0.8-0.9,1.4
		l0,0c0,0.8,0.7,1.5,1.5,1.5l0,0c0.6,0,1.1-0.4,1.4-0.9h2.1c0.3,0,0.5-0.2,0.6-0.4l0.6-1.2l1.2,3.5c0.1,0.3,0.4,0.5,0.8,0.4l0,0l0,0
		c0.2-0.1,0.3-0.2,0.4-0.4l2-8.4l2.6,11.8c0.1,0.3,0.4,0.5,0.7,0.5l0,0c0.2-0.1,0.4-0.3,0.5-0.5l1.6-6.5l1.3,3.8
		c0.1,0.3,0.4,0.5,0.8,0.4l0,0c0.2-0.1,0.3-0.2,0.4-0.3l0,0l1.2-2.5h2.1c0.2,0.6,0.8,0.9,1.4,0.9c0.8,0,1.5-0.7,1.5-1.5l0,0
		C222.1,18.9,221.4,18.2,220.6,18.2z"/>
</g>
<g>
	<path id="패스_298" class="st1" d="M76.1-15.1c0.2,0.4,0.5,0.8,0.7,1.1L71.6-2.4c-0.2,0.5,0,1.1,0.5,1.3s1.1,0,1.3-0.5l0.7-1.6h9
		l0.8,1.7C84.1-1,84.7-0.8,85.2-1l0,0c0.5-0.2,0.7-0.8,0.5-1.3l0,0l-3.5-7.5c3.7,1.6,8,1.3,11.5-0.7L80.8-32.7
		C74.6-29.1,72.6-21.2,76.1-15.1z M78.3-12.3c0.3,0.3,0.5,0.5,0.8,0.7l1.1,2.3h-3.3L78.3-12.3z M82.2-5.2h-7.1l1-2.1h5L82.2-5.2z
		 M92.3-26.6c-0.6,0.3-0.9,0.9-0.9,1.6L88-23.1l0.9,1.6l3.4-2c0.6,0.3,1.3,0.3,1.8,0c0.9-0.5,1.2-1.6,0.7-2.5S93.1-27.2,92.3-26.6
		L92.3-26.6z M100.6-32.6c-1.8-1.7-4.1-2.9-6.5-3.5c-0.2,0-0.3-0.1-0.3-0.1c-0.5-0.1-1.1,0.2-1.2,0.8c-0.1,0.5,0.2,1.1,0.8,1.2l0,0
		l0,0c0,0,0.1,0,0.2,0c2.1,0.6,4,1.6,5.6,3.1c2.1,2,3.7,5,2.3,10.2c0,0.1-0.1,0.2-0.1,0.3c-0.1,0.5,0.2,1.1,0.7,1.2l0,0l0,0
		c0.5,0.1,1.1-0.2,1.2-0.7c0-0.1,0.1-0.2,0.1-0.4C105-26.3,103.1-30.3,100.6-32.6L100.6-32.6z M98.1-29.6c-1-0.9-2.2-1.5-3.4-1.9
		c-0.1,0-0.2,0-0.2,0c-0.5-0.1-1.1,0.2-1.2,0.8l0,0c-0.1,0.5,0.2,1.1,0.8,1.2l0,0l0,0c0,0,0,0,0.1,0c1,0.3,1.9,0.7,2.6,1.4
		c0.9,0.9,1.6,2.2,1,4.6c0,0.1,0,0.1,0,0.2c-0.1,0.5,0.2,1.1,0.7,1.2l0,0c0.5,0.1,1.1-0.2,1.2-0.7l0.1-0.2
		C100.5-25.4,99.8-27.9,98.1-29.6L98.1-29.6z"/>
	<g>
		<g>
			<path class="st2" d="M110.3-5.4c0.2,0.2,0.4,0.5,0.6,0.7c0.7,0.7,1.4,1.5,2.1,2.2c0.2,0.2,0.2,0.4,0,0.5
				c-0.3,0.3-0.6,0.5-0.8,0.8c-0.2,0.2-0.3,0.2-0.5,0c-0.8-0.9-1.7-1.9-2.5-2.8l-0.1-0.1c-0.2,0.3-0.3,0.6-0.5,0.9
				c-0.3,0.5-0.5,1-0.8,1.5c-0.1,0.1-0.2,0.2-0.3,0.2c-0.2,0-0.2-0.1-0.3-0.3c-0.5-1.5-1-3-1.5-4.5c-0.4-1.3-0.9-2.6-1.3-3.9
				c0-0.1,0-0.1-0.1-0.2c0-0.1,0-0.2,0.1-0.3s0.2-0.1,0.3,0c0.3,0.1,0.5,0.2,0.8,0.4c2.2,1,4.4,2,6.7,3.1c0.3,0.1,0.5,0.2,0.8,0.4
				c0.1,0.1,0.2,0.1,0.2,0.3c0,0.1-0.1,0.2-0.2,0.3C112-6.2,111.2-5.8,110.3-5.4C110.4-5.5,110.3-5.4,110.3-5.4z"/>
		</g>
	</g>
</g>
<g>
	<g>
		<g>
			<g>
				<path class="st3" d="M79.2,29.3c0-1.3,1-2.3,2.3-2.3h19.7v-1.1H81.5c-1.9,0-3.4,1.5-3.4,3.4v12.7c0.3-0.1,0.7-0.1,1.1-0.1V29.3z
					"/>
				<path class="st3" d="M108.5,47.3c0,1.3-1,2.3-2.3,2.3H85c-0.1,0.4-0.3,0.8-0.6,1.1h21.8c1.9,0,3.4-1.5,3.4-3.4v-4h-1.1
					C108.5,43.3,108.5,47.3,108.5,47.3z"/>
			</g>
			<path class="st2" d="M80.4,41.9c-3.2-0.5-6.1,1.7-6.6,4.9c-0.5,3.2,1.7,6.1,4.9,6.6c0,0,0,0,0.1,0c0.2,0,0.8,0.1,1.4,0
				c3.2-0.3,5.5-3.2,5.2-6.3c-0.2-2.1-1.6-3.9-3.5-4.7C81.3,42.1,80.7,41.9,80.4,41.9L80.4,41.9z M75.9,48.5H75v-1.7h0.9V48.5z
				 M77.3,49.4h-0.9v-3.5h0.9V49.4z M78.6,50.3h-0.9V45h0.9V50.3z M79.9,48.5H79v-1.8h0.9V48.5z M81.2,49.4h-0.9v-3.5h0.9V49.4z
				 M83,45.9h0.9v3.5H83V45.9z M81.7,45h0.8v5.3h-0.9L81.7,45L81.7,45z"/>
		</g>
	</g>
	<g>
		<path class="st2" d="M109.2,41.5L109.2,41.5c-0.6,0-1-0.4-1-1v0c0-0.5,0.4-1,1-1h0c0.5,0,1,0.4,1,1v0
			C110.2,41,109.7,41.5,109.2,41.5z"/>
		<rect x="102.2" y="18.9" class="st4" width="14" height="24.2"/>
		<line class="st4" x1="102.2" y1="22.2" x2="116.2" y2="22.2"/>
		<line class="st4" x1="102.2" y1="37.6" x2="116.2" y2="37.6"/>
	</g>
</g>
</svg>
