<?xml version="1.0" encoding="utf-8"?>
<!-- Generator: Adobe Illustrator 24.2.1, SVG Export Plug-In . SVG Version: 6.00 Build 0)  -->
<svg version="1.1" id="Layer_1" xmlns="http://www.w3.org/2000/svg" xmlns:xlink="http://www.w3.org/1999/xlink" x="0px" y="0px"
	 viewBox="0 0 18 18" style="enable-background:new 0 0 18 18;" xml:space="preserve">
<style type="text/css">
	.st0{fill:#484D51;}
</style>
<path class="st0" d="M7.7,9.2L7.6,9.1c-0.1-0.1,0-0.1,0-0.1l0.1-0.1c1.2-1.3,2.5-2.5,3.8-3.8c0.3-0.3,0.5-0.5,0.8-0.8
	c0.2-0.2,0.2-0.3,0-0.5c-0.1-0.1-0.3-0.3-0.3-0.4c-0.3-0.2-0.4-0.2-0.7,0c-1.5,1.6-3,3-4.5,4.6L6.6,8L6.6,8.1L5.7,8.9
	c-0.1,0.1,0,0.2,0,0.2L6.6,10c0.1,0.1,0.1,0.1,0.1,0.1c0.5,0.5,1,1,1.6,1.6c1,1,2,2,3,3c0.2,0.2,0.4,0.2,0.5,0
	c0.1-0.1,0.2-0.2,0.3-0.3c0.3-0.3,0.3-0.4,0-0.7C10.7,12.2,9.2,10.7,7.7,9.2z"/>
</svg>
