<?xml version="1.0" encoding="utf-8"?>
<!-- Generator: Adobe Illustrator 24.1.1, SVG Export Plug-In . SVG Version: 6.00 Build 0)  -->
<svg version="1.1" id="Layer_1" xmlns="http://www.w3.org/2000/svg" xmlns:xlink="http://www.w3.org/1999/xlink" x="0px" y="0px"
	 viewBox="0 0 190.6 81.8" style="enable-background:new 0 0 190.6 81.8;" xml:space="preserve">
<style type="text/css">
	.st0{fill:#FFFFFF;}
	.st1{fill:#484D51;}
	.st2{fill:#3E95C2;stroke:#3E95C2;stroke-width:0.5;stroke-miterlimit:10;}
</style>
<g id="그룹_281_1_">
	<g id="그룹_280_1_">
		<path id="패스_292_1_" class="st0" d="M225.5,15.5c0.1,0.4,0.4,0.7,0.8,0.8l1.4,0.3V18c0,0.3,0.1,0.6,0.3,0.8l1,1l-1.8,3.2
			c-0.1,0.2-0.2,0.4-0.2,0.6v4c0,0.2,0.1,0.5,0.2,0.7l1.8,2.2c0.2,0.3,0.5,0.5,0.9,0.5c0.2,0,0.3,0,0.5-0.1l4-1.7
			c0.4-0.2,0.7-0.6,0.7-1v-0.8l1.1-0.3l3.1,1c0.5,0.2,1.1-0.1,1.4-0.6l0.8-1.6h2.6c0.4,0,0.8-0.3,1-0.7l1.7-4
			c0.1-0.1,0.1-0.3,0.1-0.5v-2.8c0-0.5-0.3-0.9-0.8-1.1l-0.9-0.3V9.9c0-0.2-0.1-0.4-0.1-0.6l-4.4-7.9c-0.3-0.5-1-0.7-1.5-0.4
			c0,0,0,0-0.1,0l-1.4,0.9h-5.3c-0.4,0-0.7,0.2-0.9,0.5l-1.9,2.9h-2.2c-0.4,0-0.8,0.2-1,0.6s-0.2,0.8,0,1.1l2.9,4.5h-3
			c-0.6,0-1.1,0.5-1.1,1.1c0,0.1,0,0.2,0,0.3L225.5,15.5z M231.1,14.1c0.4,0,0.8-0.2,1-0.6c0.2-0.4,0.2-0.8,0-1.2l-2.9-4.5h0.8
			c0.4,0,0.7-0.2,0.9-0.5l1.9-2.9h5.1c0.2,0,0.4-0.1,0.6-0.2l0.7-0.5l3.8,6.6v7c0,0.5,0.3,0.9,0.8,1.1l0.9,0.3v1.8l-1.3,3.1h-2.7
			c-0.4,0-0.8,0.2-1,0.6l-0.7,1.4l-2.5-0.8c-0.2-0.1-0.4-0.1-0.6,0l-2.3,0.6c-0.5,0.1-0.9,0.6-0.9,1.1v1l-2.5,1l-0.9-1.3V24l2.1-3.7
			c0.3-0.4,0.2-1-0.2-1.4l-1.4-1.4v-1.8c0-0.5-0.4-1-0.9-1.1l-1.6-0.4V14h3.8L231.1,14.1L231.1,14.1z"/>
		<path id="패스_293_1_" class="st0" d="M230,31.7h-2.8c-0.5,0-0.9,0.3-1.1,0.7l-1.1,2.8c-0.2,0.6,0,1.2,0.6,1.5c0,0,0,0,0.1,0
			l1.7,0.6c0.1,0,0.2,0.1,0.4,0.1h0.2l3.4-0.6c0.6-0.1,1-0.7,0.9-1.3c0-0.1,0-0.2-0.1-0.2l-1.1-2.8C230.9,31.9,230.4,31.7,230,31.7z
			 M227.8,35l-0.3-0.1l0.4-1h1.3l0.3,0.8L227.8,35z"/>
		<rect id="사각형_229_1_" x="223.7" y="28.3" class="st0" width="2.3" height="2.3"/>
		<rect id="사각형_230_1_" x="237" y="14.1" class="st0" width="2.3" height="2.3"/>
		<rect id="사각형_231_1_" x="237" y="9.6" class="st0" width="2.3" height="2.3"/>
	</g>
	<path id="패스_294_1_" class="st0" d="M220.6,18.2c-0.6,0-1.2,0.4-1.4,0.9h-2.5c-0.2,0-0.4,0.1-0.5,0.3l-0.7,1.5l-1.5-4.4
		c-0.1-0.2-0.2-0.4-0.4-0.4c-0.3-0.1-0.6,0.1-0.7,0.4l0,0l-1.5,6.1l-2.6-11.8c0-0.2-0.2-0.4-0.5-0.5s-0.6,0.1-0.7,0.4l0,0l-2.1,9
		l-1-2.9l0,0c-0.1-0.2-0.2-0.3-0.3-0.3c-0.3-0.1-0.7,0-0.8,0.3l0,0l-1.1,2.2h-1.7c-0.3-0.8-1.2-1.1-2-0.8c-0.5,0.2-0.9,0.8-0.9,1.4
		l0,0c0,0.8,0.7,1.5,1.5,1.5l0,0c0.6,0,1.1-0.4,1.4-0.9h2.1c0.3,0,0.5-0.2,0.6-0.4l0.6-1.2l1.2,3.5c0.1,0.3,0.4,0.5,0.8,0.4l0,0l0,0
		c0.2-0.1,0.3-0.2,0.4-0.4l2-8.4l2.6,11.8c0.1,0.3,0.4,0.5,0.7,0.5l0,0c0.2-0.1,0.4-0.3,0.5-0.5l1.6-6.5l1.3,3.8
		c0.1,0.3,0.4,0.5,0.8,0.4l0,0c0.2-0.1,0.3-0.2,0.4-0.3l0,0l1.2-2.5h2.1c0.2,0.6,0.8,0.9,1.4,0.9c0.8,0,1.5-0.7,1.5-1.5l0,0
		C222.1,18.9,221.4,18.2,220.6,18.2z"/>
</g>
<g>
	<g>
		<path class="st1" d="M116.4,23c0.5,0,0.8-0.4,0.8-0.8v-3.4c0-0.5-0.4-0.8-0.8-0.8H73.5c-0.5,0-0.8,0.4-0.8,0.8v3.4
			c0,0.5,0.4,0.8,0.8,0.8h0.8v24.3h-0.8c-0.5,0-0.8,0.4-0.8,0.8v3.4c0,0.5,0.4,0.8,0.8,0.8h42.9c0.5,0,0.8-0.4,0.8-0.8v-3.4
			c0-0.5-0.4-0.8-0.8-0.8h-0.8V23H116.4z M115.6,49v1.7H74.4V49H115.6z M109.6,44h-5.1c-0.5,0-0.8,0.4-0.8,0.8v2.5H87.9v-2.5
			c0-0.5-0.4-0.8-0.8-0.8h-8.4c-0.5,0-0.8,0.4-0.8,0.8v2.5h-1.7V23H114v24.3h-3.4v-2.5C110.5,44.4,110.1,44,109.6,44z M108.8,45.7
			v1.7h-3.4v-1.7H108.8z M86.2,45.7v1.7h-6.8v-1.7H86.2z M74.4,21.3v-1.7h41.2v1.7H74.4z"/>
		<path class="st2" d="M102,25.6c-4.9,0-8.8,3.9-8.8,8.8s3.9,8.8,8.8,8.8s8.8-3.9,8.8-8.8C110.8,29.5,106.8,25.6,102,25.6z
			 M102,26.3c0.1,0,0.1,0,0.1,0c0.6,1,0.9,2.1,0.9,3.3c-0.3,0.1-0.7,0.3-0.9,0.5c-1.7-1-3.7-1.5-5.7-1.7
			C97.9,27.2,99.8,26.3,102,26.3z M106.1,36c-0.9,0.9-2.1,1.5-3.3,1.9l-0.7,0.2c-0.1-0.1-0.2-0.3-0.3-0.4c1-1.2,1.6-2.7,1.7-4.3l0,0
			c0.4,0,0.7-0.1,1.1-0.3c0.7,0.4,1.3,1,1.8,1.7c-0.1,0.3-0.3,0.5-0.3,0.8C106,35.7,106,35.8,106.1,36z M103.4,32.6
			c-0.6,0-1.1-0.5-1.1-1.1c0-0.6,0.5-1.1,1.1-1.1s1.1,0.5,1.1,1.1C104.6,32.1,104,32.6,103.4,32.6z M94.5,37.4
			c-0.4-0.9-0.6-1.9-0.6-3c0-1.9,0.7-3.7,1.9-5.1H96c2,0,4,0.5,5.8,1.5c-0.1,0.2-0.1,0.4-0.1,0.7c0,0.7,0.5,1.4,1.1,1.7
			c-0.1,1.5-0.6,2.9-1.5,4.1l-0.1,0.1c-0.1,0-0.1,0-0.2,0c-0.7,0-1.3,0.5-1.4,1.1c-1.5-0.1-3.1-0.3-4.5-0.9L94.5,37.4z M101.6,38.8
			c0,0.4-0.3,0.7-0.7,0.7s-0.7-0.3-0.7-0.7s0.3-0.7,0.7-0.7C101.3,38.1,101.6,38.4,101.6,38.8z M95,38.4c1.5,0.5,3,0.8,4.5,0.8
			c0.1,0.1,0.1,0.3,0.1,0.4l-1.8,1.8C96.6,40.6,95.6,39.6,95,38.4z M108.2,39.6c-1.5,1.8-3.7,2.9-6.2,2.9c-1.3,0-2.4-0.3-3.5-0.8
			l1.6-1.6c0.2,0.1,0.5,0.2,0.7,0.2c0.8,0,1.5-0.7,1.5-1.5v-0.1l0.7-0.1c1.3-0.3,2.5-1,3.5-1.9c0.3,0.2,0.6,0.3,0.9,0.3
			c0.1,0,0.2,0,0.3,0c0.3,0.7,0.5,1.5,0.5,2.3V39.6z M107.5,36.2c-0.4,0-0.7-0.3-0.7-0.7c0-0.4,0.3-0.7,0.7-0.7
			c0.4,0,0.7,0.3,0.7,0.7C108.2,35.9,107.9,36.2,107.5,36.2z M107.5,34.1c-0.2,0-0.5,0.1-0.7,0.1c-0.5-0.7-1.1-1.3-1.8-1.8
			c0.1-0.3,0.3-0.6,0.3-0.9c0-0.9-0.7-1.6-1.5-1.8c-0.1-1.1-0.3-2.3-0.8-3.3c3.1,0.4,5.7,2.6,6.7,5.5c-0.2,0.9-0.7,1.7-1.4,2.3
			C108,34.1,107.8,34.1,107.5,34.1z M108.4,36.6c0.3-0.3,0.5-0.7,0.5-1.1c0-0.3-0.1-0.5-0.2-0.7c0.5-0.5,0.9-1,1.2-1.6
			c0.1,0.4,0.1,0.8,0.1,1.2c0,1.5-0.4,2.9-1.1,4.1C108.8,37.9,108.6,37.2,108.4,36.6z"/>
		<g>
			<rect x="79.8" y="33.8" class="st1" width="1.1" height="2.1"/>
			<rect x="84.7" y="33.7" class="st1" width="1.1" height="2.2"/>
			<rect x="86.4" y="32.6" class="st1" width="1.1" height="4.4"/>
			<rect x="88.1" y="31.5" class="st1" width="1.1" height="6.6"/>
			<rect x="81.4" y="32.6" class="st1" width="1.1" height="4.4"/>
			<rect x="83.1" y="31.5" class="st1" width="1.1" height="6.6"/>
			<rect x="89.7" y="32.6" class="st1" width="1.1" height="4.4"/>
		</g>
	</g>
</g>
</svg>
