<?xml version="1.0" encoding="utf-8"?>
<!-- Generator: Adobe Illustrator 24.1.1, SVG Export Plug-In . SVG Version: 6.00 Build 0)  -->
<svg version="1.1" id="Layer_1" xmlns="http://www.w3.org/2000/svg" xmlns:xlink="http://www.w3.org/1999/xlink" x="0px" y="0px"
	 viewBox="0 0 190.6 81.8" style="enable-background:new 0 0 190.6 81.8;" xml:space="preserve">
<style type="text/css">
	.st0{fill:#FFFFFF;}
	.st1{fill:none;stroke:#484D51;stroke-width:1.5;stroke-linecap:round;stroke-linejoin:round;stroke-miterlimit:10;}
	.st2{fill:#484D51;}
	.st3{fill:none;}
	.st4{fill:#3E95C2;}
</style>
<g id="그룹_281_1_">
	<g id="그룹_280_1_">
		<path id="패스_292_1_" class="st0" d="M225.5,15.5c0.1,0.4,0.4,0.7,0.8,0.8l1.4,0.3V18c0,0.3,0.1,0.6,0.3,0.8l1,1l-1.8,3.2
			c-0.1,0.2-0.2,0.4-0.2,0.6v4c0,0.2,0.1,0.5,0.2,0.7l1.8,2.2c0.2,0.3,0.5,0.5,0.9,0.5c0.2,0,0.3,0,0.5-0.1l4-1.7
			c0.4-0.2,0.7-0.6,0.7-1v-0.8l1.1-0.3l3.1,1c0.5,0.2,1.1-0.1,1.4-0.6l0.8-1.6h2.6c0.4,0,0.8-0.3,1-0.7l1.7-4
			c0.1-0.1,0.1-0.3,0.1-0.5v-2.8c0-0.5-0.3-0.9-0.8-1.1l-0.9-0.3V9.9c0-0.2-0.1-0.4-0.1-0.6l-4.4-7.9c-0.3-0.5-1-0.7-1.5-0.4
			c0,0,0,0-0.1,0l-1.4,0.9h-5.3c-0.4,0-0.7,0.2-0.9,0.5l-1.9,2.9h-2.2c-0.4,0-0.8,0.2-1,0.6s-0.2,0.8,0,1.1l2.9,4.5h-3
			c-0.6,0-1.1,0.5-1.1,1.1c0,0.1,0,0.2,0,0.3L225.5,15.5z M231.1,14.1c0.4,0,0.8-0.2,1-0.6c0.2-0.4,0.2-0.8,0-1.2l-2.9-4.5h0.8
			c0.4,0,0.7-0.2,0.9-0.5l1.9-2.9h5.1c0.2,0,0.4-0.1,0.6-0.2l0.7-0.5l3.8,6.6v7c0,0.5,0.3,0.9,0.8,1.1l0.9,0.3v1.8l-1.3,3.1h-2.7
			c-0.4,0-0.8,0.2-1,0.6l-0.7,1.4l-2.5-0.8c-0.2-0.1-0.4-0.1-0.6,0l-2.3,0.6c-0.5,0.1-0.9,0.6-0.9,1.1v1l-2.5,1l-0.9-1.3V24l2.1-3.7
			c0.3-0.4,0.2-1-0.2-1.4l-1.4-1.4v-1.8c0-0.5-0.4-1-0.9-1.1l-1.6-0.4V14h3.8L231.1,14.1L231.1,14.1z"/>
		<path id="패스_293_1_" class="st0" d="M230,31.7h-2.8c-0.5,0-0.9,0.3-1.1,0.7l-1.1,2.8c-0.2,0.6,0,1.2,0.6,1.5c0,0,0,0,0.1,0
			l1.7,0.6c0.1,0,0.2,0.1,0.4,0.1h0.2l3.4-0.6c0.6-0.1,1-0.7,0.9-1.3c0-0.1,0-0.2-0.1-0.2l-1.1-2.8C230.9,31.9,230.4,31.7,230,31.7z
			 M227.8,35l-0.3-0.1l0.4-1h1.3l0.3,0.8L227.8,35z"/>
		<rect id="사각형_229_1_" x="223.7" y="28.3" class="st0" width="2.3" height="2.3"/>
		<rect id="사각형_230_1_" x="237" y="14.1" class="st0" width="2.3" height="2.3"/>
		<rect id="사각형_231_1_" x="237" y="9.6" class="st0" width="2.3" height="2.3"/>
	</g>
	<path id="패스_294_1_" class="st0" d="M220.6,18.2c-0.6,0-1.2,0.4-1.4,0.9h-2.5c-0.2,0-0.4,0.1-0.5,0.3l-0.7,1.5l-1.5-4.4
		c-0.1-0.2-0.2-0.4-0.4-0.4c-0.3-0.1-0.6,0.1-0.7,0.4l0,0l-1.5,6.1l-2.6-11.8c0-0.2-0.2-0.4-0.5-0.5s-0.6,0.1-0.7,0.4l0,0l-2.1,9
		l-1-2.9l0,0c-0.1-0.2-0.2-0.3-0.3-0.3c-0.3-0.1-0.7,0-0.8,0.3l0,0l-1.1,2.2h-1.7c-0.3-0.8-1.2-1.1-2-0.8c-0.5,0.2-0.9,0.8-0.9,1.4
		l0,0c0,0.8,0.7,1.5,1.5,1.5l0,0c0.6,0,1.1-0.4,1.4-0.9h2.1c0.3,0,0.5-0.2,0.6-0.4l0.6-1.2l1.2,3.5c0.1,0.3,0.4,0.5,0.8,0.4l0,0l0,0
		c0.2-0.1,0.3-0.2,0.4-0.4l2-8.4l2.6,11.8c0.1,0.3,0.4,0.5,0.7,0.5l0,0c0.2-0.1,0.4-0.3,0.5-0.5l1.6-6.5l1.3,3.8
		c0.1,0.3,0.4,0.5,0.8,0.4l0,0c0.2-0.1,0.3-0.2,0.4-0.3l0,0l1.2-2.5h2.1c0.2,0.6,0.8,0.9,1.4,0.9c0.8,0,1.5-0.7,1.5-1.5l0,0
		C222.1,18.9,221.4,18.2,220.6,18.2z"/>
</g>
<g>
	<circle class="st1" cx="110.4" cy="22.3" r="7.1"/>
	<circle class="st1" cx="81.4" cy="22.3" r="7.1"/>
	<circle class="st1" cx="81.4" cy="42.7" r="7.1"/>
	<circle class="st1" cx="110.2" cy="42.7" r="7.1"/>
	<g>
		<path class="st2" d="M84.5,19.9h-2.1l1-1l-0.6-0.6l-1.5,1.5l-1.5-1.5l-0.6,0.6l1,1h-2.1c-0.2,0-0.5,0.2-0.5,0.5v4.1
			c0,0.2,0.2,0.5,0.5,0.5H80v0.5h-0.9v0.9h4.5v-0.9h-0.9v-0.5h1.8c0.2,0,0.5-0.2,0.5-0.5v-4.1C85,20,84.8,19.9,84.5,19.9z
			 M81.8,25.3h-0.9v-0.5h0.9V25.3z M84.1,23.9h-5.4v-3.2h5.4V23.9z"/>
		<g>
			<path class="st3" d="M81.5,37.8c-2.8,0-5,2.3-5,5c0,2.8,2.3,5,5,5s5-2.3,5-5C86.5,40,84.3,37.8,81.5,37.8z M79.1,39.1l0.3-0.3
				l0.6,0.6l-0.3,0.3c-0.3,0.3-0.5,0.8-0.5,1.2s0.2,0.9,0.5,1.2l0.3,0.3l-0.6,0.6l-0.3-0.3c-0.5-0.5-0.8-1.2-0.8-1.9
				C78.4,40.3,78.7,39.6,79.1,39.1z M84.2,46.9h-5.4V46h1l0.7-4.1c-0.2-0.2-0.3-0.6-0.3-0.9c0-0.7,0.6-1.4,1.4-1.4s1.4,0.6,1.4,1.4
				c0,0.3-0.1,0.7-0.3,0.9l0.7,4.1h1C84.2,46,84.2,46.9,84.2,46.9z M83.9,42.8l-0.3,0.3L83,42.5l0.3-0.3c0.3-0.3,0.5-0.8,0.5-1.2
				s-0.2-0.9-0.5-1.2L83,39.4l0.6-0.6l0.3,0.3c0.5,0.5,0.8,1.2,0.8,1.9C84.7,41.7,84.4,42.4,83.9,42.8z"/>
			<path class="st3" d="M81.7,42.3c-0.1,0-0.1,0-0.2,0s-0.1,0-0.2,0L81,44.1h1L81.7,42.3z"/>
			<polygon class="st3" points="80.8,45 80.7,46 82.3,46 82.1,45 			"/>
			<path class="st2" d="M83.7,38.8L83,39.4l0.3,0.3c0.3,0.3,0.5,0.8,0.5,1.2s-0.2,0.9-0.5,1.2L83,42.5l0.6,0.6l0.3-0.3
				c0.5-0.5,0.8-1.2,0.8-1.9s-0.3-1.4-0.8-1.9L83.7,38.8z"/>
			<path class="st2" d="M79.4,43.1l0.6-0.6l-0.3-0.3c-0.3-0.3-0.5-0.8-0.5-1.2s0.2-0.9,0.5-1.2l0.3-0.3l-0.6-0.6l-0.3,0.3
				c-0.5,0.5-0.8,1.2-0.8,1.9s0.3,1.4,0.8,1.9L79.4,43.1z"/>
			<path class="st2" d="M82.5,41.8c0.2-0.2,0.3-0.6,0.3-0.9c0-0.7-0.6-1.4-1.4-1.4s-1.4,0.6-1.4,1.4c0,0.3,0.1,0.7,0.3,0.9l-0.7,4.1
				h-1v0.9h5.4v-0.9h-1L82.5,41.8z M81.5,40.5c0.2,0,0.5,0.2,0.5,0.5s-0.2,0.5-0.5,0.5c-0.2,0-0.5-0.2-0.5-0.5
				C81.1,40.7,81.2,40.5,81.5,40.5z M81.4,42.3c0.1,0,0.1,0,0.2,0c0.1,0,0.1,0,0.2,0l0.3,1.8h-1L81.4,42.3z M80.7,46l0.2-0.9h1.3
				l0.2,0.9H80.7z"/>
		</g>
		<path class="st2" d="M112.5,41.6h-1.4v-2.7c0-0.2-0.1-0.4-0.3-0.5c-0.2-0.1-0.4,0.1-0.5,0.2l-2.7,4.5c-0.1,0.1-0.1,0.3,0,0.5
			c0.1,0.2,0.2,0.2,0.4,0.2h1.4v2.7c0,0.2,0.1,0.4,0.3,0.5c0.1,0,0.1,0,0.1,0c0.2,0,0.3-0.1,0.4-0.2l2.7-4.5c0.1-0.1,0.1-0.3,0-0.5
			C112.9,41.7,112.7,41.6,112.5,41.6z M110.3,44.9v-1.5c0-0.2-0.2-0.5-0.5-0.5h-1l1.5-2.4v1.5c0,0.2,0.2,0.5,0.5,0.5h1L110.3,44.9z"
			/>
		<g>
			<path class="st3" d="M110.3,27.4c2.8,0,5-2.3,5-5c0-2.8-2.3-5-5-5c-2.8,0-5,2.3-5,5C105.3,25.2,107.5,27.4,110.3,27.4z
				 M108.9,18.8c2.8,0,5,2.3,5,5H113c0-2.3-1.8-4.1-4.1-4.1C108.9,19.7,108.9,18.8,108.9,18.8z M108.9,20.6c1.7,0,3.2,1.4,3.2,3.2
				h-0.9c0-1.2-1-2.3-2.3-2.3V20.6z M108.9,22.4c0.7,0,1.4,0.6,1.4,1.4c0,0.7-0.6,1.4-1.4,1.4c-0.7,0-1.4-0.6-1.4-1.4
				C107.6,23,108.2,22.4,108.9,22.4z"/>
			<path class="st3" d="M108.9,24.2c0.2,0,0.5-0.2,0.5-0.5c0-0.2-0.2-0.5-0.5-0.5c-0.2,0-0.5,0.2-0.5,0.5
				C108.5,24.1,108.7,24.2,108.9,24.2z"/>
			<path class="st2" d="M108.9,25.1c0.7,0,1.4-0.6,1.4-1.4c0-0.7-0.6-1.4-1.4-1.4c-0.7,0-1.4,0.6-1.4,1.4S108.2,25.1,108.9,25.1z
				 M108.9,23.3c0.2,0,0.5,0.2,0.5,0.5s-0.2,0.5-0.5,0.5c-0.2,0-0.5-0.2-0.5-0.5C108.5,23.5,108.7,23.3,108.9,23.3z"/>
			<path class="st2" d="M111.2,23.8h0.9c0-1.7-1.4-3.2-3.2-3.2v0.9C110.2,21.5,111.2,22.5,111.2,23.8z"/>
			<path class="st2" d="M113,23.8h0.9c0-2.8-2.3-5-5-5v0.9C111.2,19.7,113,21.5,113,23.8z"/>
		</g>
	</g>
	<line class="st1" x1="101.7" y1="36.2" x2="104.7" y2="38.2"/>
	<line class="st1" x1="104.4" y1="26.4" x2="102.4" y2="27.8"/>
	<line class="st1" x1="89.1" y1="36.8" x2="87" y2="38.2"/>
	<line class="st1" x1="87.1" y1="26.3" x2="89.3" y2="27.8"/>
	<path class="st4" d="M100.9,38.8c0.9-0.7,1.7-1.7,2.2-2.8c0,0,0-0.1,0.1-0.1c0.1-0.2,0.2-0.4,0.3-0.6c0-0.1,0.1-0.2,0.1-0.3
		c0.1-0.2,0.1-0.3,0.2-0.5c0-0.1,0.1-0.2,0.1-0.4c0-0.1,0-0.3,0.1-0.4c0.1-0.4,0.1-0.9,0.1-1.4c0-4.6-3.7-8.3-8.3-8.3
		c-2.8,0-5.4,1.4-6.9,3.6l0,0c-0.1,0.2-0.2,0.4-0.3,0.5c0,0.1-0.1,0.1-0.1,0.2c-0.1,0.2-0.2,0.3-0.2,0.5c0,0.1-0.1,0.2-0.1,0.3
		c-0.1,0.2-0.1,0.3-0.2,0.5c0,0.1-0.1,0.3-0.1,0.4s-0.1,0.3-0.1,0.4c0,0.2-0.1,0.4-0.1,0.6c0,0.1,0,0.2,0,0.3c0,0.3-0.1,0.6-0.1,0.9
		c0,2.6,1.2,4.9,3.1,6.5l0,0c0.4,0.3,0.9,0.6,1.4,0.9l0,0c1.1,0.6,2.4,0.9,3.8,0.9s2.7-0.3,3.8-0.9l0,0
		C100.1,39.5,100.5,39.2,100.9,38.8L100.9,38.8z M101.7,31h1.4v2.8h-1.4V31z M89.8,33.7h-1.4v-2.6h1.4V33.7z M92,35.1h-1.4v-5.5H92
		V35.1z M94.2,34.1h-1.4v-3.5h1.4V34.1z M96.4,35.1H95v-5.5h1.4V35.1z M98.7,36.5h-1.4v-8.3h1.4V36.5z M100.9,35.1h-1.4v-5.5h1.4
		V35.1z"/>
</g>
</svg>
