<?xml version="1.0" encoding="utf-8"?>
<!-- Generator: Adobe Illustrator 24.1.1, SVG Export Plug-In . SVG Version: 6.00 Build 0)  -->
<svg version="1.1" id="Layer_1" xmlns="http://www.w3.org/2000/svg" xmlns:xlink="http://www.w3.org/1999/xlink" x="0px" y="0px"
	 viewBox="0 0 190.6 81.8" style="enable-background:new 0 0 190.6 81.8;" xml:space="preserve">
<style type="text/css">
	.st0{fill:#FFFFFF;}
	.st1{fill:#484D51;stroke:#484D51;stroke-miterlimit:10;}
	.st2{fill:#484D51;}
	.st3{fill:#F7BA3A;stroke:#F7BA3A;stroke-width:0.5;stroke-miterlimit:10;}
</style>
<g id="그룹_281_1_">
	<g id="그룹_280_1_">
		<path id="패스_292_1_" class="st0" d="M225.5,15.5c0.1,0.4,0.4,0.7,0.8,0.8l1.4,0.3V18c0,0.3,0.1,0.6,0.3,0.8l1,1l-1.8,3.2
			c-0.1,0.2-0.2,0.4-0.2,0.6v4c0,0.2,0.1,0.5,0.2,0.7l1.8,2.2c0.2,0.3,0.5,0.5,0.9,0.5c0.2,0,0.3,0,0.5-0.1l4-1.7
			c0.4-0.2,0.7-0.6,0.7-1v-0.8l1.1-0.3l3.1,1c0.5,0.2,1.1-0.1,1.4-0.6l0.8-1.6h2.6c0.4,0,0.8-0.3,1-0.7l1.7-4
			c0.1-0.1,0.1-0.3,0.1-0.5v-2.8c0-0.5-0.3-0.9-0.8-1.1l-0.9-0.3V9.9c0-0.2-0.1-0.4-0.1-0.6l-4.4-7.9c-0.3-0.5-1-0.7-1.5-0.4
			c0,0,0,0-0.1,0l-1.4,0.9h-5.3c-0.4,0-0.7,0.2-0.9,0.5l-1.9,2.9h-2.2c-0.4,0-0.8,0.2-1,0.6s-0.2,0.8,0,1.1l2.9,4.5h-3
			c-0.6,0-1.1,0.5-1.1,1.1c0,0.1,0,0.2,0,0.3L225.5,15.5z M231.1,14.1c0.4,0,0.8-0.2,1-0.6c0.2-0.4,0.2-0.8,0-1.2l-2.9-4.5h0.8
			c0.4,0,0.7-0.2,0.9-0.5l1.9-2.9h5.1c0.2,0,0.4-0.1,0.6-0.2l0.7-0.5l3.8,6.6v7c0,0.5,0.3,0.9,0.8,1.1l0.9,0.3v1.8l-1.3,3.1h-2.7
			c-0.4,0-0.8,0.2-1,0.6l-0.7,1.4l-2.5-0.8c-0.2-0.1-0.4-0.1-0.6,0l-2.3,0.6c-0.5,0.1-0.9,0.6-0.9,1.1v1l-2.5,1l-0.9-1.3V24l2.1-3.7
			c0.3-0.4,0.2-1-0.2-1.4l-1.4-1.4v-1.8c0-0.5-0.4-1-0.9-1.1l-1.6-0.4V14h3.8L231.1,14.1L231.1,14.1z"/>
		<path id="패스_293_1_" class="st0" d="M230,31.7h-2.8c-0.5,0-0.9,0.3-1.1,0.7l-1.1,2.8c-0.2,0.6,0,1.2,0.6,1.5c0,0,0,0,0.1,0
			l1.7,0.6c0.1,0,0.2,0.1,0.4,0.1h0.2l3.4-0.6c0.6-0.1,1-0.7,0.9-1.3c0-0.1,0-0.2-0.1-0.2l-1.1-2.8C230.9,31.9,230.4,31.7,230,31.7z
			 M227.8,35l-0.3-0.1l0.4-1h1.3l0.3,0.8L227.8,35z"/>
		<rect id="사각형_229_1_" x="223.7" y="28.3" class="st0" width="2.3" height="2.3"/>
		<rect id="사각형_230_1_" x="237" y="14.1" class="st0" width="2.3" height="2.3"/>
		<rect id="사각형_231_1_" x="237" y="9.6" class="st0" width="2.3" height="2.3"/>
	</g>
	<path id="패스_294_1_" class="st0" d="M220.6,18.2c-0.6,0-1.2,0.4-1.4,0.9h-2.5c-0.2,0-0.4,0.1-0.5,0.3l-0.7,1.5l-1.5-4.4
		c-0.1-0.2-0.2-0.4-0.4-0.4c-0.3-0.1-0.6,0.1-0.7,0.4l0,0l-1.5,6.1l-2.6-11.8c0-0.2-0.2-0.4-0.5-0.5s-0.6,0.1-0.7,0.4l0,0l-2.1,9
		l-1-2.9l0,0c-0.1-0.2-0.2-0.3-0.3-0.3c-0.3-0.1-0.7,0-0.8,0.3l0,0l-1.1,2.2h-1.7c-0.3-0.8-1.2-1.1-2-0.8c-0.5,0.2-0.9,0.8-0.9,1.4
		l0,0c0,0.8,0.7,1.5,1.5,1.5l0,0c0.6,0,1.1-0.4,1.4-0.9h2.1c0.3,0,0.5-0.2,0.6-0.4l0.6-1.2l1.2,3.5c0.1,0.3,0.4,0.5,0.8,0.4l0,0l0,0
		c0.2-0.1,0.3-0.2,0.4-0.4l2-8.4l2.6,11.8c0.1,0.3,0.4,0.5,0.7,0.5l0,0c0.2-0.1,0.4-0.3,0.5-0.5l1.6-6.5l1.3,3.8
		c0.1,0.3,0.4,0.5,0.8,0.4l0,0c0.2-0.1,0.3-0.2,0.4-0.3l0,0l1.2-2.5h2.1c0.2,0.6,0.8,0.9,1.4,0.9c0.8,0,1.5-0.7,1.5-1.5l0,0
		C222.1,18.9,221.4,18.2,220.6,18.2z"/>
</g>
<g>
	<g>
		<g>
			<g>
				<g>
					<g>
						<path class="st1" d="M83.4,27.9c-1.9,0-3.4,1.5-3.4,3.4v12.8h1.1V31.4c0-1.3,1-2.3,2.3-2.3h14.9V28H83.4V27.9z"/>
						<path class="st1" d="M110.4,42.7v6.7c0,1.3-1,2.3-2.3,2.3H89.6v1.1h18.5c1.9,0,3.4-1.5,3.4-3.4v-6.7
							C111.5,42.7,110.4,42.7,110.4,42.7z"/>
					</g>
				</g>
			</g>
		</g>
		<g>
			<path id="패스_301_4_" class="st2" d="M82.6,56.4l-1.5-4.8c0.8-0.3,1.3-1,1.3-1.9c0-1.1-0.9-2-2-2s-2,0.9-2,2
				c0,0.9,0.5,1.6,1.3,1.9l-1.5,5c-0.1,0.1,0,0.4,0.1,0.5s0.2,0.2,0.4,0.2H82c0.3,0,0.5-0.2,0.5-0.5C82.6,56.5,82.6,56.4,82.6,56.4z
				 M80.4,48.7c0.5,0,0.9,0.4,0.9,0.9s-0.4,0.9-0.9,0.9c-0.4,0-0.9-0.4-0.9-0.9S79.9,48.7,80.4,48.7L80.4,48.7z M79.5,56.1l0.9-3
				l0.9,3H79.5z"/>
			<path id="패스_302_4_" class="st2" d="M75.3,53.1c-0.1,0-0.4-0.1-0.4-0.2c-0.7-0.9-1-2.1-1-3.3s0.4-2.3,1-3.3
				c0.1-0.2,0.5-0.3,0.8-0.1l0,0c0.2,0.1,0.3,0.5,0.1,0.8c-0.5,0.7-0.9,1.6-0.9,2.6c0,0.9,0.3,1.9,0.9,2.6c0.1,0.2,0.1,0.6-0.1,0.8
				C75.6,53,75.5,53.1,75.3,53.1z"/>
			<path id="패스_303_4_" class="st2" d="M77.1,51.8c-0.1,0-0.3-0.1-0.4-0.1c-0.4-0.5-0.7-1.2-0.7-1.9s0.2-1.4,0.7-1.9
				c0.1-0.2,0.5-0.2,0.8-0.1l0,0c0.2,0.1,0.2,0.5,0.1,0.8c-0.3,0.4-0.4,0.8-0.4,1.2s0.1,0.9,0.4,1.2c0.1,0.2,0.1,0.6-0.1,0.8
				C77.4,51.8,77.3,51.8,77.1,51.8z"/>
			<path id="패스_304_4_" class="st2" d="M85.4,53.1c-0.1,0-0.2-0.1-0.3-0.1c-0.2-0.1-0.3-0.5-0.1-0.8l0,0
				c0.5-0.7,0.9-1.6,0.9-2.6c0-0.9-0.3-1.9-0.9-2.6c-0.1-0.2-0.1-0.6,0.1-0.8l0,0c0.2-0.1,0.6-0.1,0.8,0.1l0,0c0.7,0.9,1,2.1,1,3.3
				s-0.4,2.3-1,3.3C85.7,53,85.5,53.1,85.4,53.1z"/>
			<path id="패스_305_4_" class="st2" d="M83.6,51.8c-0.1,0-0.2-0.1-0.4-0.1c-0.2-0.1-0.2-0.5-0.1-0.8c0.3-0.4,0.4-0.8,0.4-1.2
				s-0.1-0.9-0.4-1.2c-0.1-0.2-0.1-0.6,0.1-0.8c0.2-0.1,0.6-0.1,0.8,0.1l0,0c0.4,0.5,0.7,1.2,0.7,1.9s-0.2,1.4-0.7,1.9
				C83.9,51.7,83.7,51.8,83.6,51.8z"/>
		</g>
	</g>
	<path class="st3" d="M109.2,40.2c2.5,0,4.8-1.1,6.3-2.9l0,0c1.3-1.5,2-3.4,2-5.4c0-1.4-0.4-2.8-1-3.9l0,0c-0.9-1.7-2.4-3-4.2-3.8
		l0,0c-1-0.4-2-0.6-3.1-0.6c-0.8,0-1.5,0.1-2.3,0.3l0,0c-2.5,0.7-4.6,2.6-5.5,5.1l0,0c-0.3,0.9-0.5,1.9-0.5,2.9
		C100.8,36.5,104.6,40.2,109.2,40.2 M107,37l0.5,0.9v0.2l-0.4,0.7l-1.8-2c-0.1-0.1-0.2-0.3-0.2-0.4l-0.3-1.4c0-0.2-0.2-0.5-0.3-0.6
		l-0.5-0.5l-0.1-0.2l0.2-1.5v-0.1l0.6-0.4h0.1l1.3,0.9c0.1,0,0.2,0.2,0.2,0.3c0.1,0.3,0.1,0.6,0.2,0.7c0,0.2,0,0.3,1.7,0.9l-0.3,0.9
		c0,0.1-0.1,0.3-0.2,0.4l-0.4,0.5C106.9,36.4,106.9,36.7,107,37 M115.3,36.6l-0.3-0.5c0-0.1-0.1-0.2-0.1-0.3l0.3-1.3
		c0.1-0.2,0-0.6-0.2-0.8l-1.3-1.8c-0.2-0.2-0.5-0.4-0.8-0.3l-0.7,0.2c-0.1,0-0.2,0-0.2-0.1l-0.3-0.3c-0.1-0.1-0.1-0.2-0.1-0.3
		l-0.1-0.6c0-0.1,0-0.2,0.1-0.2l0.8-0.8c0,0,0.1-0.1,0.2,0l1.4,0.4c0.2,0.1,0.5,0.1,0.7,0.1l1.9-0.1c0.2,0.6,0.3,1.3,0.3,2
		C116.9,33.7,116.3,35.3,115.3,36.6 M115.6,27.5L114,27c-0.3-0.1-0.6,0-0.8,0.2l-0.6,0.8c0,0-0.1,0.1-0.2,0.1l-0.8-0.1
		c-0.1,0-0.2-0.1-0.2-0.1l-0.1-0.2c0,0,0-0.1,0-0.2l0.6-0.9c0.1-0.2,0.2-0.5,0.1-0.8l-0.2-0.6c0,0,0-0.1,0-0.2l0.3-0.3
		C113.6,25.4,114.8,26.3,115.6,27.5 M109.2,24.1c0.1,0,0.2,0,0.3,0l-0.9,1.1l-0.1,0.1c0,0-0.1,0-0.1-0.1l-0.8-0.9
		C108.1,24.2,108.6,24.1,109.2,24.1 M106.9,24.5l1,1.1c0.2,0.2,0.4,0.3,0.6,0.3l0,0c0.2,0,0.5-0.1,0.6-0.3l1.2-1.4
		c0.5,0.1,1,0.2,1.4,0.3l-0.1,0.1c-0.2,0.2-0.3,0.5-0.2,0.8l0.2,0.6c0,0.1,0,0.2,0,0.3l-0.6,0.9c-0.2,0.2-0.2,0.6,0,0.8l0.1,0.2
		c0.1,0.2,0.4,0.4,0.7,0.4l0.8,0.1c0,0,0,0,0.1,0c0.3,0,0.5-0.1,0.7-0.3l0.6-0.8h0.1l2.2,0.7c0.2,0.3,0.3,0.6,0.4,0.9l-1.7,0.1
		c-0.1,0-0.3,0-0.5-0.1l-1.4-0.4c-0.3-0.1-0.6,0-0.8,0.2l-0.8,0.8c-0.2,0.2-0.3,0.5-0.3,0.7l0.1,0.6c0,0.2,0.2,0.5,0.3,0.7l0.3,0.3
		c0.2,0.2,0.5,0.3,0.8,0.2l0.7-0.2h0.1l1.3,1.8c0,0.1,0.1,0.2,0.1,0.3l-0.3,1.3c-0.1,0.2,0,0.6,0.1,0.8l0.4,0.6
		c-1.4,1.5-3.4,2.5-5.7,2.5c-0.6,0-1.3-0.1-1.9-0.2c0.1,0,0.1-0.1,0.2-0.2l0.5-0.8c0.1-0.2,0.2-0.6,0-0.8l-0.5-0.9v-0.1l0.4-0.5
		c0.1-0.2,0.3-0.4,0.3-0.6l0.3-0.9c0.1-0.3-0.1-0.6-0.4-0.7c-0.5-0.2-1.1-0.4-1.3-0.5c0-0.1-0.1-0.3-0.1-0.6
		c-0.1-0.2-0.2-0.5-0.4-0.6l-1.3-0.9c-0.2-0.2-0.6-0.2-0.8,0l-0.5,0.3c0,0,0,0-0.1,0l-0.4-0.3c0,0,0,0-0.1,0l0.7-2l0.8,0.2
		c0.3,0.1,0.6-0.1,0.7-0.4l0.4-1.2c0-0.1,0.1-0.1,0.2-0.2l1-0.3c0.2-0.1,0.3-0.2,0.3-0.3s0-0.3-0.1-0.5l-1.2-1.5
		C106.3,24.7,106.6,24.6,106.9,24.5 M105.4,25.1l1.2,1.4l-0.8,0.3c-0.2,0.1-0.5,0.3-0.6,0.6l-0.4,1.2l-0.8-0.2
		c-0.3-0.1-0.6,0.1-0.7,0.4l-0.6,1.6L102,29C102.6,27.4,103.9,26,105.4,25.1 M101.7,29.8l0.7,1.3c0,0.1,0.1,0.1,0.1,0.2
		s0.1,0.2,0.2,0.2l0.1,0.1l0.4,0.3c0,0,0.1,0.1,0.1,0.2l-0.2,1.5c0,0.3,0.1,0.6,0.3,0.7l0.5,0.5c0.1,0.1,0.2,0.2,0.2,0.3l0.3,1.4
		c0,0.2,0.2,0.5,0.3,0.6l1.8,1.9c-3-1.1-5.1-3.9-5.1-7.3C101.4,31.2,101.5,30.5,101.7,29.8"/>
</g>
</svg>
