<?xml version="1.0" encoding="utf-8"?>
<!-- Generator: Adobe Illustrator 24.2.1, SVG Export Plug-In . SVG Version: 6.00 Build 0)  -->
<svg version="1.1" id="Layer_1" xmlns="http://www.w3.org/2000/svg" xmlns:xlink="http://www.w3.org/1999/xlink" x="0px" y="0px"
	 viewBox="0 0 17.7 17.7" style="enable-background:new 0 0 17.7 17.7;" xml:space="preserve">
<style type="text/css">
	.st0{fill:#D8D8D8;}
</style>
<g id="그룹_317" transform="translate(0.25 0.25)">
	<g id="그룹_316">
		<g id="패스_74">
			<path class="st0" d="M17.2,1.2c0-0.6-0.5-1.1-1.1-1.2c-1.8,0-3.5,0-5.3,0v0C9,0,7.2,0,5.4,0C4.9,0,4.4,0.3,4.3,0.9
				c0,0.1,0,0.2,0,0.3c0,3.5,0,7.1,0,10.6c-0.1,0.6,0.3,1.1,0.9,1.1c0.1,0,0.2,0,0.2,0h10.6c0.6,0.1,1.1-0.4,1.1-0.9
				c0-0.1,0-0.1,0-0.2C17.2,8.2,17.2,4.7,17.2,1.2z M16.2,11c0,0.7-0.1,0.8-0.8,0.8h-4.5v0c-1.5,0-3,0-4.6,0c-0.8,0-0.8-0.1-0.8-0.8
				c0-3.1,0-6.2,0-9.3c0-0.5,0.2-0.6,0.6-0.6c3.2,0,6.3,0,9.5,0c0.5,0,0.7,0.1,0.7,0.6C16.2,4.8,16.2,7.9,16.2,11L16.2,11z"/>
			<path class="st0" d="M5.4,13.2c0,0-0.1,0-0.2,0c-0.3,0-0.6-0.2-0.8-0.5c-0.2-0.3-0.3-0.6-0.3-0.9c0-3.5,0-7.1,0-10.6
				c0-0.1,0-0.2,0-0.3c0-0.3,0.2-0.6,0.5-0.8c0.3-0.2,0.6-0.3,0.9-0.2c1.2,0,2.3,0,3.5,0l1.5,0l0.2,0l1.5,0c1.3,0,2.6,0,3.8,0
				c0.8,0,1.4,0.7,1.4,1.4v0c0,2.7,0,5.3,0,8l0,2.7c0,0.1,0,0.1,0,0.2c0,0.3-0.2,0.7-0.5,0.9s-0.6,0.3-0.9,0.3l-10.6,0
				C5.4,13.2,5.4,13.2,5.4,13.2z M5.3,0.3c-0.4,0-0.7,0.3-0.7,0.6c0,0.1,0,0.1,0,0.2c0,3.6,0,7.1,0,10.7c0,0.2,0,0.4,0.2,0.6
				c0.1,0.2,0.3,0.3,0.5,0.3c0.1,0,0.1,0,0.2,0l10.7,0c0.2,0,0.4,0,0.6-0.2c0.2-0.1,0.3-0.3,0.3-0.5c0,0,0-0.1,0-0.1l0-2.7
				c0-2.7,0-5.3,0-8c0-0.5-0.4-0.9-0.9-0.9c-1.3,0-2.6,0-3.8,0l-1.2,0l-0.2,0L9,0.3c-1.2,0-2.4,0-3.6,0C5.4,0.3,5.4,0.3,5.3,0.3z
				 M15.3,12.1l-9.1,0c-0.9,0-1.1-0.2-1.1-1.1c0-3.1,0-6.2,0-9.3c0-0.6,0.3-0.9,0.9-0.9h9.5c0.7,0,0.9,0.3,0.9,0.9
				c0,3.1,0,6.2,0,9.3h0C16.4,11.9,16.2,12.1,15.3,12.1z M11.1,11.6h4.2c0.6,0,0.6,0,0.6-0.6l0,0c0-3.1,0-6.2,0-9.3
				c0-0.4,0-0.4-0.4-0.4H6c-0.3,0-0.4,0.1-0.4,0.4c0,3.1,0,6.2,0,9.3c0,0.6,0,0.6,0.6,0.6L11.1,11.6z"/>
		</g>
		<g id="패스_75">
			<path class="st0" d="M11.9,14.1v1.6c0,0.3-0.2,0.5-0.4,0.5c0,0,0,0-0.1,0c-0.2,0-0.3,0-0.5,0H1.8c-0.6,0-0.7-0.1-0.7-0.7
				c0-3.1,0-6.3,0-9.4c0-0.5,0.2-0.7,0.7-0.7c0.5,0,0.9,0,1.4,0v-1c-0.8,0-1.5,0-2.2,0C0.5,4.4,0,4.8,0,5.3C0,6,0,6.7,0,7.4
				c0,3,0,5.9,0,8.9c0,0.5,0.4,0.9,0.9,0.9c3.6,0,7.3,0,10.9,0c0.5,0,0.9-0.3,0.9-0.8c0-0.8,0-1.6,0-2.4L11.9,14.1z"/>
			<path class="st0" d="M6.5,17.5c-1.8,0-3.6,0-5.5,0c-0.7,0-1.2-0.5-1.2-1.2c0-3,0-5.9,0-8.9c0-0.7,0-1.4,0-2.1
				c0-0.6,0.5-1.2,1.2-1.2c0.5,0,1,0,1.5,0l1,0v1.5l-0.7,0c-0.3,0-0.6,0-0.9,0c-0.4,0-0.5,0.1-0.5,0.4c0,3.1,0,6.3,0,9.4
				c0,0.4,0,0.4,0.5,0.4h9.1c0.2,0,0.3,0,0.4,0c0.2,0,0.3-0.1,0.3-0.3l0-1.8l1.5,0v0.3c0,0.2,0,0.5,0,0.7c0,0.6,0,1.1,0,1.7
				c-0.1,0.6-0.6,1-1.2,1C10.1,17.5,8.3,17.5,6.5,17.5z M1.7,4.6c-0.2,0-0.5,0-0.7,0c-0.4,0-0.7,0.3-0.7,0.7c0,0.7,0,1.4,0,2.1
				c0,3,0,5.9,0,8.9C0.3,16.7,0.6,17,1,17c3.6,0,7.3,0,10.9,0c0.3,0,0.6-0.2,0.7-0.6c0-0.5,0-1.1,0-1.6c0-0.2,0-0.3,0-0.5l-0.5,0
				v1.3c0,0.4-0.2,0.7-0.6,0.8c0,0-0.1,0-0.1,0c-0.1,0-0.3,0-0.5,0H1.8c-0.7,0-1-0.2-1-0.9c0-3.1,0-6.3,0-9.4c0-0.7,0.3-0.9,0.9-0.9
				c0.3,0,0.6,0,0.9,0l0.2,0V4.6l-0.5,0C2.2,4.6,1.9,4.6,1.7,4.6z"/>
		</g>
	</g>
</g>
</svg>
