<?xml version="1.0" encoding="utf-8"?>
<!-- Generator: Adobe Illustrator 24.2.1, SVG Export Plug-In . SVG Version: 6.00 Build 0)  -->
<svg version="1.1" id="Layer_1" xmlns="http://www.w3.org/2000/svg" xmlns:xlink="http://www.w3.org/1999/xlink" x="0px" y="0px"
	 viewBox="0 0 9 9" style="enable-background:new 0 0 9 9;" xml:space="preserve">
<style type="text/css">
	.st0{fill:#FFFFFF;}
</style>
<path class="st0" d="M3.5,4.6L3.4,4.5c-0.1-0.1,0-0.1,0-0.1l0.1-0.1c0.9-1,1.9-1.9,2.9-2.9C6.6,1.3,6.8,1.1,7,0.8
	c0.2-0.2,0.2-0.3,0-0.4C6.9,0.3,6.8,0.2,6.7,0.1C6.5,0,6.4,0,6.2,0.1C5.1,1.3,3.9,2.5,2.7,3.6L2.7,3.7L2.6,3.7L1.9,4.4
	c-0.1,0.1,0,0.2,0,0.2l0.7,0.7c0.1,0.1,0.1,0.1,0.1,0.1c0.4,0.4,0.8,0.8,1.2,1.2c0.8,0.8,1.6,1.6,2.3,2.3C6.4,9,6.6,9,6.7,8.9
	c0.1-0.1,0.2-0.2,0.3-0.3c0.2-0.2,0.2-0.3,0-0.5C5.8,6.9,4.6,5.8,3.5,4.6z"/>
</svg>
