<?xml version="1.0" encoding="utf-8"?>
<!-- Generator: Adobe Illustrator 23.0.0, SVG Export Plug-In . SVG Version: 6.00 Build 0)  -->
<svg version="1.1" id="Layer_1" xmlns="http://www.w3.org/2000/svg" xmlns:xlink="http://www.w3.org/1999/xlink" x="0px" y="0px"
	 viewBox="0 0 18 18" style="enable-background:new 0 0 18 18;" xml:space="preserve">
<style type="text/css">
	.st0{fill:#4C4C4C;}
</style>
<path class="st0" d="M10.73,9.31L10.73,9.31l-0.3-0.3c0.02-0.03,0.05-0.05,0.06-0.07l0,0l0,0c0.04-0.05,0.08-0.09,0.11-0.12
	c1.88-1.88,3.76-3.76,5.64-5.64c0.4-0.4,0.8-0.8,1.2-1.2c0.29-0.29,0.28-0.54-0.01-0.84c-0.18-0.18-0.36-0.36-0.53-0.53
	c-0.36-0.36-0.57-0.36-0.93,0c-2.26,2.26-4.52,4.52-6.77,6.77L9,7.59L8.5,7.08l0,0C6.36,4.94,4.22,2.8,2.08,0.66
	C2.02,0.6,1.96,0.54,1.89,0.48c-0.19-0.17-0.47-0.18-0.66,0C0.97,0.72,0.72,0.97,0.48,1.23C0.29,1.45,0.3,1.69,0.49,1.91
	C0.6,2.03,0.72,2.14,0.84,2.26c2.16,2.17,4.33,4.33,6.5,6.5h0L7.58,9l0,0C7.5,9.08,7.45,9.14,7.41,9.18
	c-1.35,1.35-2.69,2.69-4.04,4.04c-0.93,0.93-1.87,1.87-2.8,2.8c-0.31,0.31-0.3,0.55,0,0.85c0.17,0.17,0.34,0.34,0.52,0.52
	c0.36,0.36,0.59,0.36,0.95,0c2.23-2.23,4.46-4.46,6.69-6.69l0,0l0.27-0.27c0.09,0.09,0.15,0.14,0.19,0.18
	c0.77,0.77,1.55,1.54,2.32,2.32c1.5,1.5,3,3.01,4.5,4.51c0.3,0.3,0.56,0.3,0.85,0c0.17-0.17,0.33-0.33,0.5-0.5
	c0.39-0.39,0.39-0.6,0-0.99C15.16,13.74,12.94,11.53,10.73,9.31z"/>
</svg>
