<?xml version="1.0" encoding="utf-8"?>
<!-- Generator: Adobe Illustrator 24.2.1, SVG Export Plug-In . SVG Version: 6.00 Build 0)  -->
<svg version="1.1" id="Layer_1" xmlns="http://www.w3.org/2000/svg" xmlns:xlink="http://www.w3.org/1999/xlink" x="0px" y="0px"
	 viewBox="0 0 190.6 81.8" style="enable-background:new 0 0 190.6 81.8;" xml:space="preserve">
<style type="text/css">
	.st0{fill:#FFFFFF;}
	.st1{fill:#484D51;stroke:#484D51;stroke-miterlimit:10;}
	.st2{fill:#484D51;}
	.st3{fill:#F7BA3A;}
</style>
<g id="그룹_281_1_">
	<g id="그룹_280_1_">
		<path id="패스_292_1_" class="st0" d="M225.5,15.5c0.1,0.4,0.4,0.7,0.8,0.8l1.4,0.3V18c0,0.3,0.1,0.6,0.3,0.8l1,1l-1.8,3.2
			c-0.1,0.2-0.2,0.4-0.2,0.6v4c0,0.2,0.1,0.5,0.2,0.7l1.8,2.2c0.2,0.3,0.5,0.5,0.9,0.5c0.2,0,0.3,0,0.5-0.1l4-1.7
			c0.4-0.2,0.7-0.6,0.7-1v-0.8l1.1-0.3l3.1,1c0.5,0.2,1.1-0.1,1.4-0.6l0.8-1.6h2.6c0.4,0,0.8-0.3,1-0.7l1.7-4
			c0.1-0.1,0.1-0.3,0.1-0.5v-2.8c0-0.5-0.3-0.9-0.8-1.1l-0.9-0.3V9.9c0-0.2-0.1-0.4-0.1-0.6l-4.4-7.9c-0.3-0.5-1-0.7-1.5-0.4
			c0,0,0,0-0.1,0l-1.4,0.9h-5.3c-0.4,0-0.7,0.2-0.9,0.5l-1.9,2.9h-2.2c-0.4,0-0.8,0.2-1,0.6s-0.2,0.8,0,1.1l2.9,4.5h-3
			c-0.6,0-1.1,0.5-1.1,1.1c0,0.1,0,0.2,0,0.3L225.5,15.5z M231.1,14.1c0.4,0,0.8-0.2,1-0.6c0.2-0.4,0.2-0.8,0-1.2l-2.9-4.5h0.8
			c0.4,0,0.7-0.2,0.9-0.5l1.9-2.9h5.1c0.2,0,0.4-0.1,0.6-0.2l0.7-0.5l3.8,6.6v7c0,0.5,0.3,0.9,0.8,1.1l0.9,0.3v1.8l-1.3,3.1h-2.7
			c-0.4,0-0.8,0.2-1,0.6l-0.7,1.4l-2.5-0.8c-0.2-0.1-0.4-0.1-0.6,0l-2.3,0.6c-0.5,0.1-0.9,0.6-0.9,1.1v1l-2.5,1l-0.9-1.3V24l2.1-3.7
			c0.3-0.4,0.2-1-0.2-1.4l-1.4-1.4v-1.8c0-0.5-0.4-1-0.9-1.1l-1.6-0.4V14h3.8L231.1,14.1L231.1,14.1z"/>
		<path id="패스_293_1_" class="st0" d="M230,31.7h-2.8c-0.5,0-0.9,0.3-1.1,0.7l-1.1,2.8c-0.2,0.6,0,1.2,0.6,1.5c0,0,0,0,0.1,0
			l1.7,0.6c0.1,0,0.2,0.1,0.4,0.1h0.2l3.4-0.6c0.6-0.1,1-0.7,0.9-1.3c0-0.1,0-0.2-0.1-0.2l-1.1-2.8C230.9,31.9,230.4,31.7,230,31.7z
			 M227.8,35l-0.3-0.1l0.4-1h1.3l0.3,0.8L227.8,35z"/>
		<rect id="사각형_229_1_" x="223.7" y="28.3" class="st0" width="2.3" height="2.3"/>
		<rect id="사각형_230_1_" x="237" y="14.1" class="st0" width="2.3" height="2.3"/>
		<rect id="사각형_231_1_" x="237" y="9.6" class="st0" width="2.3" height="2.3"/>
	</g>
	<path id="패스_294_1_" class="st0" d="M220.6,18.2c-0.6,0-1.2,0.4-1.4,0.9h-2.5c-0.2,0-0.4,0.1-0.5,0.3l-0.7,1.5l-1.5-4.4
		c-0.1-0.2-0.2-0.4-0.4-0.4c-0.3-0.1-0.6,0.1-0.7,0.4l0,0l-1.5,6.1l-2.6-11.8c0-0.2-0.2-0.4-0.5-0.5s-0.6,0.1-0.7,0.4l0,0l-2.1,9
		l-1-2.9l0,0c-0.1-0.2-0.2-0.3-0.3-0.3c-0.3-0.1-0.7,0-0.8,0.3l0,0l-1.1,2.2h-1.7c-0.3-0.8-1.2-1.1-2-0.8c-0.5,0.2-0.9,0.8-0.9,1.4
		l0,0c0,0.8,0.7,1.5,1.5,1.5l0,0c0.6,0,1.1-0.4,1.4-0.9h2.1c0.3,0,0.5-0.2,0.6-0.4l0.6-1.2l1.2,3.5c0.1,0.3,0.4,0.5,0.8,0.4l0,0l0,0
		c0.2-0.1,0.3-0.2,0.4-0.4l2-8.4l2.6,11.8c0.1,0.3,0.4,0.5,0.7,0.5l0,0c0.2-0.1,0.4-0.3,0.5-0.5l1.6-6.5l1.3,3.8
		c0.1,0.3,0.4,0.5,0.8,0.4l0,0c0.2-0.1,0.3-0.2,0.4-0.3l0,0l1.2-2.5h2.1c0.2,0.6,0.8,0.9,1.4,0.9c0.8,0,1.5-0.7,1.5-1.5l0,0
		C222.1,18.9,221.4,18.2,220.6,18.2z"/>
</g>
<g>
	<g>
		<g>
			<g>
				<g>
					<g>
						<g>
							<path class="st1" d="M83.3,27.2c-1.9,0-3.4,1.5-3.4,3.4v12.8H81V30.6c0-1.3,1-2.3,2.3-2.3h18.2v-1.1H83.3z"/>
							<path class="st1" d="M110.3,46.2v2.4c0,1.3-1,2.3-2.3,2.3H89.4v1.1H108c1.9,0,3.4-1.5,3.4-3.4v-2.4H110.3z"/>
						</g>
					</g>
				</g>
			</g>
			<g>
				<path id="패스_301_5_" class="st2" d="M82.5,55.6L81,50.8c0.8-0.3,1.3-1,1.3-1.9c0-1.1-0.9-2-2-2c-1.1,0-2,0.9-2,2
					c0,0.9,0.5,1.6,1.3,1.9l-1.5,5c-0.1,0.1,0,0.4,0.1,0.5c0.1,0.1,0.2,0.2,0.4,0.2H82c0.3,0,0.5-0.2,0.5-0.5
					C82.5,55.8,82.5,55.7,82.5,55.6z M80.2,48c0.5,0,0.9,0.4,0.9,0.9s-0.4,0.9-0.9,0.9s-0.9-0.4-0.9-0.9S79.7,48,80.2,48L80.2,48z
					 M79.3,55.3l0.9-3l0.9,3H79.3z"/>
				<path id="패스_302_5_" class="st2" d="M75.2,52.3c-0.1,0-0.4-0.1-0.4-0.2c-0.7-0.9-1-2.1-1-3.3c0-1.2,0.4-2.3,1-3.3
					c0.1-0.2,0.5-0.3,0.8-0.1l0,0c0.2,0.1,0.3,0.5,0.1,0.8c-0.5,0.7-0.9,1.6-0.9,2.6c0,0.9,0.3,1.9,0.9,2.6c0.1,0.2,0.1,0.6-0.1,0.8
					C75.5,52.3,75.3,52.3,75.2,52.3z"/>
				<path id="패스_303_5_" class="st2" d="M77,51c-0.1,0-0.3-0.1-0.4-0.1c-0.4-0.5-0.7-1.2-0.7-1.9c0-0.7,0.2-1.4,0.7-1.9
					c0.1-0.2,0.5-0.2,0.8-0.1l0,0c0.2,0.1,0.2,0.5,0.1,0.8c-0.3,0.4-0.4,0.8-0.4,1.2c0,0.4,0.1,0.9,0.4,1.2c0.1,0.2,0.1,0.6-0.1,0.8
					C77.3,51,77.1,51,77,51z"/>
				<path id="패스_304_5_" class="st2" d="M85.2,52.3c-0.1,0-0.2-0.1-0.3-0.1c-0.2-0.1-0.3-0.5-0.1-0.8l0,0
					c0.5-0.7,0.9-1.6,0.9-2.6c0-0.9-0.3-1.9-0.9-2.6c-0.1-0.2-0.1-0.6,0.1-0.8l0,0c0.2-0.1,0.6-0.1,0.8,0.1l0,0c0.7,0.9,1,2.1,1,3.3
					c0,1.2-0.4,2.3-1,3.3C85.6,52.3,85.4,52.3,85.2,52.3z"/>
				<path id="패스_305_5_" class="st2" d="M83.4,51c-0.1,0-0.2-0.1-0.4-0.1c-0.2-0.1-0.2-0.5-0.1-0.8c0.3-0.4,0.4-0.8,0.4-1.2
					c0-0.4-0.1-0.9-0.4-1.2c-0.1-0.2-0.1-0.6,0.1-0.8c0.2-0.1,0.6-0.1,0.8,0.1l0,0c0.4,0.5,0.7,1.2,0.7,1.9c0,0.7-0.2,1.4-0.7,1.9
					C83.8,50.9,83.6,51,83.4,51z"/>
			</g>
		</g>
		<g id="그룹_280_2_">
			<path id="패스_292_2_" class="st3" d="M104.5,31c0.1,0.2,0.2,0.4,0.5,0.5l0.8,0.2v0.8c0,0.2,0.1,0.4,0.2,0.5l0.6,0.6l-1.1,1.9
				c-0.1,0.1-0.1,0.2-0.1,0.4v2.4c0,0.1,0.1,0.3,0.1,0.4l1.1,1.3c0.1,0.2,0.3,0.3,0.5,0.3c0.1,0,0.2,0,0.2-0.1l2.4-1
				c0.2-0.1,0.4-0.4,0.4-0.6v-0.5l0.7-0.2l1.8,0.6c0.3,0.1,0.7-0.1,0.8-0.4l0.5-1h1.5c0.2,0,0.5-0.2,0.6-0.4l1-2.4
				c0.1-0.1,0.1-0.2,0.1-0.3v-1.6c0-0.3-0.2-0.5-0.5-0.7l-0.5-0.2v-3.9c0-0.1-0.1-0.2-0.1-0.4l-2.6-4.7c-0.2-0.3-0.6-0.4-0.9-0.2
				h-0.1l-0.8,0.5h-3.2c-0.2,0-0.4,0.1-0.5,0.3l-1.1,1.7h-1.3c-0.2,0-0.5,0.1-0.6,0.4s-0.1,0.5,0,0.7l1.7,2.7h-1.8
				c-0.4,0-0.7,0.3-0.7,0.7c0,0.1,0,0.1,0,0.2L104.5,31z M107.9,30.2c0.2,0,0.5-0.1,0.6-0.4c0.1-0.2,0.1-0.5,0-0.7l-1.7-2.7h0.5
				c0.2,0,0.4-0.1,0.5-0.3l1.1-1.7h3c0.1,0,0.2-0.1,0.4-0.1l0.4-0.3l2.3,3.9v4.2c0,0.3,0.2,0.5,0.5,0.7l0.5,0.2V34l-0.8,1.8h-1.6
				c-0.2,0-0.5,0.1-0.6,0.4l-0.4,0.8l-1.5-0.5c-0.1-0.1-0.2-0.1-0.4,0l-1.4,0.4c-0.3,0.1-0.5,0.4-0.5,0.7v0.6l-1.5,0.6l-0.5-0.8v-2
				l1.2-2.2c0.2-0.2,0.1-0.6-0.1-0.8l-0.8-0.8v-1.1c0-0.3-0.2-0.6-0.5-0.7l-1-0.2v-0.1H107.9z"/>
			<path id="패스_293_2_" class="st3" d="M107.2,40.6h-1.7c-0.2,0-0.5,0.2-0.6,0.4l-0.7,1.7c-0.1,0.4,0,0.7,0.4,0.9l0,0h0.1l1,0.4
				c0.1,0,0.1,0.1,0.2,0.1h0.1l2-0.4c0.4-0.1,0.6-0.4,0.5-0.8l0,0c0-0.1,0-0.1-0.1-0.1l-0.7-1.7C107.7,40.8,107.4,40.6,107.2,40.6z
				 M105.9,42.6l-0.2-0.1L106,42h0.8l0.2,0.5L105.9,42.6z"/>
			<rect id="사각형_229_2_" x="103.5" y="38.7" class="st3" width="1.4" height="1.4"/>
			<rect id="사각형_230_2_" x="111.4" y="30.2" class="st3" width="1.4" height="1.4"/>
			<rect id="사각형_231_2_" x="111.4" y="27.5" class="st3" width="1.4" height="1.4"/>
		</g>
	</g>
</g>
</svg>
