<?xml version="1.0" encoding="utf-8"?>
<!-- Generator: Adobe Illustrator 24.2.3, SVG Export Plug-In . SVG Version: 6.00 Build 0)  -->
<svg version="1.1" id="Layer_1" xmlns="http://www.w3.org/2000/svg" xmlns:xlink="http://www.w3.org/1999/xlink" x="0px" y="0px"
	 viewBox="0 0 190.6 81.8" style="enable-background:new 0 0 190.6 81.8;" xml:space="preserve">
<style type="text/css">
	.st0{fill:#3A8BB6;}
	.st1{fill:#FFFFFF;}
	.st2{fill:none;stroke:#FFFFFF;stroke-width:2;stroke-linecap:round;stroke-linejoin:round;stroke-miterlimit:10;}
	.st3{fill:#3E95C2;}
	.st4{fill:#FFFFFF;stroke:#FFFFFF;stroke-width:0.5;stroke-miterlimit:10;}
	.st5{fill:none;stroke:#FFFFFF;stroke-width:2;stroke-linecap:round;stroke-miterlimit:10;}
	.st6{fill:none;stroke:#FFFFFF;stroke-width:1.5;stroke-linecap:round;stroke-miterlimit:10;}
	.st7{opacity:0.5;fill:#3167BF;enable-background:new    ;}
</style>
<polygon class="st0" points="106.6,17.5 154.4,82.2 124.8,82.2 94.1,37.4 97,37.3 97.8,36.6 98.6,35.2 98.6,34.5 100.2,34.5 
	100.8,34 100.7,32.3 101.4,31.6 101.4,30.1 101.2,29.6 100.6,29.1 100.8,26.8 101.8,25.1 103.3,23.7 104.8,22 105.4,19.6 "/>
<polygon class="st0" points="114.8,-105 115.6,-98.2 114.2,-92.3 110.1,-85.9 104.4,-81.8 98.7,-80.1 93.3,-80.1 87.1,-82.1 
	82.9,-84.5 115.6,-38.4 174.1,-38.4 113.6,-109.5 "/>
<g>
	<path id="패스_294_2_" class="st1" d="M108.1-100.4c-0.7,0-1.4,0.5-1.6,1h-2.9c-0.2,0-0.5,0.1-0.6,0.3l-0.8,1.7l-1.7-5
		c-0.1-0.2-0.2-0.5-0.5-0.5c-0.3-0.1-0.7,0.1-0.8,0.5l0,0l-1.7,7l-3-13.5c0-0.2-0.2-0.5-0.6-0.6c-0.3-0.1-0.7,0.1-0.8,0.5l0,0
		l-2.4,10.3l-1.1-3.3l0,0c-0.1-0.2-0.2-0.3-0.3-0.3c-0.3-0.1-0.8,0-0.9,0.3l0,0l-1.3,2.5h-1.9c-0.3-0.9-1.4-1.3-2.3-0.9
		c-0.6,0.2-1,0.9-1,1.6l0,0c0,0.9,0.8,1.7,1.7,1.7l0,0c0.7,0,1.3-0.5,1.6-1h2.4c0.3,0,0.6-0.2,0.7-0.5L89-100l1.4,4
		c0.1,0.3,0.5,0.6,0.9,0.5l0,0l0,0c0.2-0.1,0.3-0.2,0.5-0.5l2.3-9.6l3,13.5c0.1,0.3,0.5,0.6,0.8,0.6l0,0c0.2-0.1,0.5-0.3,0.6-0.6
		l1.8-7.4l1.5,4.3c0.1,0.3,0.5,0.6,0.9,0.5l0,0c0.2-0.1,0.3-0.2,0.5-0.3l0,0l1.4-2.9h2.4c0.2,0.7,0.9,1,1.6,1c0.9,0,1.7-0.8,1.7-1.7
		l0,0C109.8-99.6,109-100.4,108.1-100.4z"/>
	<circle class="st2" cx="96" cy="-100.5" r="19.6"/>
</g>
<g>
	<path id="패스_294_1_" class="st1" d="M105.6,131.3c-0.5,0-1,0.3-1.2,0.7h-2.1c-0.2,0-0.3,0.1-0.4,0.2l-0.6,1.2l-1.2-3.6
		c-0.1-0.2-0.2-0.3-0.3-0.3c-0.2-0.1-0.5,0.1-0.6,0.3l0,0l-1.2,5l-2.2-9.8c0-0.2-0.2-0.3-0.4-0.4c-0.2-0.1-0.5,0.1-0.6,0.3l0,0
		l-1.7,7.4l-0.8-2.4l0,0c-0.1-0.2-0.2-0.2-0.2-0.2c-0.2-0.1-0.6,0-0.7,0.2l0,0l-0.9,1.8H89c-0.2-0.7-1-0.9-1.7-0.7
		c-0.4,0.2-0.7,0.7-0.7,1.2l0,0c0,0.7,0.6,1.2,1.2,1.2l0,0c0.5,0,0.9-0.3,1.2-0.7h1.7c0.2,0,0.4-0.2,0.5-0.3l0.5-1l1,2.9
		c0.1,0.2,0.3,0.4,0.7,0.3l0,0l0,0c0.2-0.1,0.2-0.2,0.3-0.3l1.7-7l2.2,9.8c0.1,0.2,0.3,0.4,0.6,0.4l0,0c0.2-0.1,0.3-0.2,0.4-0.4
		l1.3-5.4l1.1,3.1c0.1,0.2,0.3,0.4,0.7,0.3l0,0c0.2-0.1,0.2-0.2,0.3-0.2l0,0l1-2.1h1.7c0.2,0.5,0.7,0.7,1.2,0.7
		c0.7,0,1.2-0.6,1.2-1.2l0,0C106.8,131.9,106.2,131.3,105.6,131.3z"/>
</g>
<g>
	<g>
		<path class="st3" d="M196.6-55.2c0.2,0.2,0.4,0.5,0.6,0.7c0.7,0.7,1.4,1.5,2.1,2.2c0.2,0.2,0.2,0.4,0,0.5
			c-0.3,0.3-0.6,0.5-0.8,0.8c-0.2,0.2-0.3,0.2-0.5,0c-0.8-0.9-1.7-1.9-2.5-2.8l-0.1-0.1c-0.2,0.3-0.3,0.6-0.5,0.9
			c-0.3,0.5-0.5,1-0.8,1.5c-0.1,0.1-0.2,0.2-0.3,0.2c-0.2,0-0.2-0.1-0.3-0.3c-0.5-1.5-1-3-1.5-4.5c-0.4-1.3-0.9-2.6-1.3-3.9
			c0-0.1,0-0.1-0.1-0.2c0-0.1,0-0.2,0.1-0.3s0.2-0.1,0.3,0c0.3,0.1,0.5,0.2,0.8,0.4c2.2,1,4.4,2,6.7,3.1c0.3,0.1,0.5,0.2,0.8,0.4
			c0.1,0.1,0.2,0.1,0.2,0.3c0,0.1-0.1,0.2-0.2,0.3C198.3-56,197.5-55.6,196.6-55.2C196.7-55.3,196.6-55.3,196.6-55.2z"/>
	</g>
</g>
<g>
	<path class="st4" d="M83.4,109.8c-1.1,0-2.1,0.5-2.8,1.3c-0.7,0.8-1.1,1.9-1,2.9l0,0v34.1c0,1.9,1.6,3.5,3.5,3.5H111v-41.8H83.4z
		 M83.1,150.2c-1.2,0-2.1-1-2.1-2.1v-31.3c0.6,0.4,1.3,0.7,2.1,0.7V150.2z M109.6,111.9h-3.5c-0.4,0-0.7,0.3-0.7,0.7
		c0,0.4,0.3,0.7,0.7,0.7h3.5v0.7h-2.8c-0.4,0-0.7,0.3-0.7,0.7c0,0.4,0.3,0.7,0.7,0.7h2.8v0.7H96.8l-0.5,1.4h13.2v32.8h-25v-32.8h2.1
		V117l0.3-0.8h-3.3c-1.3,0-2.5-1-2.6-2.2c-0.1-0.7,0.1-1.4,0.6-1.9s1.1-0.8,1.8-0.8h26.1L109.6,111.9L109.6,111.9z"/>
</g>
<polygon class="st1" points="86.6,115.8 97.6,115.8 96.5,117.8 85.2,117.8 "/>
<g>
	<g>
		<g>
			<polygon class="st1" points="94.7,28.8 94.1,28.8 94.1,28.8 94.1,28.5 96.5,28.5 96.5,28.8 96.4,28.8 			"/>
			<path class="st1" d="M95.3,28.7c0.2,0,0.4,0,0.6,0h-1.2C94.9,28.7,95.1,28.7,95.3,28.7 M96.5,28.7C96.5,28.7,96.5,28.7,96.5,28.7
				C96.4,28.7,96.4,28.7,96.5,28.7c-0.2,0-0.4,0-0.6,0H96.5 M94.7,28.7c-0.2,0-0.4,0-0.5,0c0,0,0,0,0,0c0,0,0,0,0,0H94.7 M95.3,28.4
				l-0.6,0h-0.5l0,0.3L94,28.9l0.1,0l0.1,0l0.5,0h1.2l0.6,0l0.1,0l0.1,0l-0.1-0.2l0-0.3h-0.6L95.3,28.4L95.3,28.4z"/>
		</g>
		<g>
			<path class="st1" d="M94.1,37.4c-1.2,0-2.3-0.9-2.6-2.1c0-0.1,0-0.2-0.1-0.2c0-0.1,0-0.2,0-0.2c0,0-0.5,0-0.5,0
				c-0.2,0-0.5,0-0.7-0.2c-0.4-0.3-0.7-0.6-0.7-1.1l0-0.8c0-0.2,0-0.3,0-0.5c0,0,0-0.1-0.1-0.1c-0.4-0.3-0.6-0.7-0.6-1.1
				c0-0.4,0-0.8,0-1.2c0-0.4,0.2-0.8,0.5-1c0.1-0.1,0.1-0.1,0.1-0.2c0-1.3-0.5-2.5-1.4-3.5c-0.2-0.2-0.5-0.5-0.7-0.7
				c-0.1-0.1-0.3-0.3-0.4-0.4c-1-1.1-1.9-2.3-2.4-3.7c-0.4-1.1-0.7-2.2-0.8-3.4c-0.1-0.8,0-1.6,0.1-2.4c0.3-1.6,0.9-3.1,1.8-4.5
				c1.2-1.8,2.8-3.1,4.8-4c1.5-0.7,3.1-1,4.7-1c0.2,0,0.3,0,0.5,0c2.7,0.1,5,1,7.1,2.8c1.7,1.5,2.9,3.3,3.5,5.4
				c0.4,1.3,0.5,2.6,0.4,3.9c-0.1,1.5-0.5,2.9-1.2,4.2c-0.5,1-1.2,2-2,2.7c-0.1,0.1-0.3,0.3-0.4,0.4c-0.2,0.2-0.5,0.4-0.7,0.6
				c-0.9,1-1.4,2.2-1.4,3.5c0,0.1,0,0.1,0.1,0.2c0.4,0.3,0.5,0.6,0.5,1.1c0,0.4,0,0.8,0,1.3c0,0.4-0.2,0.8-0.5,1
				c0,0-0.1,0.1-0.1,0.1c0,0.3,0,0.7,0,1l0,0.3c0,0.4-0.1,0.7-0.4,0.9c-0.2,0.2-0.6,0.4-1,0.4l-0.5,0c-0.2,1.3-0.9,2.1-2.1,2.4
				c-0.2,0-0.4,0.1-0.6,0.1c-0.4,0-0.8,0-1.2,0L94.1,37.4z M92.9,34.9c0.1,0.6,0.7,1.1,1.3,1.1l1.2,0l1,0c0.6,0,1.2-0.5,1.3-1.1
				l-0.1,0l-4.6,0L92.9,34.9l0-0.1L92.9,34.9z M90.9,32.4c0,0,0,0.1,0,0.1l0,0.3c0,0.2,0,0.4,0,0.6c0,0.1,0,0.1,0.1,0.1l6.1,0l2.4,0
				c0.1,0,0.1,0,0.1,0c0-0.3,0-0.5,0-0.7l0-0.3c0-0.1,0-0.1,0-0.2c0,0-0.1,0-0.1,0h-8.4C91,32.4,90.9,32.4,90.9,32.4
				C90.9,32.4,90.9,32.4,90.9,32.4z M90.4,29.9C90.3,29.9,90.3,29.9,90.4,29.9c-0.1,0.3-0.1,0.5-0.1,0.7l0,0.3c0,0.1,0,0.1,0,0.2
				c0,0,0.1,0,0.1,0h9.6c0.1,0,0.2,0,0.2,0c0,0,0-0.1,0-0.2l0-0.8c0-0.1,0-0.1,0-0.2c0,0-0.1,0-0.1,0L90.4,29.9v-0.1V29.9z
				 M96.4,28.6l2.2,0l1,0c0.1-0.4,0.1-0.7,0.2-1.1c0.2-1.2,0.7-2.3,1.5-3.2c0.2-0.3,0.5-0.5,0.8-0.8c0.1-0.1,0.3-0.3,0.4-0.4
				c1.2-1.2,2-2.6,2.5-4.2c0.3-1.1,0.4-2.3,0.3-3.4c-0.1-1.3-0.5-2.6-1.1-3.7c-1.1-2.1-2.7-3.6-4.8-4.6c-1.3-0.6-2.7-0.9-4.1-0.9
				c-0.3,0-0.7,0-1,0c-1,0.1-2,0.3-2.9,0.7c-1.3,0.6-2.5,1.4-3.5,2.4c-1.8,1.9-2.7,4.1-2.7,6.7c0,0.9,0.1,1.9,0.4,2.9
				c0.4,1.4,1.1,2.6,2,3.6c0.2,0.3,0.5,0.5,0.8,0.8c0.3,0.3,0.5,0.5,0.8,0.8c0.7,0.8,1.2,1.7,1.5,2.7c0.1,0.5,0.2,0.9,0.2,1.4l0,0.2
				c0,0.1,0,0.1,0.1,0.1c0,0,3.9,0,4.2,0C95.7,28.5,96.1,28.5,96.4,28.6z"/>
			<path class="st1" d="M95.3,5.1c0.2,0,0.3,0,0.5,0c2.7,0.1,5,1,7,2.8c1.7,1.5,2.8,3.3,3.4,5.4c0.4,1.3,0.5,2.6,0.4,3.9
				c-0.1,1.5-0.5,2.8-1.2,4.1c-0.5,1-1.2,1.9-2,2.7c-0.4,0.4-0.7,0.7-1.1,1c-0.9,1-1.4,2.2-1.4,3.6c0,0.1,0,0.2,0.1,0.3
				c0.3,0.2,0.5,0.5,0.5,0.9c0,0.4,0,0.8,0,1.3c0,0.4-0.2,0.7-0.5,0.9c-0.1,0.1-0.1,0.2-0.1,0.2c0,0.4,0,0.9,0,1.3
				c0,0.7-0.5,1.2-1.2,1.2c-0.1,0-0.2,0-0.3,0c-0.1,0-0.1,0-0.2,0c0,0,0,0,0,0c-0.1,0-0.1,0-0.2,0.1c-0.2,1.2-0.8,1.9-2,2.3
				c-0.2,0.1-0.4,0.1-0.6,0.1c-0.4,0-0.8,0-1.3,0c-0.4,0-0.8,0-1.1,0c-1.1,0-2.2-0.9-2.4-2c0-0.1,0-0.2-0.1-0.2c0-0.3,0-0.3-0.3-0.3
				c0,0,0,0,0,0c-0.1,0-0.2,0-0.3,0c-0.2,0-0.5,0-0.7-0.1c-0.4-0.2-0.6-0.6-0.6-1c0-0.2,0-0.4,0-0.6c0-0.2,0-0.5,0-0.7
				c0-0.1-0.1-0.2-0.1-0.2c-0.3-0.3-0.5-0.6-0.5-1c0-0.4,0-0.8,0-1.2c0-0.4,0.2-0.7,0.5-0.9c0.1-0.1,0.1-0.2,0.1-0.3
				c0-1.4-0.5-2.6-1.4-3.6c-0.3-0.4-0.7-0.7-1.1-1.1c-1.1-1.1-1.8-2.3-2.4-3.7c-0.4-1.1-0.7-2.2-0.8-3.4c-0.1-0.8,0-1.6,0.1-2.4
				c0.3-1.6,0.8-3.1,1.8-4.5c1.2-1.7,2.8-3.1,4.7-3.9C92.1,5.4,93.6,5.1,95.3,5.1 M91,28.7C91,28.7,91,28.7,91,28.7
				c0.3,0,0.5,0,0.8,0c0.3,0,0.6,0,1,0c0,0,0,0,0,0c0,0,0,0,0,0h1.3c0,0,0,0,0,0c0,0,0,0,0,0c0.4,0,0.8,0,1.1,0c0.4,0,0.8,0,1.2,0
				c0,0,0,0,0,0c0,0,0,0,0,0h1.2c0,0,0,0,0,0c0,0,0,0,0,0c0.3,0,0.6,0,0.9,0c0.3,0,0.6,0,0.9,0c0,0,0,0,0,0c0.1,0,0.2-0.1,0.2-0.2
				c0-0.3,0-0.7,0.1-1c0.2-1.2,0.7-2.2,1.5-3.1c0.4-0.4,0.8-0.8,1.2-1.2c1.2-1.2,2-2.6,2.5-4.3c0.3-1.1,0.4-2.3,0.3-3.5
				c-0.1-1.3-0.5-2.6-1.1-3.7c-1.1-2.1-2.7-3.6-4.9-4.6c-1.3-0.6-2.7-0.9-4.1-0.9c-0.3,0-0.7,0-1,0.1c-1,0.1-2,0.3-2.9,0.7
				c-1.3,0.6-2.5,1.4-3.5,2.4c-1.8,1.9-2.7,4.2-2.8,6.8c0,1,0.1,2,0.4,2.9c0.4,1.4,1.1,2.6,2.1,3.7c0.5,0.5,1,1,1.5,1.5
				c0.7,0.8,1.2,1.6,1.4,2.6c0.1,0.5,0.2,1,0.2,1.6C90.8,28.6,90.9,28.7,91,28.7 M95.3,31.2c0.2,0,0.4,0,0.5,0c0.8,0,1.6,0,2.5,0
				c0.6,0,1.2,0,1.8,0c0.3,0,0.3,0,0.3-0.3c0-0.3,0-0.5,0-0.8c0-0.3,0-0.3-0.3-0.3c-2.5,0-4.9,0-7.4,0c-0.4,0-0.8,0-1.3,0
				c-0.4,0-0.7,0-1.1,0c0,0,0,0,0,0c-0.1,0-0.2,0-0.2,0.2c0,0.3,0,0.6,0,0.9c0,0.3,0,0.3,0.3,0.3C92.1,31.2,93.7,31.2,95.3,31.2
				 M91.1,33.6C91.1,33.6,91.1,33.6,91.1,33.6c0.7,0,1.5,0,2.2,0c0.7,0,1.3,0,2,0c0.7,0,1.3,0,2,0c0.8,0,1.5,0,2.3,0c0,0,0,0,0,0
				c0.2,0,0.2,0,0.2-0.2c0-0.3,0-0.6,0-0.8c0-0.3,0-0.3-0.3-0.3c-0.8,0-1.6,0-2.5,0c-0.6,0-1.2,0-1.7,0c-1.4,0-2.8,0-4.2,0
				c-0.2,0-0.3,0-0.3,0.3c0,0.3,0,0.6,0,0.8C90.8,33.6,90.9,33.6,91.1,33.6 M95.4,36.1c0.4,0,0.7,0,1.1,0c0.7,0,1.4-0.6,1.4-1.3
				c-0.1,0-0.2,0-0.3,0c-1.2,0-2.4,0-3.5,0c-0.4,0-0.7,0-1.1,0c0,0-0.1,0-0.1,0c0,0,0,0-0.1,0c0,0-0.1,0.1-0.1,0.1
				c0.1,0.7,0.7,1.2,1.4,1.2C94.6,36.1,95,36.1,95.4,36.1 M95.3,4.8c-1.7,0-3.3,0.3-4.8,1c-2,0.9-3.6,2.3-4.8,4
				c-0.9,1.4-1.6,2.9-1.8,4.6c-0.1,0.9-0.2,1.7-0.1,2.5c0.1,1.2,0.3,2.4,0.8,3.5c0.6,1.4,1.4,2.7,2.5,3.7c0.1,0.1,0.3,0.3,0.4,0.4
				c0.2,0.2,0.5,0.5,0.7,0.7c0.9,1,1.3,2.2,1.3,3.4c0,0,0,0,0,0.1c-0.4,0.3-0.6,0.7-0.6,1.1c0,0.4,0,0.8,0,1.2
				c0,0.5,0.2,0.9,0.6,1.2c0,0.2,0,0.4,0,0.5l0,0.2l0,0.2c0,0.1,0,0.3,0,0.4c0,0.5,0.3,0.9,0.7,1.2c0.3,0.2,0.5,0.2,0.8,0.2l0.1,0
				l0.1,0c0,0,0,0,0,0c0,0,0,0,0.1,0c0,0,0,0,0,0c0,0,0,0,0,0.1c0,0.1,0,0.1,0,0.2l0,0.1c0.2,1.2,1.4,2.1,2.7,2.2c0.4,0,0.8,0,1.1,0
				c0.4,0,0.8,0,1.3,0c0.3,0,0.5,0,0.6-0.1c1.2-0.3,1.9-1.2,2.1-2.4c0,0,0.1,0,0.1,0l0.2,0l0.2,0c0.4,0,0.8-0.1,1.1-0.4
				c0.3-0.3,0.4-0.6,0.4-1l0-0.3c0-0.3,0-0.7,0-1c0,0,0,0,0,0c0.4-0.3,0.6-0.7,0.6-1.1c0-0.4,0-0.8,0-1.3c0-0.5-0.2-0.9-0.6-1.2
				c0,0,0,0,0-0.1c0-1.3,0.4-2.5,1.3-3.5c0.2-0.2,0.4-0.4,0.7-0.6c0.1-0.1,0.3-0.3,0.4-0.4c0.8-0.8,1.5-1.7,2-2.8
				c0.7-1.3,1.1-2.7,1.2-4.2c0.1-1.3,0-2.7-0.4-4c-0.6-2.2-1.8-4-3.5-5.5c-2-1.8-4.4-2.7-7.1-2.8C95.6,4.8,95.4,4.8,95.3,4.8
				L95.3,4.8z M91.1,28.4l0-0.2c-0.1-0.5-0.1-0.9-0.2-1.4c-0.2-1-0.8-1.9-1.5-2.7c-0.2-0.3-0.5-0.5-0.8-0.8
				c-0.3-0.2-0.5-0.5-0.7-0.8c-0.9-1-1.6-2.2-2-3.6c-0.3-1-0.4-1.9-0.4-2.8c0-2.5,0.9-4.8,2.7-6.6c1-1,2.1-1.8,3.4-2.3
				c0.9-0.4,1.8-0.6,2.8-0.7c0.3,0,0.7,0,1,0c1.4,0,2.7,0.3,4,0.9c2.1,0.9,3.7,2.5,4.8,4.5c0.6,1.1,0.9,2.3,1,3.7
				c0.1,1.1,0,2.2-0.3,3.4c-0.5,1.6-1.3,3-2.4,4.2c-0.1,0.1-0.3,0.3-0.4,0.4c-0.3,0.3-0.6,0.5-0.8,0.8c-0.9,1-1.4,2.1-1.6,3.3
				c0,0.3-0.1,0.7-0.1,1l-0.9,0c-0.3,0-0.6,0-0.9,0l-0.1,0l-1.2,0h-0.1l0,0c-0.4,0-0.8,0-1.1,0c-0.4,0-0.7,0-1.1,0l-0.1,0l-1.3,0
				l-0.5,0l-0.5,0C91.6,28.4,91.3,28.4,91.1,28.4L91.1,28.4z M90.4,30.9C90.4,30.9,90.4,30.9,90.4,30.9l0-0.3c0-0.2,0-0.4,0-0.6
				c0.4,0,0.7,0,1.1,0l0.6,0l0.6,0l7.4,0c0,0,0,0,0,0c0,0,0,0,0,0l0,0.1l0,0.6c0,0,0,0,0,0.1c0,0,0,0-0.1,0l-1.8,0l-1.2,0l-1.2,0
				h-0.5l-2.1,0L90.4,30.9C90.5,30.9,90.4,30.9,90.4,30.9L90.4,30.9z M91.1,32.5C91.1,32.5,91.1,32.5,91.1,32.5l3.3,0l0.9,0l0.9,0
				l0.9,0l2.5,0c0,0,0,0,0,0c0,0,0,0,0,0c0,0,0,0,0,0l0,0.3c0,0.2,0,0.4,0,0.6c-0.8,0-1.5,0-2.3,0l-1,0l-1,0l-1,0l-1,0
				c-0.7,0-1.5,0-2.2,0c0-0.2,0-0.4,0-0.6L91.1,32.5C91.1,32.5,91.1,32.5,91.1,32.5C91.1,32.5,91.1,32.5,91.1,32.5L91.1,32.5z
				 M93,35l0.5,0H94l3.5,0c-0.2,0.5-0.6,0.8-1.1,0.8c-0.4,0-0.7,0-1.1,0c-0.4,0-0.8,0-1.2,0C93.7,35.9,93.2,35.5,93,35L93,35z"/>
		</g>
	</g>
	<path id="패스_294_5_" class="st1" d="M102.7,15.5c-0.4,0-0.8,0.3-1,0.6H100c-0.1,0-0.3,0.1-0.4,0.2l-0.5,1l-1.1-3
		c-0.1-0.1-0.1-0.3-0.3-0.3c-0.2-0.1-0.4,0.1-0.5,0.3l0,0l-1.1,4.2l-1.8-8.1c0-0.1-0.1-0.3-0.4-0.3c-0.2-0.1-0.4,0.1-0.5,0.3l0,0
		L92,16.5l-0.7-2l0,0c-0.1-0.1-0.1-0.2-0.2-0.2c-0.2-0.1-0.5,0-0.6,0.2l0,0l-0.8,1.5h-1.2c-0.2-0.5-0.8-0.8-1.4-0.5
		c-0.4,0.1-0.6,0.5-0.6,1l0,0c0,0.5,0.5,1,1.1,1l0,0c0.4,0,0.8-0.3,1-0.6h1.5c0.2,0,0.4-0.1,0.4-0.3l0.4-0.8l0.8,2.4
		c0.1,0.2,0.3,0.3,0.6,0.3l0,0l0,0c0.1-0.1,0.2-0.1,0.3-0.3l1.4-5.7l1.8,8.1c0.1,0.2,0.3,0.3,0.5,0.3l0,0c0.1-0.1,0.3-0.2,0.4-0.3
		l1.1-4.4l0.9,2.6c0.1,0.2,0.3,0.3,0.6,0.3l0,0c0.1-0.1,0.2-0.1,0.3-0.2l0,0l0.8-1.7h1.5c0.1,0.4,0.6,0.6,1,0.6c0.6,0,1.1-0.5,1.1-1
		l0,0C103.8,16,103.3,15.5,102.7,15.5z"/>
</g>
<line class="st5" x1="89.5" y1="-10.8" x2="89.1" y2="-7"/>
<g>
	<line class="st6" x1="95.3" y1="0.8" x2="95.3" y2="2.3"/>
	<line class="st6" x1="87" y1="3.4" x2="87.7" y2="4.7"/>
	<line class="st6" x1="81.4" y1="9.5" x2="82.7" y2="10.2"/>
	<line class="st6" x1="79.1" y1="17.4" x2="80.6" y2="17.4"/>
</g>
<g>
	<line class="st6" x1="103.5" y1="3.4" x2="102.8" y2="4.7"/>
	<line class="st6" x1="109" y1="9.5" x2="107.8" y2="10.2"/>
	<line class="st6" x1="111.3" y1="17.4" x2="109.8" y2="17.4"/>
</g>
<path id="패스_297" class="st7" d="M220.3,8.2l80.1,77.6l-34.2-0.2L246.1,87l-47.9-51.4l-1.4-33.2h20.4l0.6,3.1L220.3,8.2z"/>
<g>
	<path id="패스_300" class="st1" d="M208.8,34c0,0.6-0.5,1.1-1.1,1.1l0,0c-0.6,0-1.1-0.5-1.1-1.1s0.5-1.1,1.1-1.1
		C208.3,32.9,208.8,33.3,208.8,34z"/>
	<path id="패스_301" class="st1" d="M210.1,23.5l-1.6-5.2c0.8-0.3,1.5-1.1,1.5-2.1c0-1.2-0.9-2.2-2.2-2.2c-1.2,0-2.2,0.9-2.2,2.2
		c0,0.9,0.5,1.7,1.5,2.1l-1.6,5.3c-0.1,0.2,0,0.4,0.1,0.5c0.1,0.1,0.3,0.2,0.5,0.2h3.5c0.3,0,0.6-0.3,0.6-0.6l0,0
		C210.1,23.7,210.1,23.6,210.1,23.5z M207.7,15.3c0.5,0,0.9,0.4,0.9,0.9c0,0.5-0.4,0.9-0.9,0.9s-0.9-0.4-0.9-0.9
		C206.8,15.7,207.2,15.3,207.7,15.3L207.7,15.3z M206.8,23.2l0.9-3.2l0.9,3.2H206.8z"/>
	<path id="패스_302" class="st1" d="M202.4,20c-0.2,0-0.4-0.1-0.5-0.2c-0.7-1-1.1-2.2-1.1-3.4s0.4-2.5,1.1-3.4
		c0.2-0.3,0.5-0.3,0.8-0.1l0,0c0.3,0.2,0.3,0.5,0.1,0.8l0,0c-0.6,0.8-0.9,1.8-0.9,2.7c0,0.9,0.3,2,0.9,2.7c0.2,0.3,0.1,0.6-0.1,0.8
		l0,0C202.7,20,202.6,20,202.4,20z"/>
	<path id="패스_303" class="st1" d="M204.3,18.6c-0.2,0-0.3-0.1-0.4-0.2c-0.5-0.6-0.7-1.3-0.7-2.1c0-0.8,0.3-1.5,0.7-2.1
		c0.2-0.2,0.6-0.3,0.8-0.1s0.3,0.6,0.1,0.8c-0.3,0.4-0.5,0.8-0.5,1.3c0,0.5,0.2,0.9,0.5,1.3c0.2,0.2,0.2,0.6-0.1,0.8
		C204.6,18.5,204.5,18.6,204.3,18.6z"/>
	<path id="패스_304" class="st1" d="M213.1,20c-0.1,0-0.2,0-0.3-0.1c-0.3-0.2-0.3-0.5-0.1-0.8l0,0c0.6-0.8,0.9-1.8,0.9-2.7
		c0-0.9-0.3-2-0.9-2.7c-0.2-0.3-0.1-0.6,0.1-0.8l0,0c0.3-0.2,0.6-0.1,0.8,0.1l0,0c0.7,1,1.1,2.2,1.1,3.4s-0.4,2.5-1.1,3.4
		C213.4,19.9,213.2,20,213.1,20z"/>
	<path id="패스_305" class="st1" d="M211.1,18.6c-0.1,0-0.3,0-0.4-0.1c-0.2-0.2-0.3-0.6-0.1-0.8c0.3-0.4,0.5-0.8,0.5-1.3
		c0-0.5-0.2-0.9-0.5-1.3c-0.2-0.2-0.2-0.6,0.1-0.8c0.2-0.2,0.6-0.2,0.8,0.1c0.5,0.6,0.7,1.3,0.7,2.1c0,0.7-0.3,1.5-0.7,2.1
		C211.5,18.5,211.3,18.6,211.1,18.6z"/>
	<path id="패스_306" class="st1" d="M216.3,0.8h-17.2c-1.2,0-2.3,1-2.3,2.3v31.7c0,1.2,1,2.3,2.3,2.3h17.2c1.2,0,2.3-1,2.3-2.3
		V3.1C218.6,1.8,217.5,0.8,216.3,0.8z M217.1,34.8c0,0.4-0.3,0.7-0.7,0.7h-17.2c-0.4,0-0.7-0.3-0.7-0.7v-2.4h18.7L217.1,34.8
		L217.1,34.8z M217.1,30.9h-18.6V5h18.7C217.1,5,217.1,30.9,217.1,30.9z M217.1,3.5h-18.6V3.1c0-0.4,0.3-0.7,0.7-0.7h17.2
		c0.4,0,0.7,0.3,0.7,0.7C217.1,3.1,217.1,3.5,217.1,3.5z"/>
</g>
</svg>
