<?xml version="1.0" encoding="utf-8"?>
<!-- Generator: Adobe Illustrator 24.2.3, SVG Export Plug-In . SVG Version: 6.00 Build 0)  -->
<svg version="1.1" id="Layer_1" xmlns="http://www.w3.org/2000/svg" xmlns:xlink="http://www.w3.org/1999/xlink" x="0px" y="0px"
	 viewBox="0 0 190.6 81.8" style="enable-background:new 0 0 190.6 81.8;" xml:space="preserve">
<style type="text/css">
	.st0{opacity:0.5;fill:#5CB86A;enable-background:new    ;}
	.st1{fill:#FFFFFF;}
	.st2{fill:none;stroke:#FFFFFF;stroke-width:2;stroke-linecap:round;stroke-linejoin:round;}
</style>
<path id="패스_295" class="st0" d="M100.3,6.5L175,85.6c0,0-24.1-2.4-26.7-2.4s-35.2,3.1-35.2,3.1L72.5,37.1l6.4-12.3l8.8-0.9
	l9.3-6.8l6-0.9L100.3,6.5z"/>
<g id="그룹_281_1_">
	<g id="그룹_280_1_">
		<path id="패스_292_1_" class="st1" d="M225.5,15.5c0.1,0.4,0.4,0.7,0.8,0.8l1.4,0.3V18c0,0.3,0.1,0.6,0.3,0.8l1,1l-1.8,3.2
			c-0.1,0.2-0.2,0.4-0.2,0.6v4c0,0.2,0.1,0.5,0.2,0.7l1.8,2.2c0.2,0.3,0.5,0.5,0.9,0.5c0.2,0,0.3,0,0.5-0.1l4-1.7
			c0.4-0.2,0.7-0.6,0.7-1v-0.8l1.1-0.3l3.1,1c0.5,0.2,1.1-0.1,1.4-0.6l0.8-1.6h2.6c0.4,0,0.8-0.3,1-0.7l1.7-4
			c0.1-0.1,0.1-0.3,0.1-0.5v-2.8c0-0.5-0.3-0.9-0.8-1.1l-0.9-0.3V9.9c0-0.2-0.1-0.4-0.1-0.6l-4.4-7.9c-0.3-0.5-1-0.7-1.5-0.4
			c0,0,0,0-0.1,0l-1.4,0.9h-5.3c-0.4,0-0.7,0.2-0.9,0.5l-1.9,2.9h-2.2c-0.4,0-0.8,0.2-1,0.6s-0.2,0.8,0,1.1l2.9,4.5h-3
			c-0.6,0-1.1,0.5-1.1,1.1c0,0.1,0,0.2,0,0.3L225.5,15.5z M231.1,14.1c0.4,0,0.8-0.2,1-0.6c0.2-0.4,0.2-0.8,0-1.2l-2.9-4.5h0.8
			c0.4,0,0.7-0.2,0.9-0.5l1.9-2.9h5.1c0.2,0,0.4-0.1,0.6-0.2l0.7-0.5l3.8,6.6v7c0,0.5,0.3,0.9,0.8,1.1l0.9,0.3v1.8l-1.3,3.1h-2.7
			c-0.4,0-0.8,0.2-1,0.6l-0.7,1.4l-2.5-0.8c-0.2-0.1-0.4-0.1-0.6,0l-2.3,0.6c-0.5,0.1-0.9,0.6-0.9,1.1v1l-2.5,1l-0.9-1.3V24l2.1-3.7
			c0.3-0.4,0.2-1-0.2-1.4l-1.4-1.4v-1.8c0-0.5-0.4-1-0.9-1.1l-1.6-0.4V14h3.8L231.1,14.1L231.1,14.1z"/>
		<path id="패스_293_1_" class="st1" d="M230,31.7h-2.8c-0.5,0-0.9,0.3-1.1,0.7l-1.1,2.8c-0.2,0.6,0,1.2,0.6,1.5c0,0,0,0,0.1,0
			l1.7,0.6c0.1,0,0.2,0.1,0.4,0.1h0.2l3.4-0.6c0.6-0.1,1-0.7,0.9-1.3c0-0.1,0-0.2-0.1-0.2l-1.1-2.8C230.9,31.9,230.4,31.7,230,31.7z
			 M227.8,35l-0.3-0.1l0.4-1h1.3l0.3,0.8L227.8,35z"/>
		<rect id="사각형_229_1_" x="223.7" y="28.3" class="st1" width="2.3" height="2.3"/>
		<rect id="사각형_230_1_" x="237" y="14.1" class="st1" width="2.3" height="2.3"/>
		<rect id="사각형_231_1_" x="237" y="9.6" class="st1" width="2.3" height="2.3"/>
	</g>
	<path id="패스_294_1_" class="st1" d="M220.6,18.2c-0.6,0-1.2,0.4-1.4,0.9h-2.5c-0.2,0-0.4,0.1-0.5,0.3l-0.7,1.5l-1.5-4.4
		c-0.1-0.2-0.2-0.4-0.4-0.4c-0.3-0.1-0.6,0.1-0.7,0.4l0,0l-1.5,6.1l-2.6-11.8c0-0.2-0.2-0.4-0.5-0.5s-0.6,0.1-0.7,0.4l0,0l-2.1,9
		l-1-2.9l0,0c-0.1-0.2-0.2-0.3-0.3-0.3c-0.3-0.1-0.7,0-0.8,0.3l0,0l-1.1,2.2h-1.7c-0.3-0.8-1.2-1.1-2-0.8c-0.5,0.2-0.9,0.8-0.9,1.4
		l0,0c0,0.8,0.7,1.5,1.5,1.5l0,0c0.6,0,1.1-0.4,1.4-0.9h2.1c0.3,0,0.5-0.2,0.6-0.4l0.6-1.2l1.2,3.5c0.1,0.3,0.4,0.5,0.8,0.4l0,0l0,0
		c0.2-0.1,0.3-0.2,0.4-0.4l2-8.4l2.6,11.8c0.1,0.3,0.4,0.5,0.7,0.5l0,0c0.2-0.1,0.4-0.3,0.5-0.5l1.6-6.5l1.3,3.8
		c0.1,0.3,0.4,0.5,0.8,0.4l0,0c0.2-0.1,0.3-0.2,0.4-0.3l0,0l1.2-2.5h2.1c0.2,0.6,0.8,0.9,1.4,0.9c0.8,0,1.5-0.7,1.5-1.5l0,0
		C222.1,18.9,221.4,18.2,220.6,18.2z"/>
</g>
<g id="그룹_294" transform="translate(1.366 1)">
	<path id="패스_307" class="st1" d="M98,5.5l7.6,13.2l-4.8-1.8L99,21.3l-4.2-4.6l-4.5,2L98,5.5z"/>
	<g id="그룹_292" transform="translate(10.148)">
		<path id="패스_308" class="st2" d="M105.3,34.3l-8.6-14.8l-5.7-2l-2,4.7l-4.8-5.1L79,19.4l-8.6,14.8"/>
		<path id="패스_309" class="st2" d="M96.7,19.5L87.9,4.2l-8.8,15.3"/>
	</g>
	<path id="패스_310" class="st1" d="M83.3,15.9l6.2,10.8l-4-1.4l-1.4,3.5L80.7,25l-3.6,1.7L83.3,15.9z"/>
	<g id="그룹_293" transform="translate(0 11.709)">
		<path id="패스_311" class="st2" d="M71.2,24.4l6-10.3l3.6-1.7l3.3,3.5l1.5-3.3l4,1.4l6,10.3"/>
		<path id="패스_312" class="st2" d="M89.5,14.2L83.3,3.4l-6.2,10.8"/>
	</g>
</g>
<g>
	<path id="패스_301_9_" class="st1" d="M87.4,12.3l-1.7-5.6c0.9-0.3,1.6-1.2,1.6-2.2c0-1.3-1-2.3-2.3-2.3c-1.3,0-2.3,1-2.3,2.3
		c0,1,0.6,1.8,1.6,2.2l-1.7,5.8c-0.1,0.2,0,0.4,0.1,0.6c0.2,0.2,0.3,0.3,0.5,0.3h3.9c0.3,0,0.6-0.3,0.6-0.6
		C87.4,12.5,87.4,12.4,87.4,12.3z M84.8,3.4c0.6,0,1,0.5,1,1s-0.5,1-1,1c-0.5,0-1-0.5-1-1S84.2,3.4,84.8,3.4L84.8,3.4z M83.8,12
		l1-3.5l1,3.5H83.8z"/>
	<path id="패스_302_9_" class="st1" d="M78.9,8.5c-0.2,0-0.4-0.1-0.5-0.3c-0.8-1-1.2-2.4-1.2-3.8s0.4-2.7,1.2-3.8
		c0.2-0.3,0.6-0.3,0.9-0.2l0,0c0.3,0.2,0.3,0.6,0.2,0.9c-0.6,0.9-1,1.9-1,3c0,1,0.3,2.2,1,3c0.2,0.3,0.2,0.7-0.2,0.9
		C79.3,8.4,79.1,8.5,78.9,8.5z"/>
	<path id="패스_303_9_" class="st1" d="M81,7c-0.2,0-0.3-0.1-0.5-0.2c-0.5-0.6-0.8-1.4-0.8-2.2s0.3-1.6,0.8-2.2
		c0.2-0.3,0.6-0.3,0.9-0.1l0,0c0.3,0.2,0.3,0.6,0.1,0.9C81.2,3.6,81,4.1,81,4.6c0,0.5,0.2,1,0.5,1.4c0.2,0.3,0.2,0.7-0.1,0.9
		C81.3,7,81.2,7,81,7z"/>
	<path id="패스_304_9_" class="st1" d="M90.6,8.5c-0.2,0-0.3-0.1-0.3-0.2C90,8.2,89.9,7.7,90,7.4l0,0c0.6-0.9,1-1.9,1-3
		c0-1-0.3-2.2-1-3c-0.2-0.3-0.2-0.7,0.2-0.9l0,0c0.3-0.2,0.7-0.2,0.9,0.2l0,0c0.8,1,1.2,2.4,1.2,3.8s-0.4,2.7-1.2,3.8
		C91,8.4,90.7,8.5,90.6,8.5z"/>
	<path id="패스_305_9_" class="st1" d="M88.5,7c-0.2,0-0.3-0.1-0.4-0.2c-0.3-0.2-0.3-0.6-0.1-0.9c0.3-0.4,0.5-0.9,0.5-1.4
		c0-0.5-0.2-1-0.5-1.4c-0.2-0.3-0.2-0.7,0.1-0.9C88.3,2,88.7,2,89,2.2l0,0c0.5,0.6,0.8,1.4,0.8,2.2S89.5,6.1,89,6.7
		C88.9,6.9,88.7,7,88.5,7z"/>
</g>
</svg>
