<?xml version="1.0" encoding="utf-8"?>
<!-- Generator: Adobe Illustrator 24.1.1, SVG Export Plug-In . SVG Version: 6.00 Build 0)  -->
<svg version="1.1" id="Layer_1" xmlns="http://www.w3.org/2000/svg" xmlns:xlink="http://www.w3.org/1999/xlink" x="0px" y="0px"
	 viewBox="0 0 190.6 81.8" style="enable-background:new 0 0 190.6 81.8;" xml:space="preserve">
<style type="text/css">
	.st0{fill:#FFFFFF;}
	.st1{fill:none;stroke:#484D51;stroke-width:1.5;stroke-linecap:round;stroke-linejoin:round;stroke-miterlimit:10;}
	.st2{fill:none;stroke:#484D51;stroke-width:1.5;stroke-linecap:round;stroke-linejoin:round;stroke-miterlimit:10.0003;}
	.st3{fill:#3E95C2;}
	.st4{fill:#484D51;stroke:#484D51;stroke-width:0.5;stroke-miterlimit:10;}
</style>
<g id="그룹_281_1_">
	<g id="그룹_280_1_">
		<path id="패스_292_1_" class="st0" d="M225.5,15.5c0.1,0.4,0.4,0.7,0.8,0.8l1.4,0.3V18c0,0.3,0.1,0.6,0.3,0.8l1,1l-1.8,3.2
			c-0.1,0.2-0.2,0.4-0.2,0.6v4c0,0.2,0.1,0.5,0.2,0.7l1.8,2.2c0.2,0.3,0.5,0.5,0.9,0.5c0.2,0,0.3,0,0.5-0.1l4-1.7
			c0.4-0.2,0.7-0.6,0.7-1v-0.8l1.1-0.3l3.1,1c0.5,0.2,1.1-0.1,1.4-0.6l0.8-1.6h2.6c0.4,0,0.8-0.3,1-0.7l1.7-4
			c0.1-0.1,0.1-0.3,0.1-0.5v-2.8c0-0.5-0.3-0.9-0.8-1.1l-0.9-0.3V9.9c0-0.2-0.1-0.4-0.1-0.6l-4.4-7.9c-0.3-0.5-1-0.7-1.5-0.4
			c0,0,0,0-0.1,0l-1.4,0.9h-5.3c-0.4,0-0.7,0.2-0.9,0.5l-1.9,2.9h-2.2c-0.4,0-0.8,0.2-1,0.6s-0.2,0.8,0,1.1l2.9,4.5h-3
			c-0.6,0-1.1,0.5-1.1,1.1c0,0.1,0,0.2,0,0.3L225.5,15.5z M231.1,14.1c0.4,0,0.8-0.2,1-0.6c0.2-0.4,0.2-0.8,0-1.2l-2.9-4.5h0.8
			c0.4,0,0.7-0.2,0.9-0.5l1.9-2.9h5.1c0.2,0,0.4-0.1,0.6-0.2l0.7-0.5l3.8,6.6v7c0,0.5,0.3,0.9,0.8,1.1l0.9,0.3v1.8l-1.3,3.1h-2.7
			c-0.4,0-0.8,0.2-1,0.6l-0.7,1.4l-2.5-0.8c-0.2-0.1-0.4-0.1-0.6,0l-2.3,0.6c-0.5,0.1-0.9,0.6-0.9,1.1v1l-2.5,1l-0.9-1.3V24l2.1-3.7
			c0.3-0.4,0.2-1-0.2-1.4l-1.4-1.4v-1.8c0-0.5-0.4-1-0.9-1.1l-1.6-0.4V14h3.8L231.1,14.1L231.1,14.1z"/>
		<path id="패스_293_1_" class="st0" d="M230,31.7h-2.8c-0.5,0-0.9,0.3-1.1,0.7l-1.1,2.8c-0.2,0.6,0,1.2,0.6,1.5c0,0,0,0,0.1,0
			l1.7,0.6c0.1,0,0.2,0.1,0.4,0.1h0.2l3.4-0.6c0.6-0.1,1-0.7,0.9-1.3c0-0.1,0-0.2-0.1-0.2l-1.1-2.8C230.9,31.9,230.4,31.7,230,31.7z
			 M227.8,35l-0.3-0.1l0.4-1h1.3l0.3,0.8L227.8,35z"/>
		<rect id="사각형_229_1_" x="223.7" y="28.3" class="st0" width="2.3" height="2.3"/>
		<rect id="사각형_230_1_" x="237" y="14.1" class="st0" width="2.3" height="2.3"/>
		<rect id="사각형_231_1_" x="237" y="9.6" class="st0" width="2.3" height="2.3"/>
	</g>
	<path id="패스_294_1_" class="st0" d="M220.6,18.2c-0.6,0-1.2,0.4-1.4,0.9h-2.5c-0.2,0-0.4,0.1-0.5,0.3l-0.7,1.5l-1.5-4.4
		c-0.1-0.2-0.2-0.4-0.4-0.4c-0.3-0.1-0.6,0.1-0.7,0.4l0,0l-1.5,6.1l-2.6-11.8c0-0.2-0.2-0.4-0.5-0.5s-0.6,0.1-0.7,0.4l0,0l-2.1,9
		l-1-2.9l0,0c-0.1-0.2-0.2-0.3-0.3-0.3c-0.3-0.1-0.7,0-0.8,0.3l0,0l-1.1,2.2h-1.7c-0.3-0.8-1.2-1.1-2-0.8c-0.5,0.2-0.9,0.8-0.9,1.4
		l0,0c0,0.8,0.7,1.5,1.5,1.5l0,0c0.6,0,1.1-0.4,1.4-0.9h2.1c0.3,0,0.5-0.2,0.6-0.4l0.6-1.2l1.2,3.5c0.1,0.3,0.4,0.5,0.8,0.4l0,0l0,0
		c0.2-0.1,0.3-0.2,0.4-0.4l2-8.4l2.6,11.8c0.1,0.3,0.4,0.5,0.7,0.5l0,0c0.2-0.1,0.4-0.3,0.5-0.5l1.6-6.5l1.3,3.8
		c0.1,0.3,0.4,0.5,0.8,0.4l0,0c0.2-0.1,0.3-0.2,0.4-0.3l0,0l1.2-2.5h2.1c0.2,0.6,0.8,0.9,1.4,0.9c0.8,0,1.5-0.7,1.5-1.5l0,0
		C222.1,18.9,221.4,18.2,220.6,18.2z"/>
</g>
<g>
	<line class="st1" x1="89.3" y1="45.4" x2="92.3" y2="45.4"/>
	<ellipse class="st2" cx="94.8" cy="24.3" rx="7.1" ry="7.1"/>
	<line class="st1" x1="90.9" y1="30.6" x2="85.8" y2="38.1"/>
	<line class="st1" x1="99.6" y1="30.6" x2="104.7" y2="38.1"/>
	<path class="st3" d="M86.2,50.5c0.9-0.7,1.7-1.7,2.2-2.8c0,0,0-0.1,0.1-0.1c0.1-0.2,0.2-0.4,0.3-0.6c0-0.1,0.1-0.2,0.1-0.3
		c0.1-0.2,0.1-0.3,0.2-0.5c0-0.1,0.1-0.2,0.1-0.4c0-0.1,0-0.3,0.1-0.4c0.1-0.4,0.1-0.9,0.1-1.4c0-4.6-3.7-8.3-8.3-8.3
		c-2.8,0-5.4,1.4-6.9,3.6l0,0c-0.1,0.2-0.2,0.4-0.3,0.5c0,0.1-0.1,0.1-0.1,0.2c-0.1,0.2-0.2,0.3-0.2,0.5c0,0.1-0.1,0.2-0.1,0.3
		c-0.1,0.2-0.1,0.3-0.2,0.5c0,0.1-0.1,0.3-0.1,0.4c0,0.1-0.1,0.3-0.1,0.4c0,0.2-0.1,0.4-0.1,0.6c0,0.1,0,0.2,0,0.3
		c0,0.3-0.1,0.6-0.1,0.9c0,2.6,1.2,4.9,3.1,6.5l0,0c0.4,0.3,0.9,0.6,1.4,0.9l0,0c1.1,0.6,2.4,0.9,3.8,0.9s2.7-0.3,3.8-0.9l0,0
		C85.4,51.2,85.8,50.9,86.2,50.5L86.2,50.5z M87,42.7h1.4v2.8H87V42.7z M75.1,45.4h-1.4v-2.6h1.4V45.4z M77.3,46.8h-1.4v-5.5h1.4
		V46.8z M79.5,45.8h-1.4v-3.5h1.4V45.8z M81.7,46.8h-1.4v-5.5h1.4V46.8z M84,48.2h-1.4v-8.3H84V48.2z M86.2,46.8h-1.4v-5.5h1.4V46.8
		z"/>
	<path class="st4" d="M98.3,26l-1.7-0.8c-0.1-0.1-0.2-0.2-0.2-0.3v-0.5c0.6-0.5,0.9-1.2,0.9-2v-0.7c0.2-0.1,0.3-0.3,0.3-0.5v-0.1
		c0-1.4-1.1-2.5-2.5-2.5h-0.6c-1.4,0-2.5,1.1-2.5,2.5v0.6c0,0.2,0.1,0.4,0.2,0.5c0,0,0.1,0,0.1,0.1v0.1c0,0.8,0.4,1.5,0.9,2v0.5
		c0,0.1-0.1,0.3-0.2,0.3L91.4,26c-0.6,0.2-0.9,0.8-0.9,1.4v2.7c0,0.2,0.1,0.3,0.3,0.3c0.2,0,0.3-0.1,0.3-0.3v-2.7v-0.1l0.8,0.8
		c0.1,0.1,0.2,0.3,0.2,0.5v1.5c0,0.2,0.1,0.3,0.3,0.3c0.2,0,0.3-0.1,0.3-0.3v-1.5c0-0.3-0.1-0.6-0.4-0.9l-0.9-0.9
		c0.1-0.1,0.2-0.2,0.3-0.2l1.7-0.7l1.2,1.2V31c0,0.2,0.1,0.3,0.3,0.3c0.2,0,0.3-0.1,0.3-0.3v-4l1.2-1.2l1.7,0.7
		c0.1,0.1,0.2,0.1,0.3,0.2l-0.9,0.9c-0.2,0.2-0.4,0.5-0.4,0.9V30c0,0.2,0.1,0.3,0.3,0.3c0.2,0,0.3-0.1,0.3-0.3v-1.5
		c0-0.2,0.1-0.3,0.2-0.5l0.8-0.8v0.1V30c0,0.2,0.1,0.3,0.3,0.3c0.2,0,0.3-0.1,0.3-0.3v-2.7C99.2,26.8,98.9,26.2,98.3,26z M94.8,26.5
		l-1.1-1.1c0.1-0.1,0.1-0.3,0.1-0.5v-0.1c0.3,0.1,0.6,0.2,1,0.2c0.3,0,0.7-0.1,1-0.2v0.1c0,0.2,0,0.3,0.1,0.5L94.8,26.5z M94.8,24.4
		c-1.1,0-1.9-0.9-1.9-1.9v-0.1c0.2-0.1,0.4-0.2,0.5-0.3c0.1-0.1,0.1-0.3,0-0.4s-0.3-0.1-0.4,0s-0.3,0.2-0.4,0.3l0,0l0,0v-0.6
		c0-1.1,0.9-1.9,1.9-1.9h0.6c1.1,0,1.9,0.9,1.9,1.9v0.1l0,0c-1.8,0.3-2.7-0.3-2.9-0.6c-0.1-0.1-0.3-0.1-0.4,0s-0.1,0.3,0,0.4
		c0.9,0.9,2.3,0.9,3.1,0.8v0.5C96.8,23.6,95.9,24.4,94.8,24.4z"/>
	<circle class="st1" cx="109" cy="44.1" r="7.1"/>
	<path class="st4" d="M112.5,45.8l-1.7-0.8c-0.1-0.1-0.2-0.2-0.2-0.3v-0.5c0.6-0.5,0.9-1.2,0.9-2v-0.7c0.2-0.1,0.3-0.3,0.3-0.5v-0.1
		c0-1.4-1.1-2.5-2.5-2.5h-0.6c-1.4,0-2.5,1.1-2.5,2.5v0.6c0,0.2,0.1,0.4,0.2,0.5c0,0,0.1,0,0.1,0.1v0.1c0,0.8,0.4,1.5,0.9,2v0.5
		c0,0.1-0.1,0.3-0.2,0.3l-1.7,0.8c-0.6,0.2-0.9,0.8-0.9,1.4v2.7c0,0.2,0.1,0.3,0.3,0.3c0.2,0,0.3-0.1,0.3-0.3v-2.7v-0.1l0.8,0.8
		c0.1,0.1,0.2,0.3,0.2,0.5v1.5c0,0.2,0.1,0.3,0.3,0.3c0.2,0,0.3-0.1,0.3-0.3v-1.5c0-0.3-0.1-0.6-0.4-0.9l-0.9-0.9
		c0.1-0.1,0.2-0.2,0.3-0.2l1.7-0.7l1.2,1.2v3.9c0,0.2,0.1,0.3,0.3,0.3c0.2,0,0.3-0.1,0.3-0.3v-3.9l1.2-1.2l1.7,0.7
		c0.1,0.1,0.2,0.1,0.3,0.2l-0.9,0.9c-0.2,0.2-0.4,0.5-0.4,0.9v1.5c0,0.2,0.1,0.3,0.3,0.3c0.2,0,0.3-0.1,0.3-0.3v-1.5
		c0-0.2,0.1-0.3,0.2-0.5l0.8-0.8v0.1v2.7c0,0.2,0.1,0.3,0.3,0.3c0.2,0,0.3-0.1,0.3-0.3v-2.7C113.4,46.6,113,46.1,112.5,45.8z
		 M109,46.3l-1.1-1.1c0.1-0.1,0.1-0.3,0.1-0.5v-0.1c0.3,0.1,0.6,0.2,1,0.2c0.3,0,0.7-0.1,1-0.2v0.1c0,0.2,0,0.3,0.1,0.5L109,46.3z
		 M109,44.2c-1.1,0-1.9-0.9-1.9-1.9v-0.1c0.2-0.1,0.4-0.2,0.5-0.3s0.1-0.3,0-0.4c-0.1-0.1-0.3-0.1-0.4,0s-0.3,0.2-0.4,0.3l0,0l0,0
		v-0.6c0-1.1,0.9-1.9,1.9-1.9h0.6c1.1,0,1.9,0.9,1.9,1.9v0.1l0,0c-1.8,0.3-2.7-0.3-2.9-0.6c-0.1-0.1-0.3-0.1-0.4,0s-0.1,0.3,0,0.4
		c0.9,0.9,2.3,0.9,3.1,0.8v0.5C110.9,43.4,110.1,44.2,109,44.2z"/>
	<polyline class="st1" points="112.2,21.2 104.5,21.2 101.9,23.7 	"/>
	<circle class="st1" cx="114" cy="21.4" r="1.7"/>
	<circle class="st1" cx="76.4" cy="20" r="3.1"/>
	<circle class="st1" cx="95.5" cy="45.4" r="3.1"/>
	<polyline class="st1" points="88,27 81.2,27 78.1,22.9 	"/>
</g>
</svg>
