<?xml version="1.0" encoding="utf-8"?>
<!-- Generator: Adobe Illustrator 24.2.1, SVG Export Plug-In . SVG Version: 6.00 Build 0)  -->
<svg version="1.1" id="Layer_1" xmlns="http://www.w3.org/2000/svg" xmlns:xlink="http://www.w3.org/1999/xlink" x="0px" y="0px"
	 viewBox="0 0 190.6 81.8" style="enable-background:new 0 0 190.6 81.8;" xml:space="preserve">
<style type="text/css">
	.st0{fill:#FFFFFF;}
	.st1{fill:none;stroke:#F7BA3A;stroke-linecap:round;stroke-linejoin:round;}
	.st2{fill:#484D51;}
	.st3{fill:#484D51;stroke:#484D51;stroke-miterlimit:10;}
</style>
<g id="그룹_281_1_">
	<g id="그룹_280_1_">
		<path id="패스_292_1_" class="st0" d="M225.5,15.5c0.1,0.4,0.4,0.7,0.8,0.8l1.4,0.3V18c0,0.3,0.1,0.6,0.3,0.8l1,1l-1.8,3.2
			c-0.1,0.2-0.2,0.4-0.2,0.6v4c0,0.2,0.1,0.5,0.2,0.7l1.8,2.2c0.2,0.3,0.5,0.5,0.9,0.5c0.2,0,0.3,0,0.5-0.1l4-1.7
			c0.4-0.2,0.7-0.6,0.7-1v-0.8l1.1-0.3l3.1,1c0.5,0.2,1.1-0.1,1.4-0.6l0.8-1.6h2.6c0.4,0,0.8-0.3,1-0.7l1.7-4
			c0.1-0.1,0.1-0.3,0.1-0.5v-2.8c0-0.5-0.3-0.9-0.8-1.1l-0.9-0.3V9.9c0-0.2-0.1-0.4-0.1-0.6l-4.4-7.9c-0.3-0.5-1-0.7-1.5-0.4
			c0,0,0,0-0.1,0l-1.4,0.9h-5.3c-0.4,0-0.7,0.2-0.9,0.5l-1.9,2.9h-2.2c-0.4,0-0.8,0.2-1,0.6s-0.2,0.8,0,1.1l2.9,4.5h-3
			c-0.6,0-1.1,0.5-1.1,1.1c0,0.1,0,0.2,0,0.3L225.5,15.5z M231.1,14.1c0.4,0,0.8-0.2,1-0.6c0.2-0.4,0.2-0.8,0-1.2l-2.9-4.5h0.8
			c0.4,0,0.7-0.2,0.9-0.5l1.9-2.9h5.1c0.2,0,0.4-0.1,0.6-0.2l0.7-0.5l3.8,6.6v7c0,0.5,0.3,0.9,0.8,1.1l0.9,0.3v1.8l-1.3,3.1h-2.7
			c-0.4,0-0.8,0.2-1,0.6l-0.7,1.4l-2.5-0.8c-0.2-0.1-0.4-0.1-0.6,0l-2.3,0.6c-0.5,0.1-0.9,0.6-0.9,1.1v1l-2.5,1l-0.9-1.3V24l2.1-3.7
			c0.3-0.4,0.2-1-0.2-1.4l-1.4-1.4v-1.8c0-0.5-0.4-1-0.9-1.1l-1.6-0.4V14h3.8L231.1,14.1L231.1,14.1z"/>
		<path id="패스_293_1_" class="st0" d="M230,31.7h-2.8c-0.5,0-0.9,0.3-1.1,0.7l-1.1,2.8c-0.2,0.6,0,1.2,0.6,1.5c0,0,0,0,0.1,0
			l1.7,0.6c0.1,0,0.2,0.1,0.4,0.1h0.2l3.4-0.6c0.6-0.1,1-0.7,0.9-1.3c0-0.1,0-0.2-0.1-0.2l-1.1-2.8C230.9,31.9,230.4,31.7,230,31.7z
			 M227.8,35l-0.3-0.1l0.4-1h1.3l0.3,0.8L227.8,35z"/>
		<rect id="사각형_229_1_" x="223.7" y="28.3" class="st0" width="2.3" height="2.3"/>
		<rect id="사각형_230_1_" x="237" y="14.1" class="st0" width="2.3" height="2.3"/>
		<rect id="사각형_231_1_" x="237" y="9.6" class="st0" width="2.3" height="2.3"/>
	</g>
	<path id="패스_294_1_" class="st0" d="M220.6,18.2c-0.6,0-1.2,0.4-1.4,0.9h-2.5c-0.2,0-0.4,0.1-0.5,0.3l-0.7,1.5l-1.5-4.4
		c-0.1-0.2-0.2-0.4-0.4-0.4c-0.3-0.1-0.6,0.1-0.7,0.4l0,0l-1.5,6.1l-2.6-11.8c0-0.2-0.2-0.4-0.5-0.5s-0.6,0.1-0.7,0.4l0,0l-2.1,9
		l-1-2.9l0,0c-0.1-0.2-0.2-0.3-0.3-0.3c-0.3-0.1-0.7,0-0.8,0.3l0,0l-1.1,2.2h-1.7c-0.3-0.8-1.2-1.1-2-0.8c-0.5,0.2-0.9,0.8-0.9,1.4
		l0,0c0,0.8,0.7,1.5,1.5,1.5l0,0c0.6,0,1.1-0.4,1.4-0.9h2.1c0.3,0,0.5-0.2,0.6-0.4l0.6-1.2l1.2,3.5c0.1,0.3,0.4,0.5,0.8,0.4l0,0l0,0
		c0.2-0.1,0.3-0.2,0.4-0.4l2-8.4l2.6,11.8c0.1,0.3,0.4,0.5,0.7,0.5l0,0c0.2-0.1,0.4-0.3,0.5-0.5l1.6-6.5l1.3,3.8
		c0.1,0.3,0.4,0.5,0.8,0.4l0,0c0.2-0.1,0.3-0.2,0.4-0.3l0,0l1.2-2.5h2.1c0.2,0.6,0.8,0.9,1.4,0.9c0.8,0,1.5-0.7,1.5-1.5l0,0
		C222.1,18.9,221.4,18.2,220.6,18.2z"/>
</g>
<g>
	<g id="그룹_294_2_" transform="translate(1.366 1)">
		<g id="그룹_292_2_" transform="translate(14.233)">
			<path id="패스_308_2_" class="st1" d="M100.7,35.6l-3.7-6.5l-2.5-0.9l-0.9,2.1l-2.1-2.2l-2.3,1.1l-3.7,6.5"/>
			<path id="패스_309_2_" class="st1" d="M96.9,29.1L93,22.4l-3.9,6.8"/>
		</g>
		<g id="그룹_293_2_" transform="translate(0 16.423)">
			<path id="패스_311_2_" class="st1" d="M95.6,20.4l2.6-4.5l1.6-0.7l1.3,1.6l0.9-1.5l1.7,0.6l0.9,1.5l1.7,3"/>
			<path id="패스_312_2_" class="st1" d="M103.7,15.8l-2.7-4.7l-2.7,4.7"/>
		</g>
	</g>
	<g>
		<g>
			<g>
				<g>
					<path id="패스_301_2_" class="st2" d="M82.1,56.3l-1.5-4.8c0.8-0.3,1.3-1,1.3-1.9c0-1.1-0.9-2-2-2c-1.1,0-2,0.9-2,2
						c0,0.9,0.5,1.6,1.3,1.9l-1.5,5c-0.1,0.1,0,0.4,0.1,0.5c0.1,0.1,0.2,0.2,0.4,0.2h3.3c0.3,0,0.5-0.2,0.5-0.5
						C82.1,56.5,82.1,56.4,82.1,56.3z M79.9,48.7c0.5,0,0.9,0.4,0.9,0.9s-0.4,0.9-0.9,0.9S79,50,79,49.6S79.4,48.7,79.9,48.7
						L79.9,48.7z M79,56l0.9-3l0.9,3H79z"/>
					<path id="패스_302_2_" class="st2" d="M74.8,53c-0.1,0-0.4-0.1-0.4-0.2c-0.7-0.9-1-2.1-1-3.3c0-1.2,0.4-2.3,1-3.3
						c0.1-0.2,0.5-0.3,0.8-0.1l0,0c0.2,0.1,0.3,0.5,0.1,0.8c-0.5,0.7-0.9,1.6-0.9,2.6c0,0.9,0.3,1.9,0.9,2.6
						c0.1,0.2,0.1,0.6-0.1,0.8C75.1,53,75,53,74.8,53z"/>
					<path id="패스_303_2_" class="st2" d="M76.6,51.7c-0.1,0-0.3-0.1-0.4-0.1c-0.4-0.5-0.7-1.2-0.7-1.9c0-0.7,0.2-1.4,0.7-1.9
						c0.1-0.2,0.5-0.2,0.8-0.1l0,0c0.2,0.1,0.2,0.5,0.1,0.8c-0.3,0.4-0.4,0.8-0.4,1.2c0,0.4,0.1,0.9,0.4,1.2
						c0.1,0.2,0.1,0.6-0.1,0.8C76.9,51.7,76.8,51.7,76.6,51.7z"/>
					<path id="패스_304_2_" class="st2" d="M84.9,53c-0.1,0-0.2-0.1-0.3-0.1c-0.2-0.1-0.3-0.5-0.1-0.8l0,0
						c0.5-0.7,0.9-1.6,0.9-2.6c0-0.9-0.3-1.9-0.9-2.6c-0.1-0.2-0.1-0.6,0.1-0.8l0,0c0.2-0.1,0.6-0.1,0.8,0.1l0,0
						c0.7,0.9,1,2.1,1,3.3c0,1.2-0.4,2.3-1,3.3C85.2,53,85,53,84.9,53z"/>
					<path id="패스_305_2_" class="st2" d="M83.1,51.7c-0.1,0-0.2-0.1-0.4-0.1c-0.2-0.1-0.2-0.5-0.1-0.8c0.3-0.4,0.4-0.8,0.4-1.2
						c0-0.4-0.1-0.9-0.4-1.2c-0.1-0.2-0.1-0.6,0.1-0.8c0.2-0.1,0.6-0.1,0.8,0.1l0,0c0.4,0.5,0.7,1.2,0.7,1.9c0,0.7-0.2,1.4-0.7,1.9
						C83.5,51.6,83.2,51.7,83.1,51.7z"/>
				</g>
				<g>
					<g>
						<g>
							<path class="st3" d="M81.7,27.9c-1.9,0-3.4,1.5-3.4,3.4V44h1.1V31.3c0-1.3,1-2.3,2.3-2.3h14.1v-1.1H81.7z"/>
							<path class="st3" d="M110.1,40.5v8.9c0,1.3-1,2.3-2.3,2.3H89v1.1h18.7c1.9,0,3.4-1.5,3.4-3.4v-8.9H110.1z"/>
						</g>
					</g>
				</g>
			</g>
		</g>
	</g>
</g>
</svg>
