<?xml version="1.0" encoding="utf-8"?>
<!-- Generator: Adobe Illustrator 24.2.1, SVG Export Plug-In . SVG Version: 6.00 Build 0)  -->
<svg version="1.1" id="Layer_1" xmlns="http://www.w3.org/2000/svg" xmlns:xlink="http://www.w3.org/1999/xlink" x="0px" y="0px"
	 viewBox="0 0 190.6 81.8" style="enable-background:new 0 0 190.6 81.8;" xml:space="preserve">
<style type="text/css">
	.st0{fill:#484D51;stroke:#484D51;stroke-miterlimit:10;}
	.st1{fill:#484D51;}
	.st2{fill:none;stroke:#F7BA3A;stroke-linejoin:round;}
	.st3{fill:#F7BA3A;}
	.st4{fill:none;stroke:#F7BA3A;stroke-miterlimit:10;}
	.st5{fill:#FFFFFF;}
</style>
<g>
	<g>
		<g>
			<g>
				<g>
					<g>
						<g>
							<path class="st0" d="M81.2,27.9c-1.9,0-3.4,1.5-3.4,3.4v12.8h1.1V31.3c0-1.3,1-2.3,2.3-2.3h11.7v-1.1H81.2z"/>
							<path class="st0" d="M108.2,44.7v4.6c0,1.3-1,2.3-2.3,2.3H87.3v1.1h18.5c1.9,0,3.4-1.5,3.4-3.4v-4.6H108.2z"/>
						</g>
					</g>
				</g>
			</g>
			<g>
				<path id="패스_301_4_" class="st1" d="M80.3,56.3l-1.5-4.8c0.8-0.3,1.3-1,1.3-1.9c0-1.1-0.9-2-2-2c-1.1,0-2,0.9-2,2
					c0,0.9,0.5,1.6,1.3,1.9l-1.5,5c-0.1,0.1,0,0.4,0.1,0.5c0.1,0.1,0.2,0.2,0.4,0.2h3.3c0.3,0,0.5-0.2,0.5-0.5
					C80.3,56.5,80.3,56.4,80.3,56.3z M78.1,48.7c0.5,0,0.9,0.4,0.9,0.9c0,0.4-0.4,0.9-0.9,0.9s-0.9-0.4-0.9-0.9
					C77.2,49.1,77.6,48.7,78.1,48.7L78.1,48.7z M77.2,56l0.9-3l0.9,3H77.2z"/>
				<path id="패스_302_4_" class="st1" d="M73,53c-0.1,0-0.4-0.1-0.4-0.2c-0.7-0.9-1-2.1-1-3.3c0-1.2,0.4-2.3,1-3.3
					c0.1-0.2,0.5-0.3,0.8-0.1l0,0c0.2,0.1,0.3,0.5,0.1,0.8c-0.5,0.7-0.9,1.6-0.9,2.6c0,0.9,0.3,1.9,0.9,2.6c0.1,0.2,0.1,0.6-0.1,0.8
					C73.3,53,73.2,53,73,53z"/>
				<path id="패스_303_4_" class="st1" d="M74.8,51.7c-0.1,0-0.3-0.1-0.4-0.1c-0.4-0.5-0.7-1.2-0.7-1.9c0-0.7,0.2-1.4,0.7-1.9
					c0.1-0.2,0.5-0.2,0.8-0.1l0,0c0.2,0.1,0.2,0.5,0.1,0.8c-0.3,0.4-0.4,0.8-0.4,1.2c0,0.4,0.1,0.9,0.4,1.2c0.1,0.2,0.1,0.6-0.1,0.8
					C75.1,51.7,75,51.7,74.8,51.7z"/>
				<path id="패스_304_4_" class="st1" d="M83.1,53c-0.1,0-0.2-0.1-0.3-0.1c-0.2-0.1-0.3-0.5-0.1-0.8l0,0c0.5-0.7,0.9-1.6,0.9-2.6
					c0-0.9-0.3-1.9-0.9-2.6c-0.1-0.2-0.1-0.6,0.1-0.8l0,0c0.2-0.1,0.6-0.1,0.8,0.1l0,0c0.7,0.9,1,2.1,1,3.3c0,1.2-0.4,2.3-1,3.3
					C83.4,53,83.2,53,83.1,53z"/>
				<path id="패스_305_4_" class="st1" d="M81.3,51.7c-0.1,0-0.2-0.1-0.4-0.1c-0.2-0.1-0.2-0.5-0.1-0.8c0.3-0.4,0.4-0.8,0.4-1.2
					c0-0.4-0.1-0.9-0.4-1.2c-0.1-0.2-0.1-0.6,0.1-0.8c0.2-0.1,0.6-0.1,0.8,0.1l0,0c0.4,0.5,0.7,1.2,0.7,1.9c0,0.7-0.2,1.4-0.7,1.9
					C81.7,51.6,81.4,51.7,81.3,51.7z"/>
			</g>
		</g>
	</g>
	<g id="그룹_298_1_" transform="translate(148.859 147.371)">
		<path id="패스_126_1_" class="st2" d="M-47-115.6l-1.1-0.9l-5.5,4v-2.1l5.5-4.3l2.8,2"/>
		<path id="패스_127_1_" class="st2" d="M-43.9-115.6l5.5,4v-2.1l-5.5-4.3l-5.5,4.4v2.1L-43.9-115.6L-43.9-115.6z"/>
		<path id="패스_128_1_" class="st2" d="M-40.7-115.5l1.2-1l5.5,4v-2.1l-5.5-4.3l-2.8,2.2"/>
		<circle id="타원_4_1_" class="st2" cx="-43.8" cy="-111.9" r="1.5"/>
		<path id="패스_129_1_" class="st2" d="M-48.6-112.2v5.1h9.6v-4.9"/>
		<path id="패스_130_1_" class="st2" d="M-48.1-121.5h2.5l1-2.4l1.2,3.8l0.8-2.4l0.6,1h2.6"/>
		<path id="패스_131_1_" class="st2" d="M-48.6-108.8H-54v3.8h20.5v-3.8h-5.4"/>
		<line id="선_16_1_" class="st2" x1="-34.9" y1="-113.2" x2="-34.9" y2="-108.8"/>
		<line id="선_17_1_" class="st2" x1="-52.7" y1="-113.2" x2="-52.7" y2="-108.8"/>
		<line id="선_18_1_" class="st2" x1="-54" y1="-107.1" x2="-37.4" y2="-107.1"/>
		<rect id="사각형_165_1_" x="-36.6" y="-107.7" class="st3" width="1.1" height="1.1"/>
		<rect id="사각형_166_1_" x="-45.3" y="-108.8" class="st4" width="3.1" height="1.7"/>
	</g>
</g>
<g id="그룹_281_1_">
	<g id="그룹_280_1_">
		<path id="패스_292_1_" class="st5" d="M225.5,15.5c0.1,0.4,0.4,0.7,0.8,0.8l1.4,0.3V18c0,0.3,0.1,0.6,0.3,0.8l1,1l-1.8,3.2
			c-0.1,0.2-0.2,0.4-0.2,0.6v4c0,0.2,0.1,0.5,0.2,0.7l1.8,2.2c0.2,0.3,0.5,0.5,0.9,0.5c0.2,0,0.3,0,0.5-0.1l4-1.7
			c0.4-0.2,0.7-0.6,0.7-1v-0.8l1.1-0.3l3.1,1c0.5,0.2,1.1-0.1,1.4-0.6l0.8-1.6h2.6c0.4,0,0.8-0.3,1-0.7l1.7-4
			c0.1-0.1,0.1-0.3,0.1-0.5v-2.8c0-0.5-0.3-0.9-0.8-1.1l-0.9-0.3V9.9c0-0.2-0.1-0.4-0.1-0.6l-4.4-7.9c-0.3-0.5-1-0.7-1.5-0.4
			c0,0,0,0-0.1,0l-1.4,0.9h-5.3c-0.4,0-0.7,0.2-0.9,0.5l-1.9,2.9h-2.2c-0.4,0-0.8,0.2-1,0.6s-0.2,0.8,0,1.1l2.9,4.5h-3
			c-0.6,0-1.1,0.5-1.1,1.1c0,0.1,0,0.2,0,0.3L225.5,15.5z M231.1,14.1c0.4,0,0.8-0.2,1-0.6c0.2-0.4,0.2-0.8,0-1.2l-2.9-4.5h0.8
			c0.4,0,0.7-0.2,0.9-0.5l1.9-2.9h5.1c0.2,0,0.4-0.1,0.6-0.2l0.7-0.5l3.8,6.6v7c0,0.5,0.3,0.9,0.8,1.1l0.9,0.3v1.8l-1.3,3.1h-2.7
			c-0.4,0-0.8,0.2-1,0.6l-0.7,1.4l-2.5-0.8c-0.2-0.1-0.4-0.1-0.6,0l-2.3,0.6c-0.5,0.1-0.9,0.6-0.9,1.1v1l-2.5,1l-0.9-1.3V24l2.1-3.7
			c0.3-0.4,0.2-1-0.2-1.4l-1.4-1.4v-1.8c0-0.5-0.4-1-0.9-1.1l-1.6-0.4V14h3.8L231.1,14.1L231.1,14.1z"/>
		<path id="패스_293_1_" class="st5" d="M230,31.7h-2.8c-0.5,0-0.9,0.3-1.1,0.7l-1.1,2.8c-0.2,0.6,0,1.2,0.6,1.5c0,0,0,0,0.1,0
			l1.7,0.6c0.1,0,0.2,0.1,0.4,0.1h0.2l3.4-0.6c0.6-0.1,1-0.7,0.9-1.3c0-0.1,0-0.2-0.1-0.2l-1.1-2.8C230.9,31.9,230.4,31.7,230,31.7z
			 M227.8,35l-0.3-0.1l0.4-1h1.3l0.3,0.8L227.8,35z"/>
		<rect id="사각형_229_1_" x="223.7" y="28.3" class="st5" width="2.3" height="2.3"/>
		<rect id="사각형_230_1_" x="237" y="14.1" class="st5" width="2.3" height="2.3"/>
		<rect id="사각형_231_1_" x="237" y="9.6" class="st5" width="2.3" height="2.3"/>
	</g>
	<path id="패스_294_1_" class="st5" d="M220.6,18.2c-0.6,0-1.2,0.4-1.4,0.9h-2.5c-0.2,0-0.4,0.1-0.5,0.3l-0.7,1.5l-1.5-4.4
		c-0.1-0.2-0.2-0.4-0.4-0.4c-0.3-0.1-0.6,0.1-0.7,0.4l0,0l-1.5,6.1l-2.6-11.8c0-0.2-0.2-0.4-0.5-0.5s-0.6,0.1-0.7,0.4l0,0l-2.1,9
		l-1-2.9l0,0c-0.1-0.2-0.2-0.3-0.3-0.3c-0.3-0.1-0.7,0-0.8,0.3l0,0l-1.1,2.2h-1.7c-0.3-0.8-1.2-1.1-2-0.8c-0.5,0.2-0.9,0.8-0.9,1.4
		l0,0c0,0.8,0.7,1.5,1.5,1.5l0,0c0.6,0,1.1-0.4,1.4-0.9h2.1c0.3,0,0.5-0.2,0.6-0.4l0.6-1.2l1.2,3.5c0.1,0.3,0.4,0.5,0.8,0.4l0,0l0,0
		c0.2-0.1,0.3-0.2,0.4-0.4l2-8.4l2.6,11.8c0.1,0.3,0.4,0.5,0.7,0.5l0,0c0.2-0.1,0.4-0.3,0.5-0.5l1.6-6.5l1.3,3.8
		c0.1,0.3,0.4,0.5,0.8,0.4l0,0c0.2-0.1,0.3-0.2,0.4-0.3l0,0l1.2-2.5h2.1c0.2,0.6,0.8,0.9,1.4,0.9c0.8,0,1.5-0.7,1.5-1.5l0,0
		C222.1,18.9,221.4,18.2,220.6,18.2z"/>
</g>
</svg>
